<?xml version="1.0" encoding="UTF-8"?>
<!DOCTYPE svg PUBLIC "-//W3C//DTD SVG 1.1//EN" "http://www.w3.org/Graphics/SVG/1.1/DTD/svg11.dtd">
<!-- Creator: CorelDRAW X7 -->
<svg xmlns="http://www.w3.org/2000/svg" xml:space="preserve" width="4.522in" height="2.396in" version="1.1" style="shape-rendering:geometricPrecision; text-rendering:geometricPrecision; image-rendering:optimizeQuality; fill-rule:evenodd; clip-rule:evenodd"
viewBox="0 0 4522 2396"
 xmlns:xlink="http://www.w3.org/1999/xlink">
 <defs>
  <style type="text/css">
   <![CDATA[
    .str0 {stroke:#FEFEFE;stroke-width:9.37008}
    .str1 {stroke:#FEFEFE;stroke-width:9.37008;stroke-dasharray:36.374016 36.374016}
    .fil6 {fill:none;fill-rule:nonzero}
    .fil5 {fill:#FEFEFE;fill-rule:nonzero}
    .fil7 {fill:#FEFEFE;fill-rule:nonzero}
    .fil1 {fill:#F58634;fill-rule:nonzero}
    .fil3 {fill:#F1613A;fill-rule:nonzero}
    .fil4 {fill:#EF4C44;fill-rule:nonzero}
    .fil0 {fill:#FACE3B;fill-rule:nonzero}
    .fil2 {fill:#49382F;fill-rule:nonzero}
   ]]>
  </style>
 </defs>
 <g id="Layer_x0020_1">
  <metadata id="CorelCorpID_0Corel-Layer"/>
  <polygon class="fil0" points="4401,74 4508,0 4401,0 121,0 14,0 121,75 121,76 14,150 121,225 121,226 14,300 121,375 121,376 14,450 121,525 121,526 14,601 121,676 14,750 121,825 14,900 121,975 14,1049 121,1124 14,1199 121,1274 14,1349 121,1424 14,1498 121,1573 14,1648 121,1723 14,1798 121,1873 14,1947 121,2022 14,2097 121,2172 14,2247 121,2322 14,2396 121,2396 4401,2396 4508,2396 4401,2321 4401,2320 4508,2246 4401,2171 4401,2170 4508,2096 4401,2021 4401,2020 4508,1946 4401,1871 4401,1870 4508,1796 4401,1720 4508,1646 4401,1571 4508,1496 4401,1421 4508,1347 4401,1272 4508,1197 4401,1122 4508,1047 4401,972 4508,898 4401,823 4508,748 4401,673 4508,598 4401,523 4508,449 4401,374 4508,299 4401,224 4508,149 "/>
  <g id="_987238768">
   <path class="fil1" d="M2617 1833c-9,-11 -17,-1 -24,-18 -4,-10 -5,-22 -2,-33 6,-19 13,-34 14,-57 1,-26 5,-40 28,-54 17,-10 29,-20 42,-37 5,-8 11,-23 20,-24 4,11 5,29 7,40 1,7 0,44 -11,25 -1,19 4,36 -2,54 -4,15 -11,30 -18,44 -6,11 -33,84 -54,61l0 -1z"/>
   <path class="fil1" d="M2277 1950c-21,-7 -11,-34 -19,-51 -4,-9 -7,-19 -13,-27 -5,-8 -13,-12 -17,-23 -8,-20 -2,-44 -7,-65 -3,-12 -14,-19 -19,-29 -7,-10 -9,-23 -11,-35 -2,-12 -7,-23 -7,-35 0,-14 5,-29 7,-43 4,-23 22,-42 14,-67 -4,-11 -12,-22 -14,-34 -2,-12 2,-22 -5,-33 -11,-17 -34,-34 -39,-54 -6,-24 14,-46 -1,-69 -7,-12 -12,-11 -25,-13 -15,-3 -20,-12 -30,-23 -18,-20 -42,-8 -63,1 -15,7 -30,11 -46,11 -12,0 -21,-4 -32,-4 -13,0 -25,5 -37,6 -22,1 -19,-6 -25,-25 -9,-25 -33,-32 -51,-49 -17,-17 -45,-30 -49,-55 -2,-15 3,-18 9,-30 4,-11 3,-22 7,-33 7,-15 6,-30 1,-45 -2,-7 -8,-12 -6,-20 1,-5 9,-15 12,-20 7,-14 9,-31 18,-44 8,-11 20,-11 28,-22l5 -7c11,-15 33,-17 40,-36 4,-10 -1,-21 5,-30 5,-7 15,-12 21,-19 13,-14 23,-36 44,-35 10,0 16,7 25,8 10,0 19,-7 28,-11 19,-10 34,-19 56,-20 22,-1 41,-2 62,1 12,2 23,-4 28,8 2,5 -2,12 0,16 2,6 8,7 12,12 7,8 7,16 16,22 9,7 20,9 30,15 20,11 23,27 49,20 6,-1 8,1 12,-4 4,-4 0,-9 5,-13 6,-4 26,-2 33,-1 11,1 21,6 31,9 10,3 21,3 32,3 22,0 46,4 67,2 26,-2 26,-25 27,-46 0,-11 1,-21 3,-32 2,-14 0,-17 -17,-16 -21,1 -42,5 -63,5 -25,0 -31,-18 -34,-39 -2,-15 6,-8 19,-12 9,-3 16,-11 25,-13 12,-4 22,0 34,1 11,1 20,-2 31,-3 23,-1 43,14 63,-1 24,-19 -8,-30 -25,-39 -15,-9 -35,-27 -54,-23 -11,2 -19,13 -29,4 -4,-3 -1,-8 -5,-11 -2,-2 -12,-5 -14,-5 -15,-1 -35,26 -40,40 -6,17 35,45 -6,42 -14,-1 -35,-13 -47,2 -9,11 -2,17 2,26 3,7 9,15 -6,13 2,9 10,24 -7,22 -13,-1 -12,-16 -15,-25 -4,-8 -12,-13 -16,-21 -5,-10 -3,-21 -8,-32 -10,-18 -33,-28 -49,-40 -7,-7 -47,-37 -43,-7 2,17 29,28 39,38 7,7 8,12 18,16 7,4 20,5 21,14 -17,1 -16,0 -14,15 1,12 -1,16 -10,24 -8,7 -13,14 -22,12 -5,-1 -22,-11 -20,-17 3,-12 21,0 28,-6 9,-6 7,-18 1,-25 -11,-15 -32,-25 -46,-37 -12,-9 -40,-26 -53,-17 -10,7 -8,14 -24,13 -10,-1 -21,-9 -27,3 -5,10 2,18 -9,29 -8,8 -17,10 -25,19 -13,16 -19,35 -41,42 -7,2 -27,8 -32,1l-6 5c-8,-30 -35,1 -43,-25 -6,-20 5,-37 8,-57 2,-11 -2,-20 9,-28 8,-5 22,-5 32,-5 20,1 49,15 51,-13 1,-27 -21,-30 -34,-46 -19,-26 32,-17 41,-21 18,-9 34,-24 50,-35 18,-13 25,-32 49,-33 26,-1 18,-6 15,-27 -1,-11 11,-36 25,-34 2,11 7,18 5,29 -3,11 -8,18 7,24 9,4 19,2 28,3 14,1 16,-7 29,-10 23,-5 49,19 49,-15 0,-11 -3,-25 10,-28 10,-3 17,7 27,6 2,-11 -10,-18 3,-25 10,-4 24,2 33,0 11,-2 14,-11 2,-16 -10,-3 -25,6 -34,8 -18,5 -50,8 -46,-21 2,-13 38,-40 29,-50 -10,-10 -24,3 -29,9 -7,8 -16,11 -23,18 -6,7 -9,20 -7,28 2,13 6,12 -3,24 -6,8 -17,18 -20,28 -4,9 1,16 -6,24 -6,6 -19,12 -25,7 -9,-6 -3,-23 -7,-32 -12,-24 -26,-26 -48,-17 -13,5 -17,6 -24,-7 -4,-8 -12,-20 -12,-29 0,-12 8,-16 17,-20 13,-6 19,-9 29,-18 16,-13 32,-24 47,-38 14,-13 28,-35 47,-42 17,-6 39,-11 58,-15 19,-3 43,-9 61,2 8,5 12,8 23,10 11,2 23,2 33,4 12,3 48,12 52,25 9,27 -40,14 -46,24 -7,13 9,15 18,16 14,1 14,-3 24,-10 9,-7 20,-7 25,-16 6,-11 -1,-20 11,-27 16,-8 15,7 23,15 10,9 18,-2 28,-8 22,-16 41,-11 67,-13 20,-2 46,-18 65,-7 9,5 14,18 26,17 18,0 3,-8 -1,-16 -8,-15 4,-47 24,-45 20,2 29,21 39,36 6,9 12,18 12,29 0,10 -9,19 -1,29 11,13 18,0 20,-10 2,-12 -1,-19 -6,-28 -8,-13 -21,-23 -19,-38 15,-7 27,8 42,9 5,0 19,-2 20,-7 2,-8 -12,-11 -9,-22 4,-1 9,-2 14,-2l21 -2c2,-5 1,-9 -1,-14 21,-5 38,-11 61,-12 9,0 22,0 30,-2 10,-3 14,-12 23,-15 20,-7 45,7 65,12 9,3 21,3 30,7 15,6 10,8 0,18 -5,5 -11,8 -9,16 17,7 46,0 65,0 23,0 41,5 62,8 20,3 40,-7 59,-4 11,2 21,8 32,10 11,1 19,6 29,11 15,7 27,5 43,3 16,-3 35,4 40,-16 21,-1 47,-4 68,-3 13,1 20,8 32,12 11,4 21,2 33,2 12,-1 24,0 36,0 13,0 23,0 33,5 19,9 38,8 60,11 18,1 35,6 52,8 10,2 46,13 36,-6 30,-2 54,8 82,12 11,2 76,10 76,17l14 6c13,7 32,3 45,9 5,2 13,6 15,11 3,8 -3,11 -2,20 -11,3 -54,-19 -63,-6 -9,15 54,24 9,33 -10,2 -22,4 -30,12 -7,8 -8,17 -19,21 -10,4 -27,-2 -35,3 -10,5 -5,16 1,23 14,17 32,18 30,44 0,11 -6,20 -5,32 1,6 9,25 4,29 -7,5 -53,-31 -59,-37 -12,-12 -33,-29 -35,-47 -1,-12 6,-19 8,-30 2,-10 5,-20 5,-30 2,-19 -9,-9 -20,-5 -4,1 -10,1 -15,1 -5,0 -13,-5 -16,-4 -28,4 19,37 -14,44 -11,2 -19,-5 -28,-10 -10,-5 -17,-5 -28,-6 -14,-2 -16,2 -28,5 -11,4 -17,2 -27,9 -13,10 -26,33 -13,47 10,11 17,5 29,6 10,2 16,8 24,13 7,4 18,10 23,18 6,8 7,18 11,26 8,16 19,23 15,43 -3,16 -6,34 -11,50 -2,6 -3,19 -6,23 -7,9 -13,3 -22,1 -27,-5 -13,20 -16,35 -31,5 10,41 17,49 6,7 15,19 11,30 -3,10 -19,8 -22,14l-5 -2c-5,-14 -5,-27 -15,-39 -11,-12 -24,-4 -35,-13 -5,-4 -4,-14 -10,-17 -4,-2 -18,-1 -22,0 -17,3 -25,9 -24,-15 -19,-1 -15,41 5,41 8,0 19,-10 29,-2 12,10 0,13 -4,22 -11,20 19,35 27,53 9,22 17,34 17,60 0,22 -10,47 -24,64 -12,15 -25,35 -44,37 -9,2 -18,1 -27,3 -14,4 -14,12 -24,18 -19,13 -41,-14 -56,10 -3,4 -5,12 -5,13l-2 6c1,16 28,35 39,47 13,15 26,42 17,62 -5,10 -16,15 -24,23 -7,8 -12,17 -19,26 -21,30 -13,-15 -22,-27 -8,-10 -19,-14 -28,-20 -8,-6 -13,-21 -23,-20 -4,15 -9,38 -4,53 5,15 19,26 28,40 5,8 7,13 14,19 6,6 12,11 15,19 3,8 1,18 3,27 2,8 13,18 6,23 -7,5 -33,-22 -37,-26l-2 -11c-14,-17 -17,-31 -29,-47 -6,-9 -11,-13 -14,-23 -4,-12 -4,-24 -4,-37 0,-23 4,-41 -9,-61 -2,-4 -7,-7 -10,-11 -2,-4 -2,-11 -5,-14 -8,-9 -10,-1 -18,6 -4,5 -6,11 -13,8 0,0 -13,-25 -19,-37 -9,-15 -14,-31 -22,-47 -6,-14 -22,-24 -35,-19 -9,5 -13,8 -23,11 -9,2 -18,3 -25,10 -6,7 -6,17 -12,24 -5,9 -15,15 -23,20 -16,11 -34,32 -32,50 1,19 7,48 1,65 -4,11 -18,15 -20,26 -2,9 -30,-1 -34,-18 -6,-25 -6,-51 -16,-74 -9,-23 -30,-49 -32,-73 -1,-11 2,-33 -13,-37 -10,-3 -13,6 -15,15 -8,1 -22,-8 -28,-15 -8,-8 -5,-18 -12,-26 -10,-13 -25,-25 -43,-27 -24,-2 -45,15 -69,10 -9,-1 -19,-5 -28,-7 -12,-3 -12,-5 -21,-14 -15,-15 -37,-5 -54,-18 -9,-7 -18,-17 -25,-26 -5,-7 -7,-17 -15,-22 -28,-18 -27,23 -23,40 4,14 13,13 24,19 15,8 9,18 18,28 13,17 46,9 56,-6 7,-10 9,-16 19,-5 5,5 11,13 17,19 6,6 18,13 19,21 1,9 -7,9 -11,15 -4,6 -2,9 -4,15 -6,24 -24,36 -41,53 -20,19 -29,36 -56,44 -18,5 -41,20 -60,21 -30,0 -19,-29 -22,-48 -2,-18 -19,-35 -32,-48 -9,-8 -15,-9 -18,-21 -3,-11 -3,-22 -8,-33 -7,-18 -19,-36 -33,-51 -14,-15 -17,-27 -27,-44 -8,-15 -8,-9 -20,-5 -12,4 -15,-2 -23,-12 -13,8 3,46 6,57 7,22 4,43 24,61 8,7 17,6 23,17 6,10 5,19 6,30 3,14 8,14 16,25 5,8 6,19 11,27 5,8 15,11 21,19 7,7 8,16 17,21 5,20 15,39 39,41 21,1 41,-11 59,-21 7,-3 20,-8 29,-5 11,5 4,15 2,26 -7,38 -21,89 -53,114 -20,16 -35,37 -53,54 -9,8 -18,15 -26,25 -7,9 -8,17 -12,28 -4,10 -11,18 -9,29 1,5 7,6 7,12 0,8 -5,6 -7,11 -3,9 0,20 5,28 8,15 10,14 8,31 -4,23 4,46 -10,67 -7,11 -18,13 -28,20 -11,8 -19,20 -28,30 -6,8 -16,19 -17,30 -1,12 10,18 11,29 3,26 -26,31 -41,40 0,1 0,1 0,2 -7,9 0,19 0,28 0,10 -4,22 -9,29 -13,20 -28,31 -47,45 -16,12 -34,28 -55,29 -14,1 -18,-2 -30,3 -10,5 -17,8 -29,8l-6 -15z"/>
   <path class="fil1" d="M3113 1292c6,2 11,18 14,24 3,9 -2,16 -8,24 -5,5 -13,17 -21,12 -9,-5 -4,-21 1,-28 3,-4 8,-7 10,-13 2,-6 0,-13 4,-18l0 -1z"/>
   <path class="fil1" d="M3497 1452c-2,-5 -4,-12 -4,-17 0,-6 3,-11 3,-17 0,-12 8,-15 19,-18 10,-4 14,-14 23,-20 5,-3 10,-3 15,-5 4,-2 11,-16 15,-18 9,-4 22,-23 30,-29 8,-6 10,14 20,14 4,0 11,0 14,4 4,5 -1,9 -5,12 -3,3 -6,6 -9,10 -5,6 -4,7 0,14 3,7 1,10 2,16 1,6 5,9 7,13 3,6 2,9 -4,12 -7,3 -9,2 -11,10 -2,5 -2,10 -5,16 -2,7 -8,13 -10,19 -2,5 0,11 -2,16 -1,4 -7,7 -11,9 -2,1 -5,1 -7,2 -2,2 -3,4 -5,5 -6,1 -7,-5 -12,-6 -11,-4 -20,4 -30,4 -8,0 -23,-10 -16,-18 0,0 -13,-17 -17,-28z"/>
   <path class="fil1" d="M3303 1343c-4,-14 13,-18 23,-13 10,6 14,16 21,24 8,8 19,11 24,22 6,11 14,17 22,26 14,16 29,30 43,47 4,5 5,10 7,16 1,7 3,10 7,15 7,9 2,24 -6,32 -13,12 -21,-4 -28,-14 -5,-7 -10,-15 -14,-23 -5,-8 -12,-13 -18,-19 -23,-19 -29,-51 -45,-75 -6,-8 -12,-12 -18,-19 -5,-5 -10,-12 -16,-16l-2 -3z"/>
   <path class="fil1" d="M3576 1562c-4,-2 -10,2 -14,2 -6,0 -11,-2 -16,-2 -11,-1 -23,-1 -33,-3 -11,-1 -21,-6 -32,-9 -9,-2 -21,-2 -27,-11 -4,-4 -5,-8 -2,-13 4,-7 7,-5 14,-5 4,1 10,1 14,4 4,3 6,7 11,8 5,2 12,1 17,2 9,1 7,-3 14,-6 10,-6 20,6 30,8 3,1 7,-2 10,1 3,2 2,6 4,8 4,7 13,6 13,13l-3 3z"/>
   <path class="fil1" d="M3635 1490c-3,-4 -9,-4 -7,-12 1,-5 5,-7 7,-11 2,-5 1,-11 2,-16 0,-5 2,-11 3,-16 1,-9 7,-20 15,-24 10,-6 20,-1 31,-1 5,0 11,0 16,-2 3,-2 10,-8 14,-7 6,2 1,10 -1,13 -2,4 -4,8 -6,11 -6,8 -20,6 -29,5 -8,-1 -29,-6 -25,9 0,3 1,6 4,6 4,0 2,-5 5,-6 4,-1 9,4 13,4 4,0 11,-4 14,-3 6,3 4,10 0,13 -6,6 -23,4 -18,15 2,3 4,4 5,7 0,2 0,5 1,7 2,5 7,6 8,12 1,9 -4,6 -10,8 -5,1 -9,7 -13,7 -3,-6 -2,-34 -14,-30 -1,7 7,13 5,22 -2,5 -1,21 -10,16 -9,-4 -4,-20 -10,-27z"/>
   <path class="fil1" d="M3512 1138c4,16 -40,3 -24,-12 4,-3 7,-2 11,-3 3,0 7,-3 10,-4 12,0 0,15 2,18l1 1z"/>
   <path class="fil1" d="M3613 1080c1,7 5,28 17,17 6,-6 5,-20 6,-28 2,-9 8,-18 8,-27 1,-17 -14,-9 -18,0 -5,11 -13,38 -13,38z"/>
   <path class="fil1" d="M3709 1296c-1,4 -6,9 -11,9 -6,0 -7,-5 -11,-6 -6,-1 -18,10 -19,17 0,4 1,11 7,8 1,0 3,-4 4,-5 2,-2 6,-2 8,-2 13,0 10,11 16,19 5,5 20,17 22,7 1,-5 -4,-10 -2,-14 2,-6 7,-1 7,-9 1,-9 -4,-20 -7,-29 -1,-3 -3,-9 -8,-8 -5,1 -4,8 -5,12l-1 1z"/>
   <path class="fil1" d="M3657 1216c-4,10 -18,-2 -23,-5 -8,-6 -11,-15 -10,-24 20,-5 -13,-54 19,-37 4,2 10,2 13,5 4,4 2,9 3,14 2,6 3,6 2,12 -1,5 -2,10 -3,15 -1,4 -3,12 -1,16 3,5 9,3 14,2 13,0 16,10 18,20 -5,-1 -10,-7 -16,-8 -3,-1 -16,-10 -16,-10z"/>
   <path class="fil1" d="M3683 1588c-8,-10 7,-20 18,-24 7,-3 21,-11 29,-7 15,6 -9,13 -12,15 -10,7 -16,15 -29,16 -2,1 -4,2 -6,0z"/>
   <path class="fil1" d="M3638 1232c0,3 18,23 18,8 0,-6 -12,-16 -17,-12l-1 4z"/>
   <path class="fil1" d="M3693 1242c0,5 15,21 16,9 1,-10 -10,-15 -17,-9l1 0z"/>
   <path class="fil1" d="M3671 1254c11,6 0,24 -6,22 -6,-1 -1,-28 4,-22l2 0z"/>
   <path class="fil1" d="M3689 1261c11,5 -4,31 -11,29 -6,-2 -1,-29 5,-23l6 -6z"/>
   <path class="fil1" d="M3709 1275c1,-7 -16,-23 -14,-8 0,0 11,18 14,8z"/>
   <path class="fil1" d="M3767 1965c8,3 12,-7 18,-12 7,-4 9,-11 18,-13 0,5 1,11 -1,16 -2,5 -6,5 -8,9 -4,10 1,17 4,28 2,7 -1,9 4,15 2,4 11,9 15,11 4,3 9,7 14,8 9,1 9,-3 15,-5 20,-6 44,-1 64,-11 21,-9 31,-31 43,-48 14,-21 30,-45 47,-62 17,-16 28,-37 34,-59 6,-26 -10,-47 -22,-70 -11,-23 -30,-31 -40,-53 -4,-9 1,-14 1,-25 0,-12 -4,-28 -8,-40 -4,-9 -14,-12 -17,-23 -3,-7 1,-41 -10,-32 -8,6 -16,37 -18,46 -5,16 -3,22 -11,36 -6,12 -4,19 -16,15 -11,-3 -21,-10 -29,-18 -9,-8 -27,-8 -26,-21 1,-15 29,-34 21,-40 -7,-7 -31,-9 -41,-12 -17,-5 -13,4 -23,16 -8,10 -15,2 -23,9 -5,4 -11,21 -11,28 -8,2 -18,6 -26,2 -13,-8 -13,-14 -28,-3 -9,5 -20,13 -24,22 -6,12 -2,17 -16,21 -4,1 -8,-2 -12,1 -7,4 -7,9 -10,15 -4,11 -6,17 -17,22 -18,10 -39,11 -58,23 -19,12 -37,17 -42,40 -2,11 -2,23 -6,33 -3,6 -7,5 -7,12 -1,7 5,8 7,14 7,18 6,50 -1,65 -7,15 -27,42 5,37 21,-3 40,-9 61,-12 21,-2 38,-17 57,-25 36,-15 81,-31 106,11 4,6 10,26 17,29z"/>
   <path class="fil1" d="M3928 1572c-3,0 -11,-13 -15,-16 -4,-2 -11,-4 -15,-1 -5,2 -7,10 -13,3 -5,-4 -1,-8 1,-13 10,-23 -16,-40 -35,-45 -6,-1 -10,-4 -15,-7 -6,-4 -6,-4 -12,-1 -7,3 -7,3 -12,-4 -3,-5 -8,-11 -3,-16 2,-3 15,-3 16,-5 2,-4 -12,-3 -15,-5 -4,-2 -4,-8 -9,-9 -5,-2 -13,4 -13,-5 0,-9 16,-7 22,-8 4,-2 7,-4 12,-4 6,0 6,1 10,6 2,3 5,5 6,8 2,4 2,8 4,12 3,8 3,17 12,18 4,-10 12,-13 19,-19 7,-7 19,-7 29,-4 21,5 38,19 58,25 11,4 21,9 29,17 5,4 3,7 5,13 2,6 5,6 11,7 5,2 10,2 13,7 1,2 3,5 2,7 -1,3 -5,3 -6,5 -3,4 2,10 5,13 4,5 4,9 7,14 3,6 8,3 13,7 3,3 7,10 9,14 10,16 -9,6 -16,6 -13,-1 -23,-3 -33,-12 -8,-9 -9,-23 -23,-27 -10,-3 -14,3 -19,10 -7,10 -12,7 -21,10l-8 -1z"/>
   <path class="fil1" d="M4038 1528c12,1 28,0 36,-11 4,-5 13,-20 5,-24 -9,-5 -16,15 -24,18 -7,2 -25,0 -28,8l11 9z"/>
   <path class="fil1" d="M3819 2100c-5,-16 1,-30 9,-44 7,-10 6,-6 18,-2 8,2 14,1 23,1 7,17 -6,18 -17,25 -10,6 -13,18 -25,20l-8 0z"/>
   <path class="fil1" d="M3675 627c-3,-5 -7,-18 2,-18 6,0 10,11 12,15 7,13 17,20 25,31 8,10 23,22 27,34 3,5 2,12 4,18 3,6 9,9 9,17 -9,2 -17,-9 -24,-14 -11,-8 -10,-11 -15,-24 -8,-16 -25,-34 -36,-48l-4 -11z"/>
   <path class="fil1" d="M3766 800c-5,-9 -18,-15 -14,-28 1,-5 7,-4 7,-13 1,-6 -6,-12 0,-16 7,-4 26,11 32,13 11,4 25,4 24,19 -3,1 -7,3 -8,6 -1,3 -2,11 -4,13 -8,5 -18,-9 -25,-11 -1,5 0,10 -4,13l-8 4z"/>
   <path class="fil1" d="M3720 918c-3,-4 -13,-5 -15,-8 -2,-6 6,-15 10,-18 6,-6 9,-8 17,-10 6,-2 17,0 22,-4 6,-4 6,-12 12,-16 8,-5 11,1 15,-10 4,-15 -6,-28 -4,-43 23,-7 22,19 25,36 2,17 15,35 12,54 -12,-1 -21,6 -33,3 -3,6 -1,15 -8,17 -11,3 -10,-7 -16,-12 -9,-8 -27,-6 -33,2l-4 9z"/>
   <path class="fil1" d="M3708 959c-1,-11 -20,-24 -12,-34 11,-13 20,13 33,12 2,10 -14,34 -21,23l0 -1z"/>
   <path class="fil1" d="M4069 2148c-6,-9 -40,-1 -28,-23 6,-10 30,-14 40,-20 14,-7 27,-15 41,-22 16,-7 30,-15 44,-26 5,-5 7,-10 15,-9 1,4 0,8 0,11 3,0 6,0 9,0 3,12 -16,20 -24,25 -13,8 -24,18 -35,26 -12,8 -26,6 -36,15 -8,8 -13,16 -24,21l-2 2z"/>
   <path class="fil1" d="M4205 2065c-4,-7 7,-11 8,-17 2,-8 -7,-16 -6,-21 3,-8 16,-3 20,-8 3,-5 1,-19 1,-25 0,-10 -1,-41 14,-36 8,3 12,11 10,18 -1,4 -5,7 -6,8 -1,6 2,4 4,9 1,2 3,5 4,6 2,3 -1,6 3,9 4,3 15,0 21,0 4,19 -28,17 -34,25 -5,6 -1,12 -10,18 -6,4 -13,7 -20,12l-9 2z"/>
   <path class="fil1" d="M1939 660c11,-9 30,-13 33,-28 1,-4 1,-8 2,-12 2,-4 6,-4 6,-9 1,-10 -10,-12 -17,-8 -6,3 -10,10 -15,14 -7,5 -17,3 -25,9 -4,3 -7,13 -4,20 3,7 15,5 15,13 0,0 0,0 0,1l5 0z"/>
   <path class="fil1" d="M1867 481c10,-9 47,-7 51,-22 1,-4 -2,-11 0,-15 1,-4 -11,-6 -10,-12 0,-10 -10,-11 -17,-8 -7,3 -10,10 -15,14 -8,6 -18,3 -25,9 -5,3 -30,14 -26,21 3,7 14,5 14,13 0,0 22,0 22,0l6 0z"/>
   <path class="fil1" d="M1978 670c1,-12 6,-12 12,-21 4,-6 1,-15 2,-22 1,-7 6,-13 5,-20 -1,-8 -8,-9 -12,-16 -8,-12 -3,-36 8,-46 5,-4 16,-10 22,-5 7,6 1,13 -4,16 4,8 17,2 19,12 1,6 -3,6 -4,10 -1,5 -1,4 0,9 1,5 3,4 1,9 -1,5 -6,4 -5,11 1,6 9,11 13,14 4,3 5,0 7,6 1,4 -3,7 -2,11 1,5 16,11 8,18 -4,4 -19,0 -24,2 -7,3 -11,10 -19,12 -5,2 -18,-1 -21,4l-6 -4z"/>
   <path class="fil1" d="M1554 529c11,24 37,5 47,-7 6,-7 9,-14 16,-21 8,-6 17,-10 25,-16 7,-6 11,-13 17,-21 6,-8 14,-9 23,-11 18,-3 36,-2 51,-14 18,-14 32,-19 55,-20 12,0 47,0 53,-14 2,-7 -6,-14 4,-18 8,-4 17,6 21,-3 4,-9 -10,-13 -7,-21 3,-9 17,-4 24,-5 17,-2 17,-14 18,-29 9,-4 12,-8 13,-17 1,-11 1,-16 13,-22 14,-8 30,-10 44,-18 3,-2 15,-9 13,-15 -2,-5 -18,-3 -23,-2 -22,0 -44,10 -67,8 -42,-2 -81,-18 -123,-18 -27,0 -55,2 -80,11 -25,8 -50,9 -76,12 -12,2 -23,5 -36,5 -13,0 -24,3 -37,7 -17,5 -34,16 -51,18 -13,2 -45,4 -22,22 12,9 28,7 43,9 10,1 20,7 28,13 13,10 4,11 3,23 -1,13 11,8 18,13 12,8 -5,9 -12,11 0,8 2,13 -5,18 -5,4 -11,5 -16,11 -9,13 -11,28 -11,44 -1,13 10,79 30,69l7 -2z"/>
   <path class="fil1" d="M1284 311c7,-3 17,5 24,6 8,1 16,-2 24,-2 14,-1 36,9 50,3 5,-2 12,-12 18,-16 8,-4 17,-6 25,-8 11,-3 21,-5 33,-6 11,-1 14,-5 24,-9 16,-7 35,-6 51,-10 17,-5 33,-12 50,-16 5,-13 -36,-7 -43,-7 -22,-1 -43,0 -65,3 -35,3 -71,-5 -104,0 -9,1 -41,4 -26,16 6,6 40,3 31,19 -5,8 -32,11 -41,13 -15,3 -28,7 -43,11l-8 3z"/>
   <path class="fil1" d="M1358 280c-7,-5 -15,-8 -22,-12 -7,-5 -17,-6 -25,-4 -6,2 -10,5 -16,6 -4,2 -8,3 -13,3 -4,1 -23,-2 -24,3 0,4 15,14 19,15 7,2 18,3 25,1 9,-1 16,-4 25,-5 4,-1 8,-1 12,-1 4,0 9,1 12,1 2,-1 4,-2 5,-3l2 -4z"/>
   <path class="fil1" d="M1292 452c-5,-2 -12,-3 -17,-4 -7,0 -9,3 -14,6 -14,10 2,16 13,16 14,0 23,-2 34,8 8,9 16,18 28,23 4,2 16,7 20,4 7,-4 -2,-11 -2,-16 0,-5 6,-4 10,-3 7,1 11,1 16,-6 9,-12 3,-18 -1,-31 -2,-5 1,-12 8,-11 7,1 8,10 14,13 15,8 43,-15 20,-24 -10,-3 -22,-3 -27,-13 -4,-8 -1,-11 4,-17 11,-13 -23,-26 -33,-30 -7,-2 -14,-3 -21,-3 -10,0 -17,-3 -27,1 -5,2 -13,7 -17,2 -3,-5 -1,-11 -9,-13 -8,-1 -13,7 -19,11 -5,4 -11,6 -17,8 -2,-5 -2,-10 2,-15 4,-5 5,-7 -3,-8 -10,-1 -22,10 -28,16 -5,4 -9,11 -4,16 4,7 14,8 21,8 14,2 28,3 42,-1 5,0 11,-3 16,-1 1,0 2,2 4,2 3,0 4,-1 6,-2 11,-4 15,10 21,17 8,11 11,24 -1,33 -5,4 -9,6 -13,11 -3,5 -5,6 -12,6 -1,0 -3,0 -4,0l-10 -3z"/>
   <path class="fil1" d="M1339 357c-4,0 -10,-1 -13,-5 -2,-4 1,-9 5,-10 8,-2 17,3 24,4 3,0 8,-1 11,1 4,2 3,7 0,8 -3,2 -8,1 -12,1 -4,1 -8,6 -12,6l-3 -5z"/>
   <path class="fil1" d="M1236 343c-10,-1 -20,0 -28,-1 -2,-1 -9,-3 -10,-3 -2,1 -2,4 -3,5 -2,1 -3,2 -5,3 -5,2 -16,10 -10,15 6,5 16,-2 21,-3 8,-1 12,1 19,-3 5,-2 12,-4 14,-10l2 -3z"/>
   <path class="fil1" d="M1318 344c3,-5 17,-5 22,-8 3,-2 7,-8 6,-12 -2,-5 -9,-4 -13,-4 -5,0 -10,2 -16,3 -8,2 -15,1 -23,0 -9,-2 -22,-3 -30,-8 -5,-3 -10,-5 -15,2 -4,5 -5,9 -11,14 7,9 27,7 38,7 7,0 14,-1 21,0 6,1 11,6 17,6l4 0z"/>
   <path class="fil1" d="M1128 376c10,3 21,-2 28,-8 3,-4 5,-7 7,-11 2,-3 7,-7 6,-12 -1,-4 -9,-3 -13,-2 -7,2 -13,4 -20,2 -7,-1 -8,-1 -12,5 -3,6 -4,8 -11,9 -7,2 -6,5 -1,11 4,5 11,8 17,8l-1 -2z"/>
   <path class="fil1" d="M1166 322c-2,3 8,5 11,5 4,1 7,-1 10,-3 4,-2 7,-3 11,-4 4,-1 9,-1 7,-7 -4,-8 -17,-7 -23,-4 -3,1 -6,4 -9,6 -3,1 -7,2 -10,5l3 2z"/>
   <path class="fil1" d="M1165 476c0,-6 8,-9 12,-12 5,-3 5,-7 8,-11 6,-9 16,-6 21,1 3,6 6,7 10,12 3,3 7,11 3,14 -4,3 -10,-4 -13,-6 -5,-2 -9,-2 -13,1 -5,5 -9,7 -16,7 -5,0 -14,1 -12,-7l0 1z"/>
   <path class="fil1" d="M1101 335c3,0 26,-4 17,-10 -1,-1 -4,0 -6,-1 -3,-2 -1,-2 -3,-4 -2,-5 -4,-6 -9,-6 -6,1 -9,5 -14,6 -5,2 -10,1 -14,-2 -9,-5 -17,-6 -27,-2 -8,3 -26,2 -26,12 -1,10 11,8 18,8 11,-1 21,-1 32,0 10,1 26,3 35,0l-3 -1z"/>
   <path class="fil1" d="M1059 409c7,-2 17,-6 22,-12 9,-8 -7,-13 -4,-23 1,-4 5,-7 6,-12 0,-5 -4,-9 -9,-9 -9,1 -21,23 -29,14 -4,-4 -2,-7 -9,-7 -4,1 -9,4 -13,4 -4,-1 -5,-5 -10,-6 -4,-1 -8,2 -11,1 -4,-1 -3,-6 -4,-9 -1,-6 -5,-6 -11,-7 -5,0 -10,0 -15,-1 -4,-1 -8,-3 -12,-3 -11,-1 -21,3 -31,5 -14,2 -23,14 -36,18 -3,1 -12,3 -9,9 1,2 6,3 8,4 5,0 8,-3 13,-4 7,-3 14,-2 22,-3 4,-1 14,-5 19,-3 4,1 2,2 0,6 1,1 3,2 5,3 1,1 6,1 7,2 3,5 -8,6 -11,7 -5,0 -8,1 -5,6 3,5 6,6 0,10 2,3 7,2 11,4 4,2 3,5 7,7 4,2 11,-3 15,-4 6,-2 12,-2 18,-3 12,-3 22,-7 34,-4 6,1 17,0 21,6l11 4z"/>
   <path class="fil1" d="M1398 681c-14,3 -18,-11 -10,-20 3,-3 10,-6 8,-12 -2,-8 -10,0 -13,3 -10,13 -16,30 -31,38 -6,3 -13,4 -17,10 -5,6 -6,11 1,13 5,2 13,2 17,0 6,-2 9,-7 16,-8 4,0 11,2 15,4 6,1 9,6 14,8 17,5 12,-9 14,-18 0,-5 1,-12 2,-16 2,-5 9,-9 -1,-9 -4,0 -7,3 -10,3l-5 4z"/>
   <path class="fil1" d="M1073 778c-10,2 -17,5 -27,5 -4,-7 -3,-16 2,-21 7,-7 13,-7 23,-8 4,-12 3,-20 -10,-24 -7,-2 -23,-6 -27,-14 -2,-5 1,-13 -2,-18 -3,-6 -9,-7 -14,-10 -11,-5 -22,3 -32,9 -5,3 -10,8 -16,10 -6,3 -11,2 -17,4 -4,1 -14,3 -13,8 2,5 12,5 16,4 11,-2 21,-5 33,-4 6,1 11,3 16,4 5,0 11,0 16,1 2,0 3,1 5,1 2,7 -8,5 -12,5 -6,0 -11,0 -16,2 -14,3 -14,9 -22,20 -7,9 -12,15 -15,27 -2,9 -2,26 11,17 5,-3 9,-11 12,-15 5,-5 9,-11 12,-17 6,-10 13,-19 24,-23 5,-1 11,-3 11,3 0,5 -6,10 -9,13 -5,8 -2,5 2,11 3,5 2,10 -2,14 -5,6 -14,11 -8,19 5,6 15,7 22,5 8,-2 16,-6 22,-10 6,-4 10,-9 15,-14l0 -4z"/>
   <path class="fil1" d="M975 1385c6,-11 8,-16 8,-29 0,-16 0,-54 -26,-41 -9,5 -10,11 -23,8 -8,-3 -19,-9 -26,-14 -9,-6 -20,-12 -26,-20 -6,-9 -5,-19 -10,-28 -12,-20 -24,-24 -45,-32 -19,-7 -29,-28 -50,-27 -24,2 -45,-4 -65,-19 -10,-8 -13,-14 -27,-18 -10,-3 -21,-6 -30,-12 -22,-16 -14,-30 -16,-53 -2,-23 -30,-32 -37,-55 -7,-21 -18,-42 -25,-65 -3,-10 -12,-25 -18,-8 -5,11 7,24 11,34 6,13 8,28 11,43 2,11 7,20 4,31 -8,-1 -18,-16 -24,-22 -9,-10 -7,-17 -12,-29 -5,-11 -11,-15 -12,-28 0,-5 1,-10 -1,-14 -3,-5 -9,-7 -11,-11 -10,-22 8,-40 -12,-61 -15,-16 -19,-28 -25,-50 -5,-21 11,-43 21,-61 7,-12 9,-20 19,-29 9,-7 18,-10 23,-21 6,-12 8,-24 14,-35 8,-17 13,-5 26,-12 23,-11 -15,-39 -20,-50 -9,-16 1,-41 -4,-61 -5,-18 -8,-42 -22,-57 -13,-13 -37,-23 -54,-22 -22,0 -40,20 -61,17 -1,-7 4,-12 8,-17 -11,-2 -34,12 -44,17 -14,7 -24,20 -38,26 -15,6 -33,8 -48,16 -13,7 -31,29 -46,23 -2,-16 24,-15 33,-20 8,-4 32,-21 30,-32 -7,0 -13,-2 -19,-3 -1,-8 8,-17 1,-24 -10,11 -32,5 -19,-9 10,-9 28,-20 41,-22 7,-1 15,1 22,-1 6,-2 12,-7 18,-9 13,-6 28,-3 39,-10 -8,-10 -18,-12 -30,-11 -7,1 -28,5 -14,-9 15,-14 46,1 62,-9 12,-8 -4,-15 0,-25 5,-11 26,-17 36,-19 22,-5 50,-3 73,-1 22,2 49,1 72,-1 15,-2 28,2 43,1 13,-1 23,-6 35,-3 25,7 52,4 78,8 13,2 24,6 38,4 14,-1 28,-3 43,-4 15,0 32,-1 44,7 13,8 18,15 34,16 27,1 53,-6 79,-3 12,1 22,9 33,11 11,1 22,-3 33,-6 22,-6 39,5 58,-9 16,-11 18,-44 45,-33 -5,4 -9,11 -5,17 8,-1 18,1 16,12 3,0 6,2 9,3 -6,15 5,17 16,12 7,-4 52,-43 41,-13 -9,24 -32,13 -49,19 -20,8 -40,21 -57,33 -10,7 -19,15 -31,19 -12,4 -24,6 -36,12 -16,7 -53,15 -51,36 1,5 5,8 5,14 1,5 -4,8 -4,15 2,14 12,11 24,12 19,1 40,12 56,22 15,9 11,8 7,24 -2,9 -4,23 0,32 8,-6 18,-13 26,-19 12,-8 14,-16 22,-28 8,-10 20,-15 29,-23 5,-5 11,-10 12,-16 2,-6 -3,-11 -1,-16 3,-8 17,-16 22,-23 5,-6 14,-26 20,-29 15,-7 42,8 52,19 7,7 5,18 12,25 8,7 23,1 30,-3 34,-19 26,16 30,39 3,23 32,27 34,50 2,25 -23,22 -41,31 -10,6 -20,13 -30,15 -11,3 -22,1 -34,0 -12,0 -62,-8 -56,17 11,1 45,-6 50,6 3,7 -7,17 -8,24 -3,14 3,12 10,18 22,18 -7,18 -22,22 -19,6 -30,4 -25,-18 -12,4 -21,9 -32,16 -11,7 -19,14 -29,24 -11,10 -22,16 -34,24 -26,17 -52,37 -65,64 -8,15 -20,28 -33,38 -14,11 -23,23 -36,37 -11,11 -20,17 -21,33 -2,13 4,24 1,37 -6,32 -36,32 -40,0 -2,-22 7,-49 -22,-53 -12,-2 -22,2 -33,4 -15,3 -17,5 -28,13 -18,15 -33,-5 -53,1 -15,4 -44,23 -50,35 -5,9 -8,23 -11,33 -4,11 -8,21 -8,33 0,12 3,23 6,34 1,9 -1,27 7,34 15,12 53,2 65,-10l0 -3c5,-18 4,-30 25,-33 13,-1 35,-9 31,13 -1,5 -7,13 -10,18 -2,6 -4,14 -7,20 -7,11 -23,22 -20,37 15,4 42,-4 55,5 13,9 7,39 6,54 -1,16 8,36 25,42 14,5 40,-18 47,5l8 9c3,-4 8,-6 11,-10 5,-6 4,-11 7,-18 3,-9 8,-15 18,-19 16,-7 34,-10 49,-18 1,10 -11,11 -9,22 8,4 6,13 5,20 11,3 8,-14 14,-21 9,-10 16,-6 27,0 8,4 17,11 25,14 10,2 23,-2 32,-3 10,-1 20,-2 29,3 9,5 11,14 18,21 6,6 15,9 22,15 9,8 9,14 15,23 9,16 38,8 55,15 20,8 26,29 35,46 6,9 6,18 10,27 3,7 16,16 23,20 18,12 40,2 58,18 18,16 37,17 59,22 23,6 35,16 50,32 9,11 13,11 13,27 0,11 2,23 -5,33 -5,9 -15,15 -22,24 -7,10 -7,20 -12,31 -9,23 -14,38 -13,64 0,11 3,23 1,34 -2,14 -9,17 -18,26 -7,7 -9,19 -16,26 -9,8 -21,4 -32,5 -17,3 -40,21 -45,39 -3,11 4,21 3,31 -1,9 -8,24 -14,31 -3,4 -8,5 -12,9 -5,7 -5,9 -7,17 -3,12 -7,21 -12,32 -6,12 -7,18 -21,17 -12,0 -23,-3 -35,-2 -37,2 19,28 7,50 -7,11 -26,8 -36,15 -10,7 -10,19 -21,23 -6,3 -13,-1 -16,7 -2,5 1,14 3,18 7,14 15,14 7,31l5 8c-5,6 -14,6 -18,12 -15,20 31,20 36,30 10,19 -24,32 -12,54 10,18 24,32 42,43 8,4 25,11 14,20 -6,5 -27,0 -35,0l3 0c-9,-8 -18,-5 -25,-18 -9,-15 -6,-13 -22,-13 -25,1 -35,-33 -44,-53 -12,-26 -21,-54 -29,-81 -9,-26 -30,-37 -36,-62 -8,-31 -12,-58 -11,-91 2,-37 -9,-70 -8,-107 2,-33 4,-64 1,-97 -1,-22 -22,-53 -41,-66 -14,-10 -35,-18 -48,-31 -14,-16 -16,-43 -26,-62 -7,-13 -15,-17 -25,-28 -7,-8 -11,-21 -16,-30 -3,-7 -14,-19 -11,-27 3,-11 13,-10 13,-23 0,-16 -5,-23 1,-39 6,-16 3,-24 21,-29 1,-4 0,-4 -2,-5l11 -24z"/>
   <path class="fil1" d="M918 1098c-14,-5 -3,-16 6,-19 8,-2 19,-1 27,-1 10,0 19,-2 28,2 9,4 15,12 23,16 8,4 51,21 38,35 -4,5 -20,1 -26,2 -14,1 -16,5 -19,-9 -4,-16 -14,-19 -29,-24 -5,-2 -13,-8 -17,-8 -9,-1 -12,7 -21,5l-10 1z"/>
   <path class="fil1" d="M1054 1161c-4,-1 -11,-4 -11,-8 0,-7 5,-4 9,-6 15,-5 9,-6 11,-19 1,-6 -4,-4 4,-6 5,-2 9,1 13,3 10,4 44,10 42,23 -1,11 -14,6 -22,7 -6,1 -6,3 -10,5 -5,3 -28,3 -36,1z"/>
  </g>
  <g id="_987240560">
   <path class="fil2" d="M581 1676c0,15 -1,28 -3,40 -2,12 -6,22 -11,30 -5,9 -12,16 -21,20 -8,5 -19,7 -31,7 -12,0 -22,-2 -30,-6 -8,-4 -15,-10 -19,-19 -5,-8 -9,-18 -11,-30 -2,-12 -3,-25 -3,-41 0,-14 1,-27 3,-39 3,-12 6,-22 12,-31 5,-8 12,-15 20,-20 9,-4 19,-7 32,-7 11,0 21,3 29,7 8,4 15,10 20,18 5,8 8,18 10,30 2,12 3,26 3,41zm-25 2l0 0c0,-9 0,-18 -1,-25 -1,-7 -2,-14 -3,-20 -1,-5 -3,-10 -5,-14 -2,-5 -5,-8 -8,-11 -2,-2 -6,-4 -9,-5 -4,-2 -8,-2 -13,-2 -8,0 -15,2 -20,6 -5,3 -9,9 -12,16 -3,6 -5,14 -6,23 -1,9 -2,19 -2,30 0,14 1,25 3,35 1,10 3,18 6,24 4,6 8,11 12,14 5,2 11,4 18,4 6,0 10,-1 14,-3 5,-2 8,-4 11,-7 3,-3 5,-7 7,-12 2,-4 4,-9 5,-15 1,-5 2,-11 2,-18 1,-6 1,-13 1,-20z"/>
   <path class="fil2" d="M732 1676c0,15 -1,28 -4,40 -2,12 -6,22 -11,30 -5,9 -12,16 -21,20 -8,5 -19,7 -31,7 -12,0 -22,-2 -30,-6 -8,-4 -14,-10 -19,-19 -5,-8 -9,-18 -11,-30 -2,-12 -3,-25 -3,-41 0,-14 1,-27 4,-39 2,-12 6,-22 11,-31 5,-8 12,-15 20,-20 9,-4 19,-7 32,-7 12,0 22,3 30,7 8,4 14,10 19,18 5,8 9,18 11,30 2,12 3,26 3,41zm-26 2l0 0c0,-9 0,-18 -1,-25 0,-7 -1,-14 -3,-20 -1,-5 -3,-10 -5,-14 -2,-5 -4,-8 -7,-11 -3,-2 -6,-4 -10,-5 -4,-2 -8,-2 -13,-2 -8,0 -15,2 -20,6 -5,3 -9,9 -12,16 -3,6 -5,14 -6,23 -1,9 -1,19 -1,30 0,14 0,25 2,35 1,10 4,18 7,24 3,6 7,11 12,14 5,2 10,4 17,4 6,0 11,-1 15,-3 4,-2 7,-4 10,-7 3,-3 6,-7 8,-12 1,-4 3,-9 4,-15 1,-5 2,-11 3,-18 0,-6 0,-13 0,-20z"/>
   <path class="fil2" d="M949 1676c0,15 -1,28 -3,40 -3,12 -6,22 -12,30 -5,9 -12,16 -20,20 -9,5 -19,7 -32,7 -12,0 -21,-2 -29,-6 -9,-4 -15,-10 -20,-19 -5,-8 -8,-18 -10,-30 -3,-12 -4,-25 -4,-41 0,-14 2,-27 4,-39 2,-12 6,-22 11,-31 5,-8 12,-15 21,-20 8,-4 19,-7 31,-7 12,0 22,3 30,7 8,4 14,10 19,18 5,8 9,18 11,30 2,12 3,26 3,41zm-25 2l0 0c0,-9 -1,-18 -2,-25 0,-7 -1,-14 -2,-20 -2,-5 -3,-10 -6,-14 -2,-5 -4,-8 -7,-11 -3,-2 -6,-4 -10,-5 -4,-2 -8,-2 -12,-2 -9,0 -15,2 -20,6 -6,3 -10,9 -12,16 -3,6 -5,14 -6,23 -2,9 -2,19 -2,30 0,14 1,25 2,35 2,10 4,18 7,24 3,6 7,11 12,14 5,2 11,4 18,4 5,0 10,-1 14,-3 4,-2 8,-4 11,-7 2,-3 5,-7 7,-12 2,-4 3,-9 4,-15 2,-5 2,-11 3,-18 0,-6 1,-13 1,-20z"/>
   <path class="fil2" d="M1099 1676c0,15 -1,28 -3,40 -2,12 -6,22 -11,30 -6,9 -13,16 -21,20 -9,5 -19,7 -32,7 -11,0 -21,-2 -29,-6 -8,-4 -15,-10 -20,-19 -5,-8 -8,-18 -10,-30 -2,-12 -3,-25 -3,-41 0,-14 1,-27 3,-39 2,-12 6,-22 11,-31 6,-8 13,-15 21,-20 8,-4 19,-7 31,-7 12,0 22,3 30,7 8,4 15,10 20,18 5,8 8,18 10,30 2,12 3,26 3,41zm-25 2l0 0c0,-9 -1,-18 -1,-25 -1,-7 -2,-14 -3,-20 -2,-5 -3,-10 -5,-14 -2,-5 -5,-8 -8,-11 -3,-2 -6,-4 -10,-5 -3,-2 -8,-2 -12,-2 -8,0 -15,2 -20,6 -5,3 -9,9 -12,16 -3,6 -5,14 -6,23 -1,9 -2,19 -2,30 0,14 1,25 2,35 2,10 4,18 7,24 3,6 7,11 12,14 5,2 11,4 18,4 5,0 10,-1 14,-3 4,-2 8,-4 11,-7 3,-3 5,-7 7,-12 2,-4 4,-9 5,-15 1,-5 2,-11 2,-18 1,-6 1,-13 1,-20z"/>
   <path class="fil2" d="M1249 1676c0,15 -1,28 -3,40 -2,12 -6,22 -11,30 -5,9 -12,16 -21,20 -8,5 -19,7 -31,7 -12,0 -22,-2 -30,-6 -8,-4 -15,-10 -19,-19 -5,-8 -9,-18 -11,-30 -2,-12 -3,-25 -3,-41 0,-14 1,-27 3,-39 3,-12 6,-22 12,-31 5,-8 12,-15 20,-20 9,-4 19,-7 31,-7 12,0 22,3 30,7 8,4 15,10 20,18 5,8 8,18 10,30 2,12 3,26 3,41zm-25 2l0 0c0,-9 0,-18 -1,-25 -1,-7 -2,-14 -3,-20 -1,-5 -3,-10 -5,-14 -2,-5 -5,-8 -8,-11 -2,-2 -6,-4 -9,-5 -4,-2 -8,-2 -13,-2 -8,0 -15,2 -20,6 -5,3 -9,9 -12,16 -3,6 -5,14 -6,23 -1,9 -2,19 -2,30 0,14 1,25 3,35 1,10 3,18 6,24 4,6 8,11 12,14 5,2 11,4 18,4 6,0 10,-1 14,-3 5,-2 8,-4 11,-7 3,-3 5,-7 7,-12 2,-4 4,-9 5,-15 1,-5 2,-11 2,-18 1,-6 1,-13 1,-20z"/>
   <path class="fil2" d="M1467 1676c0,15 -1,28 -4,40 -2,12 -6,22 -11,30 -5,9 -12,16 -21,20 -8,5 -19,7 -31,7 -12,0 -22,-2 -30,-6 -8,-4 -14,-10 -19,-19 -5,-8 -9,-18 -11,-30 -2,-12 -3,-25 -3,-41 0,-14 1,-27 4,-39 2,-12 6,-22 11,-31 5,-8 12,-15 20,-20 9,-4 19,-7 32,-7 12,0 22,3 30,7 8,4 14,10 19,18 5,8 9,18 11,30 2,12 3,26 3,41zm-26 2l0 0c0,-9 0,-18 -1,-25 0,-7 -1,-14 -3,-20 -1,-5 -3,-10 -5,-14 -2,-5 -4,-8 -7,-11 -3,-2 -6,-4 -10,-5 -4,-2 -8,-2 -13,-2 -8,0 -15,2 -20,6 -5,3 -9,9 -12,16 -3,6 -5,14 -6,23 -1,9 -1,19 -1,30 0,14 0,25 2,35 1,10 4,18 7,24 3,6 7,11 12,14 5,2 10,4 17,4 6,0 11,-1 15,-3 4,-2 7,-4 10,-7 3,-3 6,-7 8,-12 1,-4 3,-9 4,-15 1,-5 2,-11 3,-18 0,-6 0,-13 0,-20z"/>
   <path class="fil2" d="M1617 1676c0,15 -1,28 -3,40 -3,12 -6,22 -12,30 -5,9 -12,16 -20,20 -9,5 -19,7 -32,7 -12,0 -21,-2 -29,-6 -9,-4 -15,-10 -20,-19 -5,-8 -8,-18 -10,-30 -3,-12 -4,-25 -4,-41 0,-14 2,-27 4,-39 2,-12 6,-22 11,-31 5,-8 12,-15 21,-20 8,-4 19,-7 31,-7 12,0 22,3 30,7 8,4 14,10 19,18 5,8 9,18 11,30 2,12 3,26 3,41zm-25 2l0 0c0,-9 -1,-18 -2,-25 0,-7 -1,-14 -2,-20 -2,-5 -3,-10 -6,-14 -2,-5 -4,-8 -7,-11 -3,-2 -6,-4 -10,-5 -4,-2 -8,-2 -12,-2 -9,0 -15,2 -20,6 -6,3 -10,9 -12,16 -3,6 -5,14 -7,23 -1,9 -1,19 -1,30 0,14 1,25 2,35 2,10 4,18 7,24 3,6 7,11 12,14 5,2 11,4 18,4 5,0 10,-1 14,-3 4,-2 8,-4 11,-7 2,-3 5,-7 7,-12 2,-4 3,-9 4,-15 2,-5 2,-11 3,-18 0,-6 1,-13 1,-20z"/>
   <path class="fil2" d="M1834 1676c0,15 -1,28 -3,40 -2,12 -6,22 -11,30 -6,9 -13,16 -21,20 -9,5 -19,7 -31,7 -12,0 -22,-2 -30,-6 -8,-4 -15,-10 -20,-19 -5,-8 -8,-18 -10,-30 -2,-12 -3,-25 -3,-41 0,-14 1,-27 3,-39 2,-12 6,-22 11,-31 6,-8 13,-15 21,-20 8,-4 19,-7 31,-7 12,0 22,3 30,7 8,4 15,10 20,18 5,8 8,18 10,30 2,12 3,26 3,41zm-25 2l0 0c0,-9 -1,-18 -1,-25 -1,-7 -2,-14 -3,-20 -2,-5 -3,-10 -5,-14 -2,-5 -5,-8 -8,-11 -3,-2 -6,-4 -10,-5 -3,-2 -8,-2 -12,-2 -8,0 -15,2 -20,6 -5,3 -9,9 -12,16 -3,6 -5,14 -6,23 -1,9 -2,19 -2,30 0,14 1,25 2,35 2,10 4,18 7,24 3,6 7,11 12,14 5,2 11,4 18,4 5,0 10,-1 14,-3 4,-2 8,-4 11,-7 3,-3 5,-7 7,-12 2,-4 4,-9 5,-15 1,-5 2,-11 2,-18 1,-6 1,-13 1,-20z"/>
   <path class="fil2" d="M1984 1676c0,15 -1,28 -3,40 -2,12 -6,22 -11,30 -5,9 -12,16 -21,20 -8,5 -19,7 -31,7 -12,0 -22,-2 -30,-6 -8,-4 -15,-10 -19,-19 -5,-8 -9,-18 -11,-30 -2,-12 -3,-25 -3,-41 0,-14 1,-27 3,-39 3,-12 6,-22 12,-31 5,-8 12,-15 20,-20 9,-4 19,-7 32,-7 11,0 21,3 29,7 8,4 15,10 20,18 5,8 8,18 10,30 2,12 3,26 3,41zm-25 2l0 0c0,-9 0,-18 -1,-25 -1,-7 -2,-14 -3,-20 -1,-5 -3,-10 -5,-14 -2,-5 -5,-8 -7,-11 -3,-2 -7,-4 -10,-5 -4,-2 -8,-2 -13,-2 -8,0 -15,2 -20,6 -5,3 -9,9 -12,16 -3,6 -5,14 -6,23 -1,9 -2,19 -2,30 0,14 1,25 3,35 1,10 3,18 6,24 4,6 8,11 12,14 5,2 11,4 18,4 6,0 10,-1 14,-3 5,-2 8,-4 11,-7 3,-3 5,-7 7,-12 2,-4 4,-9 5,-15 1,-5 2,-11 2,-18 1,-6 1,-13 1,-20z"/>
   <path class="fil2" d="M2135 1676c0,15 -1,28 -4,40 -2,12 -6,22 -11,30 -5,9 -12,16 -21,20 -8,5 -19,7 -31,7 -12,0 -22,-2 -30,-6 -8,-4 -14,-10 -19,-19 -5,-8 -9,-18 -11,-30 -2,-12 -3,-25 -3,-41 0,-14 1,-27 4,-39 2,-12 6,-22 11,-31 5,-8 12,-15 20,-20 9,-4 19,-7 32,-7 12,0 22,3 30,7 8,4 14,10 19,18 5,8 9,18 11,30 2,12 3,26 3,41zm-26 2l0 0c0,-9 0,-18 -1,-25 0,-7 -1,-14 -3,-20 -1,-5 -3,-10 -5,-14 -2,-5 -4,-8 -7,-11 -3,-2 -6,-4 -10,-5 -4,-2 -8,-2 -13,-2 -8,0 -15,2 -20,6 -5,3 -9,9 -12,16 -3,6 -5,14 -6,23 -1,9 -1,19 -1,30 0,14 0,25 2,35 1,10 4,18 7,24 3,6 7,11 12,14 5,2 10,4 17,4 6,0 11,-1 15,-3 4,-2 7,-4 10,-7 3,-3 6,-7 8,-12 1,-4 3,-9 4,-15 1,-5 2,-11 3,-18 0,-6 0,-13 0,-20z"/>
   <path class="fil2" d="M2285 1676c0,15 -1,28 -3,40 -3,12 -6,22 -12,30 -5,9 -12,16 -20,20 -9,5 -19,7 -32,7 -12,0 -21,-2 -30,-6 -8,-4 -14,-10 -19,-19 -5,-8 -8,-18 -10,-30 -3,-12 -4,-25 -4,-41 0,-14 2,-27 4,-39 2,-12 6,-22 11,-31 5,-8 12,-15 21,-20 8,-4 19,-7 31,-7 12,0 22,3 30,7 8,4 14,10 19,18 5,8 9,18 11,30 2,12 3,26 3,41zm-26 2l0 0c0,-9 0,-18 -1,-25 0,-7 -1,-14 -2,-20 -2,-5 -3,-10 -6,-14 -2,-5 -4,-8 -7,-11 -3,-2 -6,-4 -10,-5 -4,-2 -8,-2 -12,-2 -9,0 -15,2 -20,6 -6,3 -10,9 -13,16 -2,6 -4,14 -6,23 -1,9 -1,19 -1,30 0,14 1,25 2,35 2,10 4,18 7,24 3,6 7,11 12,14 5,2 11,4 18,4 5,0 10,-1 14,-3 4,-2 8,-4 11,-7 2,-3 5,-7 7,-12 2,-4 3,-9 4,-15 2,-5 2,-11 3,-18 0,-6 0,-13 0,-20z"/>
  </g>
  <g id="_987198768">
   <g>
    <g>
     <path class="fil2" d="M2655 1011c-1,-2 -3,1 -4,-3 0,-2 0,-5 1,-7 3,-5 5,-9 6,-15 1,-6 3,-10 8,-14 4,-3 7,-6 11,-11 1,-2 3,-5 5,-6 0,3 0,7 0,9 0,2 -2,11 -4,7 -1,4 -1,8 -3,13 -1,4 -3,7 -6,11 -2,3 -11,21 -14,17 0,0 0,0 0,-1z"/>
     <path class="fil2" d="M2683 669c0,-1 -14,1 -14,0 -2,-1 -6,-5 -8,-5 2,3 5,6 7,9 2,2 3,4 4,6 0,2 0,4 -3,0 -2,-2 -1,-3 -2,-5 -1,-2 -3,-5 -5,-7 -3,-4 -6,-8 -10,-10 -3,-2 -2,3 0,7 2,2 5,4 2,3 -2,-1 -4,-4 -6,-5 -4,-4 -8,-3 -11,-4 -4,-1 -8,-3 -11,-1 -1,0 -2,2 -5,0 -2,-3 -2,-6 -5,-5 -2,1 0,3 0,5 -1,2 -3,1 -4,2 -2,2 -1,3 -4,2 -2,-1 -5,-2 -4,-5 0,-2 10,3 7,-3 -2,-3 -9,-7 -11,-8 -2,-1 -4,-2 -7,-3 -2,-1 -3,-2 -5,-3 -3,-4 -8,-3 -11,-3 -4,0 -8,0 -11,1 -3,1 -6,5 -8,8 -3,3 -6,5 -9,8 -2,2 -3,2 -5,4 -2,1 -4,1 -4,4 1,2 2,6 3,8 2,3 3,3 6,2 4,-2 7,-1 10,5 2,3 1,7 3,9 1,1 4,0 5,-2 1,-2 0,-3 1,-6 0,-2 2,-4 3,-6 2,-3 1,-2 0,-6 -1,-2 0,-5 1,-6 1,-2 3,-2 4,-4 0,-1 3,-4 5,-1 2,3 -4,8 -4,11 0,7 7,7 11,7 1,0 4,-2 6,-1 3,2 3,4 0,4 -1,0 -5,-2 -6,-1 -3,1 0,3 0,6 -2,0 -4,-3 -6,-3 -3,0 -1,4 -1,7 1,8 -6,2 -10,2 -3,1 -3,3 -6,2 -2,-1 -5,0 -6,-1 -4,-2 -3,-4 -3,-7 0,-2 -1,-4 -1,-7 -4,-1 -6,5 -5,8 1,5 3,7 -3,7 -5,-1 -7,4 -11,7 -3,3 -7,7 -11,9 -2,1 -14,-2 -9,5 3,5 8,6 8,13 0,7 -7,3 -12,3 -2,0 -6,0 -8,1 -2,3 -1,5 -2,8 -1,5 -3,10 -2,16 2,6 9,-2 11,7 0,-1 1,-1 1,-2 2,2 6,0 8,0 6,-2 7,-7 10,-12 2,-2 4,-2 6,-4 2,-3 1,-6 2,-8 1,-3 4,-1 6,-1 4,1 3,-1 6,-3 3,-2 9,3 12,5 4,4 9,7 12,11 1,2 2,5 0,7 -2,1 -6,-2 -7,1 0,1 4,5 5,5 3,0 4,-1 5,-3 2,-2 3,-3 2,-6 0,-4 -1,-4 3,-4 0,-3 -3,-3 -5,-4 -2,-1 -3,-3 -4,-5 -3,-3 -9,-6 -10,-11 -2,-8 8,1 10,3 4,4 9,7 12,12 2,3 1,6 3,8 1,3 3,4 4,6 1,3 1,7 4,7 4,1 2,-3 1,-6 3,1 2,-1 1,-3 -1,-2 -3,-4 -1,-7 2,-3 7,0 11,1 9,2 -1,-7 0,-11 0,-3 4,-10 7,-9 1,0 3,1 4,2 0,1 0,2 1,3 3,2 4,0 6,0 4,-1 9,4 13,7 4,3 11,7 7,11 -4,3 -9,-2 -14,-2 -2,0 -4,0 -7,0 -2,-1 -5,-2 -7,-1 -2,0 -4,2 -5,2 -3,1 -6,-1 -5,3 2,6 4,11 9,11 5,1 10,0 14,0 4,1 5,1 5,5 0,2 0,5 0,8 0,5 1,12 -5,12 -5,0 -10,-2 -16,-2 -2,-1 -5,-1 -7,-2 -3,0 -5,-2 -8,-3 -1,0 -6,-1 -7,0 -2,1 -1,3 -1,4 -1,1 -2,0 -3,1 -6,1 -7,-3 -12,-6 -3,-2 -5,-3 -8,-5 -2,-2 -2,-4 -4,-6 -1,-2 -2,-2 -3,-4 0,-1 0,-3 0,-4 -2,-4 -4,-2 -7,-2 -5,-1 -10,-2 -15,-2 -5,1 -9,3 -13,6 -3,1 -5,3 -7,3 -3,0 -4,-3 -7,-3 -5,0 -7,6 -11,10 -1,2 -4,3 -5,5 -1,3 0,6 -1,9 -2,5 -8,6 -10,10 -1,1 -1,1 -2,2 -2,3 -5,4 -7,7 -2,3 -3,8 -4,12 -1,2 -3,5 -4,6 0,2 2,4 2,6 1,4 1,9 0,13 -2,3 -1,7 -2,10 -2,3 -3,4 -2,9 0,7 8,11 12,16 4,5 11,7 13,15 2,5 1,7 7,7 3,0 6,-2 9,-2 3,0 5,1 8,1 4,0 8,-1 12,-3 6,-2 12,-6 16,0 3,3 4,5 8,6 3,1 4,1 6,4 4,7 -2,13 0,20 1,5 7,10 9,15 2,3 0,6 1,9 0,4 2,6 3,9 2,7 -3,13 -4,19 -1,4 -3,8 -3,12 0,3 1,6 1,9 1,3 1,7 2,9 1,3 4,4 4,7 1,6 -1,12 0,17 1,3 2,4 3,6 1,1 2,4 2,6 2,4 -1,11 3,12 0,2 0,2 1,4 2,-1 4,-2 6,-3 3,-2 4,-1 6,-2 5,-1 9,-6 13,-9 5,-4 8,-7 12,-13 1,-2 3,-5 3,-7 0,-3 -1,-5 1,-7 0,0 0,0 0,-1 4,-2 10,-5 11,-11 0,-3 -2,-4 -1,-7 0,-3 3,-6 5,-8 2,-3 4,-6 7,-8 2,-2 5,-3 6,-6 4,-6 3,-11 5,-17 1,-5 0,-4 -1,-8 -1,-2 -1,-5 0,-7 0,-2 1,-1 2,-3 0,-2 -1,-2 -1,-3 -1,-3 1,-5 2,-8 1,-3 2,-5 3,-8 2,-2 5,-4 7,-7 4,-4 8,-10 13,-14 7,-7 10,-20 12,-30 1,-3 2,-6 0,-7 -2,-1 -5,1 -7,1 -4,3 -8,6 -13,6 -5,0 -8,-6 -9,-11 -2,-2 -2,-4 -4,-6 -1,-2 -4,-3 -5,-5 -1,-2 -1,-5 -3,-7 -1,-3 -3,-4 -3,-7 -1,-3 -1,-6 -2,-9 -2,-3 -4,-3 -6,-5 -5,-4 -4,-10 -6,-16 -1,-3 -6,-14 -3,-16 2,3 3,5 6,4 2,-1 2,-2 4,2 3,4 4,8 7,12 4,4 7,9 9,14 1,3 1,6 2,9 1,3 2,3 5,6 3,3 7,8 7,13 1,5 -1,12 5,12 5,0 10,-4 14,-5 6,-2 8,-6 12,-11 3,-4 7,-7 8,-13 0,-1 0,-2 1,-3 0,-2 2,-2 2,-4 -1,-2 -4,-4 -5,-5 -1,-2 -3,-4 -4,-5 -3,-3 -3,-2 -4,1 -2,3 -9,5 -12,0 -2,-3 -1,-5 -5,-7 -2,-2 -4,-2 -5,-6 -2,-4 -3,-14 4,-9 1,1 2,4 4,6 1,2 4,5 6,7 4,3 8,1 12,5 2,3 2,3 5,4 2,1 4,2 6,2 5,2 9,-2 14,-1 3,1 7,4 9,8 2,2 2,4 3,6 2,1 5,4 6,4 1,-2 1,-4 3,-3 3,1 3,6 3,8 1,6 6,12 8,17 2,5 2,11 3,16 1,4 5,6 6,5 5,-106 -52,-178 -86,-208z"/>
     <path class="fil2" d="M2505 697c2,-2 7,-3 7,-7 1,-1 1,-2 1,-3 0,-1 1,-1 1,-2 0,-3 -2,-3 -4,-3 -1,1 -2,3 -3,4 -2,1 -4,1 -6,2 -1,1 -2,4 -1,5 1,2 4,2 4,4 0,0 0,0 0,0 0,0 0,0 1,0z"/>
     <path class="fil2" d="M2489 652c2,-2 10,-2 11,-6 0,-1 -1,-2 0,-3 0,-1 -2,-2 -2,-3 0,-3 -2,-3 -4,-2 -1,1 -2,2 -3,3 -2,2 -4,1 -5,3 -1,0 -7,3 -6,5 0,2 3,1 3,3 0,0 4,0 4,0 1,0 1,0 2,0z"/>
     <path class="fil2" d="M2514 700c0,-3 1,-3 3,-5 0,-2 0,-4 0,-6 0,-2 1,-3 1,-5 0,-2 -2,-3 -3,-4 -2,-4 -1,-10 2,-12 1,-1 3,-2 4,-1 2,1 1,3 0,4 1,2 4,1 4,3 0,2 -1,2 -1,3 0,1 0,0 0,2 1,1 1,1 1,2 0,1 -2,1 -1,3 0,1 2,3 3,4 1,0 1,0 1,1 1,1 0,2 0,3 0,1 4,3 2,5 -1,1 -4,0 -5,0 -2,1 -3,3 -5,3 -1,0 -4,0 -5,1 0,0 0,-1 -1,-1z"/>
     <path class="fil2" d="M2421 670c1,5 8,0 10,-3 2,-2 2,-4 4,-6 2,-2 4,-3 6,-5 1,-1 2,-3 4,-5 1,-2 3,-3 5,-3 4,-2 8,-2 11,-5 4,-3 7,-5 12,-5 2,-1 9,-1 11,-4 0,-2 -1,-4 1,-5 1,-1 3,1 4,-1 1,-2 -2,-2 -1,-5 0,-2 3,-1 5,-1 3,0 3,-3 3,-7 2,0 3,-1 3,-4 0,-2 0,-3 3,-4 2,-2 5,-3 8,-4 1,-1 3,-2 3,-4 -1,-1 -4,0 -5,0 -4,0 -8,2 -13,2 -8,-1 -15,-4 -23,-3 -5,0 -10,1 -15,4 -5,2 -10,4 -15,5 -2,1 -4,2 -6,3 -3,0 -5,1 -7,3 -4,2 -7,5 -11,6 -2,1 -8,3 -5,6 2,1 5,0 8,0 2,0 3,1 5,2 2,1 0,2 -1,5 -1,3 2,1 3,2 2,1 -1,2 -3,3 0,2 0,3 -1,4 -2,1 -3,2 -4,3 -2,4 -3,7 -4,11 -1,3 -1,18 4,15 0,0 0,0 1,0z"/>
     <path class="fil2" d="M2381 634c2,-1 3,0 4,0 1,0 3,-1 4,-2 3,-1 6,0 9,-2 1,-1 3,-4 4,-5 2,-1 3,-2 5,-3 2,-1 4,-2 6,-3 2,-1 3,-2 5,-4 3,-2 6,-2 10,-4 3,-2 6,-4 9,-6 2,-3 -6,0 -7,1 -4,0 -8,2 -12,3 -6,3 -12,4 -18,7 -1,1 -7,3 -5,5 1,1 7,-2 4,2 -2,2 -6,4 -8,5 -3,2 -5,3 -8,5 -1,1 -1,1 -2,1z"/>
     <path class="fil2" d="M2396 623c-1,-1 -2,0 -3,-1 -1,0 -2,0 -4,1 -1,1 -2,2 -3,2 -1,1 -2,1 -2,2 -1,0 -4,1 -4,2 -1,1 1,2 1,2 1,0 3,-1 5,-2 1,-1 3,-2 4,-3 1,0 2,0 2,-1 1,0 2,0 2,0 1,0 1,-1 1,-1 1,0 1,-1 1,-1z"/>
     <path class="fil2" d="M2373 664c-1,0 -2,0 -3,0 -1,0 -2,1 -3,2 -3,3 -1,3 1,3 3,-1 5,-2 6,0 1,1 2,3 4,3 1,0 3,1 4,0 2,-1 0,-2 0,-3 1,-1 2,-2 3,-2 1,0 2,0 3,-2 2,-3 2,-4 1,-7 0,-1 1,-2 3,-2 1,-1 1,1 2,2 2,1 9,-6 5,-7 -2,0 -4,1 -5,-1 0,-2 1,-3 2,-4 3,-4 -3,-5 -4,-5 -1,0 -3,0 -4,1 -2,0 -3,0 -5,1 -1,1 -3,3 -3,2 0,-1 1,-2 -1,-2 -1,0 -3,2 -4,3 -1,2 -2,2 -3,3 -1,-1 0,-2 1,-3 1,-1 1,-2 0,-1 -2,0 -5,3 -6,5 -1,1 -2,3 -2,4 0,1 2,0 3,0 2,-1 5,-2 8,-3 1,-1 2,-2 3,-2 0,0 0,1 0,1 1,0 1,-1 1,-1 3,-2 3,1 3,2 1,2 1,5 -2,8 -1,1 -2,1 -3,3 -1,1 -2,1 -3,2 0,0 0,0 -1,0 0,0 -1,0 -1,0z"/>
     <path class="fil2" d="M2388 640c-1,1 -2,1 -2,0 0,-1 0,-2 1,-2 2,-1 3,-1 4,-1 1,0 2,-1 2,0 1,0 0,1 0,1 -1,1 -2,1 -3,1 0,1 -2,2 -2,2 0,0 0,0 0,-1z"/>
     <path class="fil2" d="M2370 644c-1,1 -3,2 -4,2 -1,0 -2,0 -2,1 0,0 0,0 -1,1 0,0 0,0 -1,1 -1,0 -3,3 -3,4 1,0 3,-2 4,-3 2,0 2,0 4,-2 1,0 2,-1 3,-3 0,0 0,0 0,-1z"/>
     <path class="fil2" d="M2385 639c0,-1 3,-2 4,-3 1,-1 2,-2 2,-3 0,-1 -1,0 -2,0 -1,0 -2,1 -3,2 -2,1 -3,1 -4,1 -2,0 -4,1 -5,1 0,0 -1,-1 -2,1 -1,2 -2,2 -3,4 0,1 4,-1 6,-1 1,-1 2,-2 3,-2 1,0 2,1 3,0 0,0 0,0 1,0z"/>
     <path class="fil2" d="M2349 659c2,0 4,-2 6,-3 1,-1 1,-2 2,-3 1,-1 2,-2 2,-3 0,-1 -1,0 -2,1 -1,0 -3,1 -4,2 -1,0 -1,0 -2,2 -1,1 -1,1 -3,2 -1,1 -1,2 -1,2 0,1 1,1 2,1 0,-1 0,-1 0,-1z"/>
     <path class="fil2" d="M2360 646c0,0 1,0 2,0 0,0 1,-1 2,-2 1,0 1,-1 2,-1 1,-1 1,-1 2,-2 0,-2 -3,0 -4,1 -1,0 -1,1 -2,2 -1,0 -1,1 -2,1 0,0 0,0 0,1z"/>
     <path class="fil2" d="M2348 677c0,-1 2,-2 3,-3 1,-1 1,-2 2,-3 2,-2 3,-3 4,-1 0,1 0,1 1,2 0,0 0,2 -1,2 -1,1 -1,0 -2,0 0,0 -1,0 -2,1 -1,1 -2,2 -4,3 -1,0 -2,1 -1,-1 0,0 0,0 0,0z"/>
     <path class="fil2" d="M2348 654c1,-1 5,-3 4,-4 0,0 0,0 -1,0 0,0 0,0 0,0 0,-1 0,-1 -1,0 -1,0 -2,1 -2,2 -2,1 -2,1 -3,1 0,0 -2,0 -4,2 -1,1 -4,3 -5,5 -1,1 1,0 2,-1 2,-1 4,-2 5,-2 2,-1 4,-2 6,-4 0,1 0,1 -1,1z"/>
     <path class="fil2" d="M2335 672c1,-1 3,-3 4,-5 3,-2 0,-2 2,-4 0,-1 1,-2 2,-3 0,-1 0,-1 -1,-1 -1,1 -5,7 -6,6 0,-1 1,-2 0,-1 -1,1 -2,2 -3,2 -1,0 0,-1 -1,0 0,0 -1,1 -2,1 0,0 0,-1 1,-1 0,-1 -1,-1 -1,-1 -1,1 -2,1 -3,2 0,0 -1,0 -1,0 -2,1 -4,3 -5,4 -3,2 -6,5 -8,7 -1,0 -2,2 -2,3 0,0 0,-1 0,-1 1,0 2,-1 3,-2 1,-1 2,-1 3,-2 1,-1 3,-3 4,-3 0,0 0,0 -1,1 0,0 0,0 1,0 0,0 0,0 0,0 0,1 -1,2 -2,2 -1,1 -1,1 -1,2 -1,1 0,1 -2,2 1,0 1,0 2,0 0,0 0,0 0,0 1,0 2,-1 3,-2 1,-1 2,-1 3,-2 2,-2 5,-3 6,-4 1,0 3,-1 3,0 1,0 1,0 2,0z"/>
     <path class="fil2" d="M2382 712c-3,2 -3,-2 -1,-4 1,-1 2,-2 2,-3 0,-2 -2,0 -3,1 -3,3 -4,8 -8,10 -1,1 -3,2 -4,3 -1,2 -2,3 0,4 0,0 2,-1 3,-1 2,-1 3,-2 4,-3 1,0 2,1 3,1 1,0 2,1 3,1 3,1 3,-2 3,-5 1,-1 1,-3 2,-4 0,-1 2,-2 0,-2 -1,0 -2,1 -3,1 0,1 0,1 -1,1z"/>
     <path class="fil2" d="M2310 749c-2,1 -4,2 -6,2 0,-1 0,-3 2,-4 2,-2 3,-3 5,-3 1,-3 2,-5 -1,-5 -1,0 -4,0 -4,-2 0,-1 1,-3 1,-4 -1,-1 -2,-1 -2,-1 -2,0 -5,2 -7,4 -1,1 -3,2 -4,3 -1,1 -2,1 -3,2 -1,0 -3,1 -3,2 0,1 1,0 2,0 3,-1 5,-2 7,-3 1,0 2,0 3,0 1,0 2,-1 3,-1 0,0 0,0 1,1 0,1 -2,1 -3,1 -1,1 -2,1 -3,2 -3,1 -4,2 -6,5 -2,2 -3,4 -4,7 -1,2 -2,5 1,3 1,-1 2,-3 3,-4 1,-1 2,-3 3,-4 2,-3 4,-5 6,-7 2,0 3,-1 2,1 0,1 -1,2 -2,3 -2,2 -1,1 0,2 0,1 -1,2 -2,3 -1,2 -3,4 -2,5 0,1 2,1 4,0 1,-1 3,-2 5,-3 1,-1 2,-3 4,-4 0,0 0,-1 0,-1z"/>
     <path class="fil2" d="M2233 825c0,-2 1,-3 1,-4 1,-2 2,-6 4,-8 1,-2 8,-7 11,-9 4,-1 6,2 10,-1 3,-3 3,-3 6,-4 3,-1 5,-2 7,-2 6,0 3,6 3,11 -1,8 6,7 8,-1 1,-3 0,-5 1,-8 1,-4 3,-6 6,-9 3,-3 5,-7 9,-10 3,-2 6,-6 8,-10 4,-7 10,-12 17,-17 3,-3 5,-5 8,-8 2,-2 4,-4 7,-6 3,-3 5,-4 7,-6 -1,6 1,6 5,4 3,-2 10,-3 6,-6 -2,-2 -3,-1 -2,-4 1,-2 3,-5 3,-7 0,-2 -8,1 -10,1 0,-5 10,-6 13,-6 2,-1 4,-1 7,-2 2,-1 4,-3 7,-5 4,-2 9,-3 10,-9 0,-5 -6,-5 -5,-10 0,-6 4,-14 -4,-8 -2,1 -5,4 -6,2 -1,-1 0,-4 -1,-5 -1,-2 -6,-3 -9,-1 -1,1 -4,6 -6,8 -1,2 -4,4 -5,6 -1,1 0,2 -1,3 -1,2 -2,3 -3,5 -3,2 -6,4 -8,7 -2,3 -3,5 -6,7 -2,2 -4,4 -6,6 0,-2 1,-5 2,-7 2,-4 3,-4 0,-5 -2,-1 -5,-2 -8,-1 -2,0 -5,2 -4,-1 1,-1 2,-2 2,-4 1,-1 0,-1 0,-2 2,-4 9,-8 12,-11 3,-2 6,-3 8,-5 2,-2 5,-4 7,-6 4,-4 9,-8 13,-11 3,-3 7,-2 10,-8 4,-7 -7,5 -8,6 -3,2 -4,2 -2,-1 -1,0 -1,-1 -2,0 2,-3 0,-2 -1,-2 -1,-1 1,-2 2,-3 -4,-1 -7,6 -11,10 -4,4 -6,3 -10,6 -3,1 -5,3 -7,4 -1,0 -2,0 -4,1 -4,1 -9,5 -13,7 -3,1 -3,0 -4,0 -1,0 -3,2 -6,3 -2,2 -4,4 -7,6 -2,1 -3,2 -5,3 0,0 -1,0 -1,1 -29,40 -45,78 -55,126z"/>
     <path class="fil2" d="M2410 947c-1,-5 -1,-5 -4,-8 -4,-5 -7,-7 -12,-9 -6,-2 -10,-3 -15,-7 -4,-5 -9,-2 -14,-6 -1,-1 -4,-4 -5,-6 -1,-2 -1,-4 -3,-7 -2,-5 -4,-10 -8,-13 -4,-2 -11,0 -13,-4 -2,-2 -2,-4 -4,-6 -1,-2 -3,-3 -5,-4 -1,-2 -2,-5 -4,-6 -2,-1 -4,-1 -6,-1 -3,0 -5,2 -8,1 -1,-1 -3,-3 -5,-4 -3,-1 -4,-2 -6,0 -1,2 -1,6 -3,6 0,-2 1,-5 -1,-5 -1,-3 2,-4 2,-6 -4,2 -7,3 -11,5 -2,1 -3,2 -4,4 0,2 0,3 -1,5 -1,1 -2,1 -2,2 -1,-1 -1,-1 -2,-2 -2,-6 -7,0 -10,-2 -4,-1 -5,-6 -5,-10 0,-3 1,-10 -1,-12 -3,-3 -8,0 -11,-1 -1,-4 3,-6 4,-9 1,-1 1,-3 2,-5 1,-1 2,-3 2,-4 2,-5 -3,-3 -6,-2 -4,1 -4,3 -5,8 0,0 0,0 0,0 -3,3 -11,6 -13,3 -2,-1 -1,-5 -1,-7 0,-1 0,-2 0,-3 -1,8 -2,12 -2,21 1,1 3,1 5,1 4,-1 6,4 10,5 4,2 6,3 9,8 1,2 0,4 2,6 1,2 3,4 5,5 2,1 4,3 6,4 2,0 2,-1 4,-2 6,-3 6,6 6,10 1,3 0,4 -1,7 -1,2 -1,3 -2,5 1,1 1,1 1,2 -4,1 -3,3 -4,6 -1,4 0,5 1,9 0,3 -2,3 -2,5 0,2 2,5 3,7 2,2 3,5 5,7 2,3 4,4 6,7 3,5 5,11 8,15 4,4 8,7 12,10 4,3 10,11 11,17 3,7 4,14 6,21 2,9 6,16 9,24 2,7 5,13 9,20 3,6 8,10 11,16 4,6 8,12 12,18 3,5 8,12 12,14 3,1 2,1 5,5 2,2 3,3 5,5 0,0 0,0 0,0 1,0 5,3 5,2 2,-1 -2,-3 -3,-5 -4,-3 -8,-7 -11,-12 -4,-5 1,-5 -2,-10 -2,-2 -10,-5 -9,-9 1,0 2,0 3,-1 -1,-1 -1,-1 -2,-2 0,-3 -1,-3 -3,-7 -1,-1 -2,-3 -2,-4 0,-2 1,0 2,0 2,-1 2,-3 3,-4 1,-1 5,1 6,-2 1,-4 -12,-13 -4,-11 2,0 4,1 7,2 3,1 2,0 3,-3 0,-2 1,-4 1,-7 0,-2 0,-2 1,-4 0,-1 1,-1 2,-1 0,-2 1,-5 1,-7 0,-3 -2,-6 -2,-8 1,-4 5,-8 9,-8 2,0 5,1 6,-1 2,-1 2,-4 3,-6 2,-2 4,-3 4,-6 0,-3 -1,-6 -2,-9 0,-7 0,-11 2,-17 1,-3 1,-6 2,-8 2,-2 4,-4 5,-6 1,-3 1,-6 1,-9z"/>
     <path class="fil2" d="M2265 828c-3,-1 0,-3 2,-4 1,-1 3,-1 5,-1 2,0 4,-1 6,0 2,0 3,2 4,3 2,1 11,5 8,8 -1,2 -5,1 -6,1 -3,0 -3,2 -4,-2 0,-4 -2,-4 -5,-5 -1,-1 -3,-2 -4,-2 -1,0 -2,2 -4,2 -1,0 -1,0 -2,0z"/>
     <path class="fil2" d="M2292 841c0,0 -2,-1 -2,-1 0,-2 1,-2 2,-2 4,-1 2,-2 3,-5 0,-1 -1,-1 1,-1 1,-1 2,0 3,0 2,1 9,2 8,6 0,2 -3,1 -4,2 -2,0 -2,0 -3,1 -1,1 -6,1 -8,0z"/>
    </g>
   </g>
   <path class="fil2" d="M2500 597c-149,0 -270,121 -270,270 0,149 121,270 270,270 148,0 270,-121 270,-270 0,-149 -122,-270 -270,-270zm252 261l0 0 -92 0c-1,-58 -13,-112 -33,-155 14,-8 27,-16 39,-26 51,44 83,109 86,181zm-244 -243l0 0c38,4 72,34 96,79 -30,14 -62,22 -96,23l0 -102zm-17 0l0 0 0 102c-34,-1 -66,-9 -96,-23 25,-45 58,-75 96,-79zm0 119l0 0 0 124 -134 0c1,-56 12,-107 31,-148 31,15 66,23 103,24zm0 142l0 0 0 126c-36,2 -71,10 -102,24 -19,-41 -31,-94 -32,-150l134 0zm0 144l0 0 0 99c-37,-4 -70,-33 -94,-77 29,-13 61,-21 94,-22zm17 99l0 0 0 -99c34,1 65,9 94,22 -24,44 -57,73 -94,77zm0 -117l0 0 0 -126 134 0c-1,56 -13,109 -32,150 -31,-14 -65,-22 -102,-24zm0 -144l0 0 0 -124c37,-1 72,-9 103,-24 19,41 30,92 31,148l-134 0zm144 -192l0 0c-10,7 -21,15 -33,21 -14,-26 -30,-47 -49,-63 30,9 58,23 82,42zm-272 21l0 0c-11,-6 -22,-14 -33,-21 24,-19 52,-33 82,-42 -19,16 -35,37 -49,63zm-47 -10l0 0c13,10 26,18 39,26 -19,43 -31,97 -33,155l-92 0c3,-72 36,-136 86,-181zm-86 199l0 0 92 0c2,59 14,114 35,158 -14,7 -27,15 -39,24 -52,-44 -85,-109 -88,-182zm103 194l0 0c10,-8 20,-15 32,-21 13,25 29,45 47,60 -29,-8 -56,-22 -79,-39zm267 -21l0 0c12,6 22,13 33,21 -24,17 -51,31 -80,39 18,-15 34,-35 47,-60zm47 9l0 0c-12,-9 -25,-17 -39,-25 21,-43 34,-98 35,-157l92 0c-3,72 -36,138 -88,182z"/>
  </g>
  <g id="_977649648">
   <polygon class="fil2" points="3119,2227 3086,2227 3086,1541 3119,1541 "/>
   <polygon class="fil2" points="3505,2107 3472,2107 3472,1541 3505,1541 "/>
   <polygon class="fil2" points="3184,2227 3133,2227 3133,1541 3184,1541 "/>
   <polygon class="fil2" points="3451,2107 3400,2107 3400,1541 3451,1541 "/>
   <polygon class="fil2" points="3214,2227 3198,2227 3198,1541 3214,1541 "/>
   <polygon class="fil2" points="3247,2107 3231,2107 3231,1541 3247,1541 "/>
   <polygon class="fil2" points="3985,2107 3952,2107 3952,1541 3985,1541 "/>
   <polygon class="fil2" points="4050,2227 3999,2227 3999,1541 4050,1541 "/>
   <polygon class="fil2" points="4080,2227 4064,2227 4064,1541 4080,1541 "/>
   <polygon class="fil2" points="4136,2227 4094,2227 4094,1541 4136,1541 "/>
   <polygon class="fil2" points="3280,2107 3264,2107 3264,1541 3280,1541 "/>
   <polygon class="fil2" points="3538,2107 3522,2107 3522,1541 3538,1541 "/>
   <polygon class="fil2" points="3687,2107 3654,2107 3654,1541 3687,1541 "/>
   <polygon class="fil2" points="3911,2107 3878,2107 3878,1541 3911,1541 "/>
   <polygon class="fil2" points="3721,2107 3704,2107 3704,1541 3721,1541 "/>
   <polygon class="fil2" points="3939,2107 3923,2107 3923,1541 3939,1541 "/>
   <polygon class="fil2" points="3383,2107 3303,2107 3303,1541 3383,1541 "/>
   <polygon class="fil2" points="3638,2107 3558,2107 3558,1541 3638,1541 "/>
   <polygon class="fil2" points="3862,2107 3736,2107 3736,1541 3862,1541 "/>
   <g>
    <path class="fil2" d="M3239 2186l0 -41c0,-2 1,-3 2,-5 1,-1 3,-2 5,-2l21 0c2,0 4,1 5,2 1,2 2,3 2,5l0 41c0,2 -1,4 -2,5 -1,1 -3,2 -5,2l-21 0c-2,0 -4,-1 -5,-2 -1,-1 -2,-3 -2,-5zm28 0l0 0 0 -41 -21 0 0 41 21 0z"/>
    <path class="fil2" d="M3321 2193l-31 0 0 -24c0,-2 1,-3 2,-5 1,-1 3,-2 5,-2l21 0 0 -17 -25 0c-1,0 -2,0 -2,-1 -1,0 -1,-1 -1,-2 0,-1 0,-2 1,-2 0,-1 1,-1 2,-1l25 0c2,0 3,0 5,2 1,1 2,3 2,4l0 17c0,2 -1,4 -2,5 -2,2 -3,2 -5,2l-21 0 0 17 24 0c1,0 2,0 3,1 0,1 1,2 1,3 0,0 -1,1 -1,2 -1,1 -2,1 -3,1z"/>
    <path class="fil2" d="M3341 2186l0 -17c0,-2 0,-3 2,-5 1,-1 3,-2 5,-2l0 -20c0,-1 0,-2 1,-2 0,-1 1,-1 2,-1l14 0c1,0 2,0 2,1 1,0 1,1 1,2l0 20c2,0 4,1 5,2 2,2 2,3 2,5l0 17c0,2 0,4 -2,5 -1,1 -3,2 -5,2l-20 0c-2,0 -4,-1 -5,-2 -2,-2 -2,-3 -2,-5zm7 -17l0 0 0 17 20 0 0 -17 -20 0zm6 -24l0 0 0 17 8 0 0 -17 -8 0z"/>
    <path class="fil2" d="M3391 2145l0 -3c0,-1 1,-2 1,-2 1,-1 2,-1 3,-1l31 0 0 21c0,1 0,2 -1,3l-13 10 0 16c0,1 0,2 -1,3 -1,1 -1,1 -2,1 -1,0 -2,0 -3,-1 -1,-1 -1,-2 -1,-2l0 -18c0,-1 1,-2 1,-3l13 -11 0 -12 -21 0c0,1 -1,2 -3,2 -1,0 -2,0 -3,-1 0,0 -1,-1 -1,-2z"/>
    <path class="fil2" d="M3493 2186l0 -41c0,-2 0,-3 2,-5 1,-1 3,-2 4,-2l22 0c2,0 3,1 5,2 1,2 1,3 1,5l0 41c0,2 0,4 -1,5 -2,1 -3,2 -5,2l-22 0c-1,0 -3,-1 -4,-2 -2,-1 -2,-3 -2,-5zm28 0l0 0 0 -41 -21 0 0 41 21 0z"/>
    <path class="fil2" d="M3547 2186l10 0 0 -41 -10 0c-1,0 -2,0 -2,-1 -1,0 -1,-1 -1,-2 0,-1 0,-2 1,-2 0,-1 1,-1 2,-1l17 0 0 47 7 0 0 -14c0,-1 1,-2 1,-3 1,0 2,-1 3,-1 1,0 1,1 2,1 1,1 1,2 1,3l0 18c0,0 0,1 -1,2 -1,1 -1,1 -2,1l-28 0c-1,0 -2,0 -3,-1 0,-1 -1,-2 -1,-3 0,0 1,-1 1,-2 1,-1 2,-1 3,-1z"/>
    <path class="fil2" d="M3607 2186l16 0 0 -17 -21 0 0 -30 24 0c1,0 2,0 3,1 0,0 1,1 1,2 0,1 -1,2 -1,2 -1,1 -2,1 -3,1l-17 0 0 17 14 0c2,0 3,1 5,2 1,2 2,3 2,5l0 17c0,2 -1,4 -2,5 -2,1 -3,2 -5,2l-16 0c-1,0 -3,0 -5,-1l-5 -2c-1,-1 -2,-2 -2,-4 0,0 0,-1 1,-2 1,-1 1,-1 2,-1 1,0 2,0 3,1l4 2c1,0 1,0 2,0z"/>
    <path class="fil2" d="M3645 2186l0 -17c0,-2 1,-3 2,-5 1,-1 3,-2 5,-2l0 -20c0,-1 0,-2 1,-2 0,-1 1,-1 2,-1l14 0c1,0 2,0 3,1 0,0 1,1 1,2l0 20c2,0 3,1 5,2 1,2 2,3 2,5l0 17c0,2 -1,4 -2,5 -2,1 -3,2 -5,2l-21 0c-2,0 -4,-1 -5,-2 -1,-2 -2,-3 -2,-5zm7 -17l0 0 0 17 21 0 0 -17 -21 0zm7 -24l0 0 0 17 7 0 0 -17 -7 0z"/>
    <path class="fil2" d="M3699 2139l4 0c1,0 2,0 2,1 1,0 1,1 1,2 0,1 0,2 -1,2 0,1 -1,1 -2,1l0 23 24 0c1,0 2,1 3,1 0,1 1,2 1,3l0 18c0,0 -1,1 -2,2 0,1 -1,1 -2,1l-28 0c-1,0 -1,0 -2,-1 -1,-1 -1,-2 -1,-2l0 -48c0,-1 0,-2 1,-2 1,-1 1,-1 2,-1zm4 36l0 0 0 11 21 0 0 -11 -21 0z"/>
    <path class="fil2" d="M3778 2193l-32 0 0 -24c0,-2 1,-3 3,-5 1,-1 3,-2 4,-2l21 0 0 -17 -24 0c-1,0 -2,0 -3,-1 0,0 -1,-1 -1,-2 0,-1 1,-2 1,-2 1,-1 2,-1 3,-1l24 0c2,0 4,0 5,2 2,1 2,3 2,4l0 17c0,2 0,4 -2,5 -1,2 -3,2 -5,2l-21 0 0 17 25 0c1,0 2,0 2,1 1,1 1,2 1,3 0,0 0,1 -1,2 0,1 -1,1 -2,1z"/>
    <path class="fil2" d="M3801 2139l3 0c1,0 2,0 3,1 0,0 1,1 1,2 0,1 -1,2 -1,2 -1,1 -2,1 -3,1l0 23 25 0c0,0 1,1 2,1 1,1 1,2 1,3l0 18c0,0 0,1 -1,2 -1,1 -2,1 -3,1l-27 0c-1,0 -2,0 -3,-1 0,-1 -1,-2 -1,-2l0 -48c0,-1 1,-2 1,-2 1,-1 2,-1 3,-1zm3 36l0 0 0 11 21 0 0 -11 -21 0z"/>
    <path class="fil2" d="M3852 2139l3 0c1,0 2,0 2,1 1,0 1,1 1,2 0,1 0,2 -1,2 0,1 -1,1 -2,1l0 23 24 0c1,0 2,1 3,1 0,1 1,2 1,3l0 18c0,0 -1,1 -1,2 -1,1 -2,1 -3,1l-27 0c-1,0 -2,0 -3,-1 -1,-1 -1,-2 -1,-2l0 -48c0,-1 0,-2 1,-2 1,-1 2,-1 3,-1zm3 36l0 0 0 11 21 0 0 -11 -21 0z"/>
    <path class="fil2" d="M3898 2186l0 -17c0,-2 1,-3 3,-5 1,-1 3,-2 4,-2l0 -20c0,-1 1,-2 1,-2 1,-1 2,-1 3,-1l14 0c1,0 2,0 2,1 1,0 1,1 1,2l0 20c2,0 4,1 5,2 2,2 2,3 2,5l0 17c0,2 0,4 -2,5 -1,1 -3,2 -5,2l-21 0c-1,0 -3,-1 -4,-2 -2,-2 -3,-3 -3,-5zm7 -17l0 0 0 17 21 0 0 -17 -21 0zm7 -24l0 0 0 17 7 0 0 -17 -7 0z"/>
    <path class="fil2" d="M3981 2193l-32 0 0 -24c0,-2 1,-3 2,-5 2,-1 3,-2 5,-2l21 0 0 -17 -24 0c-1,0 -2,0 -3,-1 -1,0 -1,-1 -1,-2 0,-1 0,-2 1,-2 1,-1 2,-1 3,-1l24 0c2,0 4,0 5,2 1,1 2,3 2,4l0 17c0,2 -1,4 -2,5 -1,2 -3,2 -5,2l-21 0 0 17 25 0c1,0 1,0 2,1 1,1 1,2 1,3 0,0 0,1 -1,2 -1,1 -1,1 -2,1z"/>
   </g>
  </g>
  <g id="_977656752">
   <polygon class="fil2" points="3178,1292 3187,1292 3187,1348 3217,1348 3217,1357 3178,1357 "/>
   <path class="fil2" d="M3238 1309c9,0 14,5 16,9 2,4 3,11 3,16 0,14 -7,24 -18,24 -8,0 -12,-4 -13,-7 -4,-4 -5,-10 -5,-18 0,-16 8,-24 17,-24zm-10 25l0 0c0,4 2,17 11,17 8,0 10,-11 10,-18 0,-3 -1,-8 -2,-11 -1,-3 -3,-5 -5,-6 -1,0 -2,0 -3,0 -9,0 -11,11 -11,18z"/>
   <path class="fil2" d="M3263 1312l7 -3 0 15c0,0 1,1 1,1l1 0c0,-1 2,-4 3,-4 6,-9 11,-12 12,-12l0 13c-1,0 -1,0 -2,0 -6,0 -11,4 -14,8l0 27 -8 0 0 -45z"/>
   <path class="fil2" d="M3326 1334l-27 0c0,11 3,18 11,18 5,0 8,-3 9,-4l5 4c-3,3 -7,6 -15,6 -11,0 -18,-9 -18,-23 0,-24 14,-26 18,-26 11,0 17,10 17,21l0 4zm-8 -5l0 0c0,-8 -3,-14 -9,-14 -4,0 -7,2 -8,6 -2,3 -2,6 -2,8l19 0z"/>
   <path class="fil2" d="M3334 1312l7 -3 0 11 0 1c1,-1 1,-1 1,-1 5,-5 5,-6 7,-8 2,-1 4,-3 8,-3 7,0 8,6 8,11l1 0c0,0 0,0 0,0 0,-1 1,-1 1,-2 7,-7 10,-9 15,-9 1,0 4,0 6,3 1,2 2,4 2,11l0 34 -8 0 0 -33c0,-4 0,-9 -4,-9 -4,0 -7,4 -12,11l0 31 -8 0 0 -35c0,-6 -2,-6 -4,-6 -2,0 -3,0 -7,3 -1,2 -2,2 -6,8l0 30 -7 0 0 -45z"/>
   <path class="fil2" d="M3419 1293l10 0 0 9 -10 0 0 -9zm1 17l0 0 8 0 0 47 -8 0 0 -47z"/>
   <path class="fil2" d="M3437 1311l7 -3 0 10c0,1 1,1 1,1 0,0 0,0 1,0 1,-1 3,-10 12,-10 5,0 9,3 11,7 3,5 4,11 4,17 0,16 -7,24 -15,24 -3,0 -8,-1 -10,-6 -2,-2 -2,-2 -2,-2 -1,0 -1,1 -1,1l0 22 -8 0 0 -61zm19 4l0 0c-7,0 -11,10 -11,18 0,14 6,18 11,18 4,0 9,-4 9,-19 0,-4 -1,-17 -9,-17z"/>
   <path class="fil2" d="M3499 1320c-3,-3 -6,-5 -10,-5 -5,0 -7,3 -7,6 0,4 3,6 5,7l8 4c2,1 9,4 9,12 0,8 -7,14 -16,14 -6,0 -11,-3 -13,-4l3 -6c4,3 7,4 11,4 5,0 7,-3 7,-7 0,-4 -1,-5 -9,-9 -9,-4 -12,-7 -12,-14 0,-8 7,-12 14,-12 3,0 7,0 13,3l-3 7z"/>
   <path class="fil2" d="M3533 1358l0 -9c0,0 0,-1 -1,-1 0,0 0,0 0,0 -2,2 -3,4 -4,5 -3,3 -6,5 -10,5 -5,0 -9,-3 -9,-12l0 -36 8 0 0 34c0,2 0,8 4,8 4,0 7,-4 12,-10l0 -32 7 0 0 45 -7 3z"/>
   <path class="fil2" d="M3549 1312l7 -3 0 11 0 1c1,-1 1,-1 2,-1 4,-5 4,-6 6,-8 2,-1 4,-3 8,-3 7,0 8,6 9,11l0 0c0,0 0,0 0,0 1,-1 1,-1 2,-2 6,-7 9,-9 14,-9 1,0 4,0 6,3 2,2 2,4 2,11l0 34 -7 0 0 -33c0,-4 0,-9 -5,-9 -4,0 -7,4 -12,11l0 31 -8 0 0 -35c0,-6 -2,-6 -4,-6 -2,0 -3,0 -6,3 -2,2 -2,2 -7,8l0 30 -7 0 0 -45z"/>
   <path class="fil2" d="M3664 1346c0,3 0,6 4,5l0 7c-4,0 -7,-1 -9,-3 -1,-1 -2,-3 -3,-5l0 0c0,0 -2,2 -3,3 -5,4 -9,5 -13,5 -6,0 -11,-6 -11,-12 0,-5 3,-10 7,-13 5,-4 12,-5 20,-5l0 -6c0,-2 0,-6 -8,-6 -4,0 -9,2 -13,4l-3 -6c5,-3 9,-5 17,-5 3,0 8,1 11,3 3,3 4,6 4,11l0 23zm-8 -13l0 0c-10,0 -19,4 -19,12 0,4 3,7 7,7 5,0 9,-4 12,-7l0 -12z"/>
   <path class="fil2" d="M3706 1290l0 65 -7 3 -1 -10c0,-1 0,-1 0,-1 -1,0 -1,1 -1,2 -1,0 -4,6 -7,7 -1,1 -3,2 -5,2 -9,0 -15,-11 -15,-25 0,-10 4,-24 15,-24 6,0 8,3 10,6 1,0 1,1 1,1 0,0 1,1 1,1 0,0 1,0 1,-1l0 -23 8 -3zm-19 61l0 0c7,0 11,-10 11,-18 0,-10 -5,-18 -11,-18 -6,0 -9,8 -9,19 0,4 1,17 9,17z"/>
   <path class="fil2" d="M3733 1293l8 -3 0 27c0,1 0,1 1,1 0,0 1,-1 2,-2 3,-6 8,-7 12,-7 6,0 9,5 9,11l0 37 -8 0 0 -36c0,-4 -1,-6 -5,-6 -1,0 -3,1 -5,2 -2,2 -4,6 -6,8l0 32 -8 0 0 -64z"/>
   <path class="fil2" d="M3774 1293l10 0 0 9 -10 0 0 -9zm1 17l0 0 8 0 0 47 -8 0 0 -47z"/>
   <path class="fil2" d="M3814 1320c-3,-3 -5,-5 -10,-5 -5,0 -7,3 -7,6 0,4 3,6 6,7l7 4c3,1 9,4 9,12 0,8 -7,14 -16,14 -6,0 -10,-3 -13,-4l3 -6c4,3 7,4 11,4 5,0 8,-3 8,-7 0,-4 -2,-5 -10,-9 -8,-4 -11,-7 -11,-14 0,-8 6,-12 13,-12 4,0 7,0 13,3l-3 7z"/>
   <path class="fil2" d="M3865 1320c-4,-3 -6,-5 -11,-5 -5,0 -7,3 -7,6 0,4 3,6 6,7l7 4c3,1 9,4 9,12 0,8 -6,14 -15,14 -7,0 -11,-3 -14,-4l3 -6c5,3 7,4 11,4 5,0 8,-3 8,-7 0,-4 -2,-5 -10,-9 -8,-4 -11,-7 -11,-14 0,-8 6,-12 14,-12 3,0 6,0 12,3l-2 7z"/>
   <path class="fil2" d="M3896 1323c-1,-2 -2,-7 -8,-7 -5,0 -10,6 -10,15 0,4 1,9 2,12 1,4 4,8 9,8 5,0 7,-4 8,-9l7 3c-2,8 -7,13 -15,13 -18,0 -18,-21 -18,-24 0,-4 0,-12 4,-18 4,-6 10,-7 13,-7 2,0 8,1 12,6 1,2 2,3 3,5l-7 3z"/>
   <path class="fil2" d="M3909 1312l7 -3 0 15c0,0 0,1 1,1l1 0c0,-1 2,-4 2,-4 6,-9 12,-12 13,-12l0 13c-1,0 -2,0 -3,0 -5,0 -10,4 -13,8l0 27 -8 0 0 -45z"/>
   <path class="fil2" d="M3940 1293l10 0 0 9 -10 0 0 -9zm1 17l0 0 8 0 0 47 -8 0 0 -47z"/>
   <path class="fil2" d="M3958 1311l7 -3 0 10c0,1 1,1 1,1 0,0 0,0 1,0 1,-1 3,-10 12,-10 5,0 9,3 11,7 3,5 4,11 4,17 0,16 -7,24 -15,24 -3,0 -8,-1 -10,-6 -2,-2 -2,-2 -2,-2 -1,0 -1,1 -1,1l0 22 -8 0 0 -61zm19 4l0 0c-7,0 -11,10 -11,18 0,14 6,18 11,18 4,0 9,-4 9,-19 0,-4 -1,-17 -9,-17z"/>
   <path class="fil2" d="M3994 1314l7 0 0 -11 7 -7 1 0 0 18 7 0 0 5 -7 0 0 28c0,1 0,4 4,4 2,0 5,-2 7,-3l0 7c-2,2 -6,3 -9,3 -2,0 -10,-1 -10,-10l0 -29 -7 0 0 -5z"/>
   <path class="fil2" d="M4058 1346c0,3 0,6 4,5l0 7c-4,0 -7,-1 -9,-3 -1,-1 -2,-3 -3,-5l0 0c0,0 -2,2 -3,3 -5,4 -9,5 -13,5 -6,0 -11,-6 -11,-12 0,-5 3,-10 7,-13 5,-4 12,-5 20,-5l0 -6c0,-2 0,-6 -8,-6 -4,0 -9,2 -13,4l-4 -6c6,-3 10,-5 18,-5 3,0 8,1 11,3 3,3 4,6 4,11l0 23zm-8 -13l0 0c-10,0 -19,4 -19,12 0,4 3,7 7,7 5,0 9,-4 12,-7l0 -12z"/>
   <path class="fil2" d="M3120 1400l7 -3 0 26c0,1 1,1 1,1l1 0c1,-2 2,-3 2,-4 2,-1 4,-4 9,-4 9,0 15,8 15,25 0,6 -2,24 -15,24 -7,0 -10,-7 -12,-10 0,-1 0,-1 -1,-1 0,0 0,1 0,1l0 10 -7 -3 0 -62zm27 41l0 0c0,-6 -1,-19 -9,-19 -3,0 -11,4 -11,19 0,9 4,17 11,17 9,0 9,-14 9,-17z"/>
   <polygon class="fil2" points="3163,1400 3169,1397 3171,1397 3171,1463 3163,1463 "/>
   <path class="fil2" d="M3212 1453c0,2 0,5 3,5l0 6c-3,0 -6,0 -9,-3 0,0 -2,-2 -2,-4l0 0c-1,0 -3,2 -3,2 -5,5 -9,5 -13,5 -7,0 -11,-5 -11,-11 0,-6 2,-10 7,-13 5,-4 12,-5 19,-5l0 -6c0,-2 0,-7 -7,-7 -5,0 -9,3 -13,5l-4 -6c6,-3 10,-5 18,-5 3,0 7,1 10,3 4,3 5,6 5,11l0 23zm-9 -14l0 0c-9,0 -18,4 -18,12 0,4 2,8 7,8 5,0 9,-5 11,-7l0 -13z"/>
   <path class="fil2" d="M3221 1419l7 -3 0 9c0,0 0,1 1,1 0,0 1,-1 1,-1l2 -3c3,-4 7,-6 11,-6 2,0 5,1 6,2 2,1 4,3 4,10l0 35 -8 0 0 -35c0,-1 0,-6 -5,-6 -4,0 -7,4 -8,5 -2,4 -3,5 -3,5l0 31 -8 0 0 -44z"/>
   <path class="fil2" d="M3293 1397l0 65 -7 3 0 -11c0,0 0,0 -1,0 0,0 0,0 -1,1 0,1 -3,7 -6,8 -1,1 -3,1 -5,1 -10,0 -15,-10 -15,-25 0,-10 4,-23 15,-23 5,0 7,2 10,6 0,0 0,0 1,1 0,0 0,1 1,1 0,0 0,0 0,-1l0 -23 8 -3zm-18 61l0 0c7,0 11,-10 11,-18 0,-10 -5,-18 -11,-18 -7,0 -9,8 -9,19 0,4 0,17 9,17z"/>
   <path class="fil2" d="M3302 1400l10 0 0 8 -10 0 0 -8zm1 17l0 0 8 0 0 46 -8 0 0 -46z"/>
   <path class="fil2" d="M3316 1421l7 0 0 -11 7 -7 1 0 0 18 7 0 0 5 -8 0 0 27c0,1 0,5 4,5 3,0 6,-2 8,-3l0 7c-2,1 -6,2 -9,2 -2,0 -10,0 -10,-10l0 -28 -7 0 0 -5z"/>
   <path class="fil2" d="M3365 1418l7 -3 0 10c0,1 1,1 1,1 0,0 1,0 1,0 1,-1 3,-11 12,-11 5,0 9,4 11,8 3,4 4,11 4,16 0,17 -7,25 -15,25 -3,0 -8,-2 -10,-6 -2,-2 -2,-2 -2,-2 -1,0 -1,1 -1,1l0 22 -8 0 0 -61zm19 4l0 0c-7,0 -11,10 -11,18 0,13 6,17 11,17 4,0 9,-3 9,-18 0,-5 -1,-17 -9,-17z"/>
   <path class="fil2" d="M3437 1453c0,2 0,5 4,5l0 6c-4,0 -7,0 -9,-3 -1,0 -2,-2 -2,-4l-1 0c0,0 -2,2 -3,2 -5,5 -8,5 -13,5 -6,0 -11,-5 -11,-11 0,-6 3,-10 7,-13 5,-4 12,-5 20,-5l0 -6c0,-2 0,-7 -7,-7 -5,0 -10,3 -14,5l-3 -6c5,-3 10,-5 17,-5 3,0 8,1 11,3 3,3 4,6 4,11l0 23zm-8 -14l0 0c-10,0 -19,4 -19,12 0,4 3,8 7,8 5,0 9,-5 12,-7l0 -13z"/>
   <path class="fil2" d="M3446 1419l8 -3 0 14c0,1 0,2 0,2l1 0c1,-1 2,-4 3,-5 6,-9 11,-11 13,-11l0 13c-1,0 -2,0 -3,0 -6,0 -10,3 -14,8l0 26 -8 0 0 -44z"/>
   <path class="fil2" d="M3473 1421l7 0 0 -11 7 -7 1 0 0 18 7 0 0 5 -7 0 0 27c0,1 0,5 4,5 2,0 5,-2 7,-3l0 7c-2,1 -6,2 -9,2 -2,0 -10,0 -10,-10l0 -28 -7 0 0 -5z"/>
   <path class="fil2" d="M3504 1400l11 0 0 8 -11 0 0 -8zm2 17l0 0 8 0 0 46 -8 0 0 -46z"/>
   <path class="fil2" d="M3557 1441l-28 0c0,10 3,17 12,17 5,0 8,-2 9,-4l5 5c-3,2 -7,6 -16,6 -10,0 -18,-9 -18,-23 0,-24 14,-26 18,-26 12,0 18,9 18,21l0 4zm-8 -5l0 0c0,-8 -3,-14 -9,-14 -4,0 -7,2 -9,6 -1,3 -1,6 -1,8l19 0z"/>
   <path class="fil2" d="M3564 1419l7 -3 0 9c0,0 0,1 1,1 0,0 1,-1 1,-1l2 -3c3,-4 7,-6 11,-6 2,0 5,1 6,2 2,1 4,3 4,10l0 35 -8 0 0 -35c0,-1 0,-6 -5,-6 -4,0 -7,4 -8,5 -3,4 -3,5 -3,5l0 31 -8 0 0 -44z"/>
   <path class="fil2" d="M3636 1397l0 65 -7 3 0 -11c0,0 0,0 -1,0 0,0 0,0 -1,1 0,1 -4,7 -6,8 -1,1 -3,1 -5,1 -10,0 -15,-10 -15,-25 0,-10 4,-23 15,-23 5,0 7,2 10,6 0,0 0,0 1,1 0,0 0,1 1,1 0,0 0,0 0,-1l0 -23 8 -3zm-18 61l0 0c7,0 11,-10 11,-18 0,-10 -5,-18 -11,-18 -7,0 -9,8 -9,19 0,4 0,17 9,17z"/>
   <path class="fil2" d="M3659 1416c9,0 13,4 16,9 2,4 3,11 3,15 0,14 -7,24 -18,24 -9,0 -12,-4 -14,-6 -3,-4 -5,-11 -5,-19 0,-16 9,-23 18,-23zm-10 25l0 0c0,3 1,16 11,16 8,0 10,-10 10,-17 0,-3 -1,-8 -2,-11 -1,-3 -3,-5 -5,-6 -1,0 -2,0 -3,0 -9,0 -11,11 -11,18z"/>
   <polygon class="fil2" points="3694,1452 3693,1455 3683,1480 3676,1480 3686,1452 "/>
   <path class="fil2" d="M3750 1441l-27 0c-1,10 3,17 11,17 5,0 8,-2 9,-4l5 5c-3,2 -7,6 -15,6 -11,0 -19,-9 -19,-23 0,-24 14,-26 19,-26 11,0 17,9 17,21l0 4zm-8 -5l0 0c0,-8 -3,-14 -9,-14 -4,0 -7,2 -9,6 -1,3 -1,6 -1,8l19 0z"/>
   <path class="fil2" d="M3781 1465l0 -9c0,0 0,-1 0,-1 0,0 -1,0 -1,0 -1,1 -2,3 -4,5 -2,3 -6,5 -10,5 -5,0 -9,-4 -9,-12l0 -36 8 0 0 33c0,3 0,9 5,9 4,0 7,-4 11,-11l0 -31 8 0 0 45 -8 3z"/>
   <path class="fil2" d="M3797 1418l7 -2 0 11 1 0c1,0 1,0 1,-1 4,-5 5,-5 7,-7 1,-1 4,-3 8,-3 7,0 8,6 8,10l0 0c1,0 1,0 1,0 0,0 1,-1 1,-1 7,-7 10,-9 15,-9 1,0 4,0 6,3 1,2 2,3 2,11l0 33 -8 0 0 -33c0,-3 0,-8 -5,-8 -3,0 -6,4 -12,11l0 30 -7 0 0 -34c0,-6 -3,-7 -4,-7 -2,0 -4,1 -7,4 -1,1 -2,2 -6,7l0 30 -8 0 0 -45z"/>
   <path class="fil2" d="M3879 1421l7 0 0 -10c0,-4 0,-7 3,-10 3,-3 7,-4 9,-4 2,0 5,0 7,2l0 6c-1,0 -3,-1 -5,-1 -6,0 -6,5 -6,7l0 10 8 0 0 5 -8 0 0 37 -8 0 0 -37 -7 0 0 -5z"/>
   <path class="fil2" d="M3938 1453c0,2 0,5 4,5l0 6c-4,0 -7,0 -10,-3 0,0 -2,-2 -2,-4l0 0c-1,0 -3,2 -3,2 -5,5 -9,5 -13,5 -7,0 -11,-5 -11,-11 0,-6 2,-10 7,-13 5,-4 12,-5 19,-5l0 -6c0,-2 0,-7 -7,-7 -5,0 -9,3 -13,5l-4 -6c6,-3 10,-5 18,-5 3,0 7,1 10,3 4,3 5,6 5,11l0 23zm-9 -14l0 0c-9,0 -18,4 -18,12 0,4 3,8 7,8 5,0 9,-5 11,-7l0 -13z"/>
   <path class="fil2" d="M3968 1426c-4,-2 -6,-4 -11,-4 -4,0 -6,3 -6,6 0,4 2,5 5,7l8 3c2,2 8,5 8,13 0,8 -6,14 -15,14 -7,0 -11,-3 -14,-5l3 -6c5,4 7,5 11,5 5,0 8,-4 8,-7 0,-4 -2,-5 -9,-9 -9,-4 -12,-8 -12,-14 0,-8 6,-13 14,-13 3,0 7,0 12,4l-2 6z"/>
   <path class="fil2" d="M3972 1421l7 0 0 -11 7 -7 1 0 0 18 7 0 0 5 -8 0 0 27c0,1 0,5 4,5 3,0 6,-2 8,-3l0 7c-2,1 -6,2 -9,2 -2,0 -11,0 -11,-10l0 -28 -6 0 0 -5z"/>
   <path class="fil2" d="M4003 1400l10 0 0 8 -10 0 0 -8zm1 17l0 0 8 0 0 46 -8 0 0 -46z"/>
   <path class="fil2" d="M4055 1397l0 65 -7 3 0 -11c0,0 -1,0 -1,0 0,0 0,0 -1,1 0,1 -4,7 -6,8 -2,1 -4,1 -5,1 -10,0 -15,-10 -15,-25 0,-10 3,-23 14,-23 6,0 8,2 11,6 0,0 0,0 0,1 1,0 1,1 1,1 1,0 1,0 1,-1l0 -23 8 -3zm-18 61l0 0c7,0 10,-10 10,-18 0,-10 -4,-18 -10,-18 -7,0 -9,8 -9,19 0,4 0,17 9,17z"/>
   <path class="fil2" d="M4063 1400l11 0 0 8 -11 0 0 -8zm2 17l0 0 8 0 0 46 -8 0 0 -46z"/>
   <path class="fil2" d="M4084 1400l10 0 0 8 -10 0 0 -8zm1 17l0 0 8 0 0 46 -8 0 0 -46z"/>
   <path class="fil2" d="M4109 1464c-3,0 -6,-2 -6,-6 0,-3 3,-6 6,-6 4,0 7,3 7,6 0,3 -2,6 -7,6z"/>
  </g>
  <polygon class="fil3" points="4187,1200 3068,1200 3068,227 4187,227 "/>
  <polygon class="fil4" points="3384,1200 3068,1200 3068,227 3384,227 "/>
  <path class="fil5" d="M4077 914l0 -539c0,-32 -26,-58 -58,-58l-474 0c-32,0 -58,26 -58,58l0 539c-15,2 -27,14 -27,30l0 25c0,18 14,32 32,32l45 0 0 62c0,7 19,13 42,13l33 0c23,0 42,-6 42,-13l0 -62 259 0 0 62c0,7 19,13 42,13l33 0c23,0 42,-6 42,-13l0 -62 43 0c18,0 32,-14 32,-32l0 -25c0,-16 -12,-28 -28,-30zm-504 7l0 0c-36,0 -64,-28 -64,-63 0,-35 28,-64 64,-64 35,0 63,29 63,64 0,35 -28,63 -63,63zm330 -13l0 0 -242 0 0 -101 242 0 0 101zm89 13l0 0c-35,0 -64,-28 -64,-63 0,-35 29,-64 64,-64 35,0 64,29 64,64 0,35 -29,63 -64,63zm64 -199l0 0 -547 0 0 -288c0,-24 24,-44 53,-44l440 0c30,0 54,20 54,44l0 288z"/>
  <g id="_977656144">
   <path class="fil5" d="M3168 913l158 21 0 63 -158 24 0 -44c43,-5 80,-8 110,-11 -30,-2 -57,-4 -81,-6l-29 -3 0 -44z"/>
   <path class="fil5" d="M3236 811l0 41 -27 0c-8,0 -13,0 -15,1 -2,1 -3,3 -3,6 0,3 1,5 4,6 2,1 7,2 15,2l74 0c7,0 12,-1 15,-2 2,-1 3,-3 3,-6 0,-3 -1,-5 -3,-6 -3,-1 -8,-1 -17,-1l-20 0 0 -41 6 0c17,0 28,1 35,3 7,2 13,8 18,15 5,8 8,18 8,30 0,12 -2,22 -7,29 -4,8 -10,13 -18,16 -7,2 -19,4 -34,4l-47 0c-11,0 -20,-1 -25,-1 -6,-1 -11,-4 -17,-7 -5,-4 -9,-10 -12,-17 -3,-6 -5,-14 -5,-23 0,-12 3,-22 7,-30 5,-8 11,-13 18,-16 7,-2 18,-3 32,-3l15 0z"/>
   <polygon class="fil5" points="3168,796 3168,726 3199,726 3199,755 3229,755 3229,729 3259,729 3259,755 3326,755 3326,796 "/>
   <path class="fil5" d="M3299 597l27 0 0 87 -23 0c-42,-26 -68,-41 -78,-46 -10,-5 -18,-7 -23,-7 -5,0 -8,1 -10,2 -2,2 -3,4 -3,7 0,3 1,5 3,7 3,1 7,2 14,2l15 0 0 35 -5 0c-9,0 -16,0 -21,-1 -5,-1 -10,-3 -15,-7 -5,-4 -9,-8 -12,-14 -2,-6 -3,-13 -3,-20 0,-16 4,-28 11,-36 8,-8 18,-12 30,-12 9,0 18,2 28,7 11,4 32,17 65,40l0 -44z"/>
   <path class="fil5" d="M3168 496l25 0 0 49 27 0c-7,-6 -11,-14 -11,-24 0,-11 3,-19 9,-24 6,-6 18,-9 35,-9l23 0c11,0 19,1 24,2 6,1 10,3 15,7 4,3 8,8 10,15 2,6 4,13 4,22 0,11 -2,20 -6,27 -3,8 -9,14 -16,17 -7,3 -17,5 -32,5l-9 0 0 -40 10 0c10,0 18,0 22,-1 4,-1 6,-3 6,-7 0,-2 0,-4 -2,-5 -1,-1 -2,-2 -4,-2 -1,0 -7,0 -18,0l-31 0c-6,0 -10,0 -13,2 -2,1 -3,3 -3,6 0,2 1,3 2,4 1,2 2,2 3,3 2,0 5,0 9,0l0 39 -79 -1 0 -85z"/>
   <path class="fil5" d="M3168 394l103 0 0 -11 27 0 0 11 28 0 0 40 -28 0 0 47 -27 0 -103 -34 0 -53zm103 40l0 0 -67 0 67 17 0 -17z"/>
  </g>
  <g id="_977630640">
   <g>
    <line class="fil6 str0" x1="2883" y1="2340" x2="2883" y2= "2303" />
    <line class="fil6 str1" x1="2883" y1="2231" x2="2883" y2= "109" />
    <line class="fil6 str0" x1="2883" y1="73" x2="2883" y2= "36" />
   </g>
  </g>
  <g id="_977660304">
   <path class="fil2" d="M656 1060c5,0 10,2 15,6 4,4 6,9 6,15l0 28c0,6 -2,11 -6,16 -5,4 -10,6 -15,6l-54 0 0 185c0,6 -2,11 -7,15 -4,5 -9,7 -15,7l-31 0c-6,0 -11,-2 -15,-7 -5,-4 -7,-9 -7,-15l0 -185 -54 0c-5,0 -11,-2 -15,-6 -4,-5 -6,-10 -6,-16l0 -28c0,-6 2,-11 6,-15 4,-4 10,-6 15,-6l183 0z"/>
   <path class="fil2" d="M743 1060c6,0 11,2 15,6 4,4 6,9 6,15l0 235c0,6 -2,11 -6,15 -4,5 -9,7 -15,7l-32 0c-6,0 -11,-2 -15,-7 -4,-4 -6,-9 -6,-15l0 -235c0,-6 2,-11 6,-15 4,-4 9,-6 15,-6l32 0z"/>
   <path class="fil2" d="M867 1195c0,13 1,25 4,35 3,9 7,17 11,24 5,6 10,11 16,14 7,3 13,4 19,4 7,0 13,-1 18,-3 6,-3 11,-6 15,-10 4,-4 7,-9 9,-14 3,-5 4,-11 5,-16 0,-6 3,-10 7,-13 4,-4 9,-6 14,-6l32 0c6,0 12,3 16,7 4,5 5,11 4,17 -2,16 -6,30 -12,44 -6,13 -14,25 -24,35 -10,9 -22,17 -36,23 -14,5 -30,8 -48,8 -19,0 -37,-3 -53,-10 -15,-7 -28,-17 -39,-29 -11,-13 -20,-29 -26,-47 -6,-19 -9,-40 -9,-63 0,-18 3,-36 9,-53 5,-17 14,-32 25,-45 10,-13 24,-24 40,-32 15,-8 33,-12 53,-12 17,0 33,3 47,8 14,5 27,12 37,20 10,9 18,19 25,31 6,12 10,25 12,39 1,7 -1,12 -5,17 -4,5 -10,7 -16,7l-32 0c-4,0 -8,-2 -13,-5 -4,-3 -6,-7 -8,-11 -2,-12 -8,-20 -16,-26 -8,-5 -18,-8 -31,-8 -8,0 -14,2 -21,6 -6,3 -11,9 -16,15 -4,6 -7,14 -10,22 -2,9 -3,18 -3,27z"/>
   <path class="fil2" d="M1128 1060c6,0 11,2 15,6 4,4 6,9 7,15l0 61c12,-12 25,-25 37,-38 13,-13 25,-26 37,-38 2,-1 4,-3 8,-4 3,-2 6,-2 8,-2l42 0c5,0 9,1 13,3 3,3 5,6 7,9 2,4 2,8 1,13 -1,4 -3,8 -6,11l-82 81 87 127c3,4 4,8 4,12 1,4 0,8 -2,11 -2,3 -4,6 -7,8 -4,2 -8,3 -12,3l-40 0c-3,0 -6,-1 -10,-3 -4,-2 -7,-4 -8,-7l-65 -97c-2,2 -4,4 -6,6 -2,2 -4,4 -6,6l0 73c0,6 -3,11 -7,15 -4,5 -9,7 -15,7l-31 0c-6,0 -11,-2 -15,-7 -4,-4 -6,-9 -6,-15l0 -235c0,-6 2,-11 6,-15 4,-4 9,-6 15,-6l31 0z"/>
   <path class="fil2" d="M1510 1060c6,0 11,2 15,6 5,4 7,9 7,15l0 28c0,6 -2,11 -7,16 -4,4 -9,6 -15,6l-106 0 0 28 99 0c6,0 11,2 15,6 4,4 6,9 6,15l0 29c0,5 -2,11 -6,15 -4,4 -9,6 -15,6l-99 0 0 37 112 0c6,0 11,2 15,6 4,4 7,9 7,15l0 28c0,6 -3,11 -7,15 -4,5 -9,7 -15,7l-165 0c-6,0 -11,-2 -15,-7 -5,-4 -7,-9 -7,-15l0 -235c0,-6 2,-11 7,-15 4,-4 9,-6 15,-6l159 0z"/>
   <path class="fil2" d="M1756 1060c6,0 11,2 15,6 4,4 6,9 6,15l0 28c0,6 -2,11 -6,16 -4,4 -9,6 -15,6l-54 0 0 185c0,6 -2,11 -6,15 -5,5 -10,7 -16,7l-31 0c-6,0 -11,-2 -15,-7 -4,-4 -7,-9 -7,-15l0 -185 -53 0c-6,0 -11,-2 -16,-6 -4,-5 -6,-10 -6,-16l0 -28c0,-6 2,-11 6,-15 5,-4 10,-6 16,-6l182 0z"/>
  </g>
  <path class="fil7" d="M623 949c52,0 94,-19 121,-53l-51 -46c-17,21 -39,33 -66,33 -46,0 -78,-32 -78,-80 0,-48 32,-80 78,-80 27,0 49,11 66,33l51 -46c-27,-34 -69,-53 -121,-53 -89,0 -154,61 -154,146 0,85 65,146 154,146z"/>
  <path id="1" class="fil7" d="M984 943l83 0 -125 -280 -78 0 -123 280 81 0 22 -54 118 0 22 54zm-117 -113l36 -90 36 90 -72 0z"/>
  <polygon id="2" class="fil7" points="1278,663 1278,812 1154,663 1089,663 1089,943 1167,943 1167,794 1290,943 1356,943 1356,663 "/>
  <path id="3" class="fil7" d="M1552 949c51,0 93,-19 120,-53l-50 -46c-18,21 -40,33 -66,33 -47,0 -79,-32 -79,-80 0,-48 32,-80 79,-80 26,0 48,11 66,33l50 -46c-27,-34 -69,-53 -120,-53 -89,0 -155,61 -155,146 0,85 66,146 155,146z"/>
  <polygon id="4" class="fil7" points="1786,882 1786,830 1910,830 1910,771 1786,771 1786,724 1927,724 1927,663 1707,663 1707,943 1932,943 1932,882 "/>
  <polygon id="5" class="fil7" points="1976,943 2189,943 2189,880 2056,880 2056,663 1976,663 "/>
 </g>
</svg>
