<?xml version="1.0" encoding="UTF-8"?>
<!DOCTYPE svg PUBLIC "-//W3C//DTD SVG 1.1//EN" "http://www.w3.org/Graphics/SVG/1.1/DTD/svg11.dtd">
<!-- Creator: CorelDRAW X7 -->
<svg xmlns="http://www.w3.org/2000/svg" xml:space="preserve" width="2.492in" height="2.362in" version="1.1" style="shape-rendering:geometricPrecision; text-rendering:geometricPrecision; image-rendering:optimizeQuality; fill-rule:evenodd; clip-rule:evenodd"
viewBox="0 0 2492 2362"
 xmlns:xlink="http://www.w3.org/1999/xlink">
 <defs>
  <style type="text/css">
   <![CDATA[
    .str0 {stroke:#FEFEFE;stroke-width:3}
    .fil29 {fill:#FEFEFE;fill-rule:nonzero}
    .fil28 {fill:#FACE3B;fill-rule:nonzero}
    .fil27 {fill:#265669;fill-rule:nonzero}
    .fil26 {fill:#2F5464;fill-rule:nonzero}
    .fil22 {fill:#316679;fill-rule:nonzero}
    .fil2 {fill:#381D16;fill-rule:nonzero}
    .fil23 {fill:#426677;fill-rule:nonzero}
    .fil25 {fill:#447285;fill-rule:nonzero}
    .fil7 {fill:#462821;fill-rule:nonzero}
    .fil12 {fill:#4F2D26;fill-rule:nonzero}
    .fil11 {fill:#59362F;fill-rule:nonzero}
    .fil13 {fill:#69423A;fill-rule:nonzero}
    .fil24 {fill:#6D8C9C;fill-rule:nonzero}
    .fil3 {fill:#900028;fill-rule:nonzero}
    .fil8 {fill:#AAC6D4;fill-rule:nonzero}
    .fil6 {fill:#BA0C3B;fill-rule:nonzero}
    .fil9 {fill:#C3D8E2;fill-rule:nonzero}
    .fil19 {fill:#CF1144;fill-rule:nonzero}
    .fil21 {fill:#DAE6ED;fill-rule:nonzero}
    .fil5 {fill:#EB1C4D;fill-rule:nonzero}
    .fil17 {fill:#ED2642;fill-rule:nonzero}
    .fil20 {fill:#ED3F5B;fill-rule:nonzero}
    .fil16 {fill:#EF5B59;fill-rule:nonzero}
    .fil18 {fill:#F48975;fill-rule:nonzero}
    .fil0 {fill:#F7B616;fill-rule:nonzero}
    .fil15 {fill:#F9A86E;fill-rule:nonzero}
    .fil14 {fill:#FBBC89;fill-rule:nonzero}
    .fil4 {fill:#FDCD9E;fill-rule:nonzero}
    .fil1 {fill:#FFF26D;fill-rule:nonzero}
    .fil10 {fill:white;fill-rule:nonzero}
   ]]>
  </style>
 </defs>
 <g id="Layer_x0020_1">
  <metadata id="CorelCorpID_0Corel-Layer"/>
  <g id="_724764672">
   <g>
    <path class="fil0" d="M1919 2301c0,34 -353,61 -788,61 -436,0 -789,-27 -789,-61 0,-33 353,-61 789,-61 435,0 788,28 788,61z"/>
   </g>
   <g>
    <path class="fil1" d="M2201 1222c0,583 -473,1056 -1057,1056 -584,0 -1057,-473 -1057,-1056 0,-584 473,-1057 1057,-1057 584,0 1057,473 1057,1057z"/>
   </g>
   <g>
    <g>
     <path class="fil2" d="M990 1236c-94,-46 -170,-136 -211,-248 -2,59 7,122 30,189 52,43 101,77 148,101 9,-6 19,-12 30,-17 1,-8 2,-17 3,-25z"/>
    </g>
    <g>
     <path class="fil2" d="M1509 956c-39,134 -127,240 -238,288 1,1 1,2 1,3 20,8 37,19 50,33 50,-25 101,-59 154,-103 28,-75 36,-150 33,-221z"/>
    </g>
    <g>
     <path class="fil3" d="M987 1261c-11,5 -21,11 -30,17 -4,2 -8,5 -11,8l31 28c4,-16 7,-35 10,-53z"/>
    </g>
    <g>
     <path class="fil3" d="M1272 1247c9,25 18,47 26,66l30 -27c-2,-2 -4,-4 -6,-6 -13,-14 -30,-25 -50,-33z"/>
    </g>
    <g>
     <path class="fil4" d="M1298 1313c-8,-19 -17,-41 -26,-66 0,-1 0,-2 -1,-3 -41,18 -86,27 -132,27 -53,0 -103,-12 -149,-35 -1,8 -2,17 -3,25 -3,18 -6,37 -10,53l121 109 19 108 41 0 18 -108 122 -110z"/>
    </g>
    <g>
     <path class="fil5" d="M1330 1531l309 0c15,0 29,5 41,12 -23,-82 -44,-140 -54,-145 -30,-15 -196,-50 -260,-63 1,5 2,11 2,16 0,21 -20,128 -38,180z"/>
    </g>
    <g>
     <path class="fil5" d="M1713 1672l-46 541c61,-23 116,-50 123,-75 13,-47 -30,-275 -77,-466z"/>
    </g>
    <g>
     <path class="fil5" d="M456 2130c8,20 60,53 113,81l-36 -433c-51,158 -92,313 -77,352z"/>
    </g>
    <g>
     <path class="fil5" d="M906 1351c0,-1 0,-3 0,-5 -68,9 -216,30 -233,49 -6,7 -28,61 -56,136l326 0c-17,-52 -37,-159 -37,-180z"/>
    </g>
    <g>
     <path class="fil5" d="M1176 1423l-18 108 124 0c-41,-40 -106,-108 -106,-108z"/>
    </g>
    <g>
     <path class="fil5" d="M992 1531l125 0 -19 -108c0,0 -65,68 -106,108z"/>
    </g>
    <g>
     <path class="fil6" d="M943 1531l49 0c41,-40 106,-108 106,-108l-121 -109 -31 -28c-20,18 -38,35 -40,60 0,2 0,4 0,5 0,21 20,128 37,180z"/>
    </g>
    <g>
     <path class="fil6" d="M1176 1423c0,0 65,68 106,108l48 0c18,-52 38,-159 38,-180 0,-5 -1,-11 -2,-16 -6,-19 -21,-34 -38,-49l-30 27 -122 110z"/>
    </g>
    <g>
     <path class="fil7" d="M1407 253c0,0 34,1 75,30 2,-6 3,-12 5,-18 23,-120 -61,-236 -187,-261 -115,-22 -226,41 -262,144 110,-17 236,16 369,105z"/>
    </g>
    <g>
     <path class="fil8" d="M644 2288l0 2c0,10 8,18 18,18l100 0c10,0 18,-8 18,-18l0 -2 -135 0c0,0 -1,0 -1,0z"/>
    </g>
    <g>
     <path class="fil8" d="M1467 2288l0 2c0,10 9,18 19,18l99 0c10,0 19,-8 19,-18l0 -3c-4,1 -9,1 -13,1l-124 0z"/>
    </g>
    <g>
     <path class="fil9" d="M597 1572l1042 0c37,0 67,25 74,59l2 -18c2,-29 -12,-55 -35,-70 -12,-7 -26,-12 -41,-12l-309 0 -48 0 -124 0 -41 0 -125 0 -49 0 -326 0 -20 0c-44,0 -79,38 -75,82l1 18c8,-34 38,-59 74,-59z"/>
    </g>
    <g>
     <g>
      <path class="fil10" d="M1715 1654c0,-8 0,-16 -2,-23 -7,-34 -37,-59 -74,-59l-1042 0c-36,0 -66,25 -74,59 -1,7 -2,15 -1,23l11 124 36 433 1 8c3,39 35,68 74,69 0,0 1,0 1,0l135 0 687 0 124 0c4,0 9,0 13,-1 33,-5 59,-33 62,-68l1 -6 46 -541 2 -18zm-597 181l0 0c53,0 95,43 95,95 0,52 -42,95 -95,95 -52,0 -94,-43 -94,-95 0,-52 42,-95 94,-95z"/>
     </g>
    </g>
    <g>
     <path class="fil9" d="M1118 2025c53,0 95,-43 95,-95 0,-52 -42,-95 -95,-95 -52,0 -94,43 -94,95 0,52 42,95 94,95z"/>
    </g>
    <g>
     <path class="fil4" d="M1139 1271c46,0 91,-9 132,-27 111,-48 199,-154 238,-288 -14,-259 -189,-471 -189,-471 0,0 -145,146 -297,169 -116,17 -236,150 -244,334 41,112 117,202 211,248 46,23 96,35 149,35z"/>
    </g>
    <g>
     <path class="fil11" d="M779 988c8,-184 128,-317 244,-334 152,-23 297,-169 297,-169 0,0 175,212 189,471 3,71 -5,146 -33,221 0,0 148,-116 149,-456 0,-281 -80,-393 -143,-438 -41,-29 -75,-30 -75,-30 -133,-89 -259,-122 -369,-105 -188,28 -327,200 -366,479 -61,442 137,550 137,550 -23,-67 -32,-130 -30,-189z"/>
    </g>
    <path class="fil12" d="M1456 487c-2,25 -10,48 -24,69 -13,-71 -41,-139 -83,-198 -89,76 -192,133 -303,170 4,-19 8,-37 11,-55 -94,44 -174,116 -229,205 8,-38 12,-77 12,-115 -82,95 -134,216 -144,341 -1,10 -6,24 -16,23 -3,0 -6,-2 -8,-4 34,198 137,254 137,254 -23,-67 -32,-130 -30,-189 8,-184 128,-317 244,-334 152,-23 297,-169 297,-169 0,0 175,212 189,471 3,71 -5,146 -33,221 0,0 85,-66 126,-245 -64,-139 -50,-321 -146,-445z"/>
    <path class="fil13" d="M1178 186c-119,-41 -289,22 -344,139 -2,5 4,11 9,7 45,-43 90,-82 149,-105 59,-22 121,-25 184,-21 12,1 13,-16 2,-20z"/>
    <path class="fil13" d="M1492 329c-4,-2 -9,2 -7,7 10,18 24,34 34,53 13,22 20,46 29,70 4,10 22,10 21,-3 -1,-46 -33,-108 -77,-127z"/>
    <path class="fil14" d="M1320 485c0,0 -145,146 -297,169 -116,17 -236,150 -244,334 5,12 9,24 15,35 -6,-107 51,-215 143,-271 83,-50 186,-57 269,-107 34,-20 63,-47 92,-73 61,48 96,121 121,194 26,74 42,150 75,220 1,2 2,5 3,7 4,-12 8,-25 12,-37 -14,-259 -189,-471 -189,-471z"/>
    <path class="fil12" d="M1071 761c-5,-33 -49,-41 -76,-39 -28,3 -62,19 -71,47 -2,7 5,14 11,11 21,-7 37,-15 60,-12 20,3 36,18 57,18 14,-1 21,-12 19,-25z"/>
    <g>
     <path class="fil12" d="M1005 814c-4,-2 -8,-3 -13,-2 -57,3 -29,125 21,88 24,-18 20,-74 -8,-86z"/>
     <path class="fil10" d="M990 828c-6,-3 -14,-1 -18,5 0,0 0,1 0,1 -4,6 -2,14 5,18 5,3 15,2 18,-5 0,0 0,0 0,-1 3,-6 2,-14 -5,-18z"/>
    </g>
    <path class="fil12" d="M1215 761c5,-33 49,-41 77,-39 27,3 61,19 70,47 2,7 -5,14 -11,11 -20,-7 -37,-15 -59,-12 -21,3 -37,18 -58,18 -14,-1 -20,-12 -19,-25z"/>
    <g>
     <path class="fil12" d="M1296 814c-4,-2 -8,-3 -12,-2 -58,3 -29,125 20,88 24,-18 20,-74 -8,-86z"/>
     <path class="fil10" d="M1282 828c-6,-3 -15,-1 -18,5 0,0 -1,1 -1,1 -3,6 -1,14 5,18 6,3 15,2 18,-5 0,0 0,0 0,-1 3,-6 2,-14 -4,-18z"/>
    </g>
    <path class="fil15" d="M1144 944c-4,-1 -7,6 -4,9 9,7 17,12 20,23 3,12 -8,18 -17,22 -6,3 -10,12 -2,16 19,9 38,-10 38,-29 1,-19 -15,-39 -35,-41z"/>
    <path class="fil16" d="M1070 1080c12,-15 151,-16 164,3 13,19 -24,79 -83,79 -58,0 -97,-63 -81,-82z"/>
    <path class="fil17" d="M1234 1083c-13,-19 -152,-18 -164,-3 -8,9 -2,30 13,48 21,-23 54,-34 85,-31 22,2 42,9 61,20 8,-14 10,-27 5,-34z"/>
    <path class="fil18" d="M1410 952c0,20 -25,37 -55,37 -29,0 -54,-17 -54,-37 0,-21 25,-38 54,-38 30,0 55,17 55,38z"/>
    <path class="fil18" d="M973 952c0,20 -25,37 -55,37 -30,0 -54,-17 -54,-37 0,-21 24,-38 54,-38 30,0 55,17 55,38z"/>
    <path class="fil14" d="M1274 1335l24 -22c-8,-19 -17,-41 -26,-66 0,-1 0,-2 -1,-3 -41,18 -86,27 -132,27 -53,0 -103,-12 -149,-35 0,0 0,0 0,0 13,17 31,30 49,40 32,17 68,28 104,37 42,10 87,19 131,22z"/>
    <path class="fil14" d="M1117 1531l41 0 4 -25c-20,-27 -41,-54 -63,-80l18 105z"/>
    <path class="fil19" d="M1298 1313l-122 110c0,0 10,10 24,26 49,-48 91,-102 126,-161l-28 25z"/>
    <path class="fil19" d="M947 1287c33,51 69,99 110,143 5,6 11,12 17,18 14,-15 24,-25 24,-25l-121 -109 -30 -27z"/>
    <path class="fil20" d="M651 1443c84,-35 169,-66 255,-93 0,-2 0,-3 0,-4 -68,9 -216,30 -233,49 -3,4 -11,21 -22,48z"/>
    <path class="fil20" d="M1626 1398c-30,-15 -196,-50 -260,-63 0,1 0,1 0,2 62,27 124,52 187,76 32,12 64,23 96,33 -10,-28 -18,-45 -23,-48z"/>
    <path class="fil11" d="M1311 47c-29,-18 -65,-14 -97,-9 -25,4 -72,19 -79,46 0,2 1,4 3,4 20,6 46,-8 67,-12 33,-6 66,1 99,-3 13,-2 20,-18 7,-26z"/>
    <path class="fil11" d="M1413 96c-5,-14 -18,-18 -31,-23 -9,-4 -23,-11 -32,-5 -2,1 -4,3 -3,5 1,12 13,18 21,24 11,8 23,18 36,13 6,-1 11,-8 9,-14z"/>
    <path class="fil21" d="M1266 2111c-212,110 -462,145 -697,100l1 8c3,39 35,68 74,69 0,0 1,0 1,0l135 0 687 0 124 0c4,0 9,0 13,-1 33,-5 59,-33 62,-68l1 -6 46 -537c-103,184 -260,338 -447,435z"/>
    <path class="fil21" d="M1075 1890c-17,1 -26,15 -31,30 -3,13 -3,34 10,41 3,2 9,2 11,-2 6,-7 7,-16 10,-25 3,-10 11,-16 13,-27 2,-8 -3,-17 -13,-17z"/>
    <path class="fil21" d="M1144 1874c-6,-9 -16,-10 -26,-7 -7,2 -17,6 -20,14 -1,3 -1,9 4,10 6,1 11,-1 17,-1 7,0 15,2 22,-3 4,-3 6,-9 3,-13z"/>
   </g>
   <g>
    <g>
     <path class="fil22" d="M1585 740c2,3 3,7 5,11 5,0 13,1 23,3 0,-90 -26,-428 -464,-428 -439,0 -470,339 -471,429 11,-3 20,-3 26,-4 1,-4 3,-8 4,-11 6,-10 13,-17 20,-21 20,-96 101,-322 423,-322 312,0 390,218 410,320 8,3 17,11 24,23z"/>
    </g>
    <g>
     <path class="fil23" d="M704 751c-6,1 -15,1 -26,4 -39,8 -100,36 -100,128 0,105 83,123 121,126 -16,-42 -13,-205 5,-258z"/>
    </g>
    <g>
     <path class="fil24" d="M708 740c-1,3 -3,7 -4,11 -18,53 -21,216 -5,258 2,2 3,5 4,6 22,27 68,33 77,-2 9,-35 19,-217 2,-259 -13,-32 -34,-46 -54,-35 -7,4 -14,11 -20,21z"/>
    </g>
    <g>
     <path class="fil22" d="M1530 1034c-34,73 -129,111 -185,128 0,2 1,3 1,5 3,11 2,20 -1,28 129,-20 191,-109 217,-160 -11,3 -23,3 -32,-1z"/>
    </g>
    <g>
     <path class="fil23" d="M1715 883c0,-94 -64,-121 -102,-129 -10,-2 -18,-3 -23,-3 17,53 20,216 4,258 38,-3 121,-21 121,-126z"/>
    </g>
    <g>
     <path class="fil24" d="M1590 751c-2,-4 -3,-8 -5,-11 -7,-12 -16,-20 -24,-23 -19,-7 -38,8 -50,37 -17,42 -7,224 2,259 3,10 9,17 17,21 9,4 21,4 32,1 10,-4 21,-10 28,-20 2,-1 3,-4 4,-6 16,-42 13,-205 -4,-258z"/>
    </g>
    <g>
     <path class="fil24" d="M1346 1167c0,-2 -1,-3 -1,-5 -19,-45 -118,-30 -135,-7 -18,24 -21,52 6,72 22,18 112,12 129,-32 3,-8 4,-17 1,-28z"/>
    </g>
    <g>
     <path class="fil25" d="M776 1022c-59,-76 -86,-177 -72,-272 0,0 0,1 0,1 -18,53 -21,216 -5,258 2,2 3,5 4,6 20,24 59,31 73,7z"/>
    </g>
    <g>
     <path class="fil25" d="M1585 740c-1,-2 -3,-5 -5,-7 3,60 4,122 -8,181 -9,41 -25,81 -48,116 2,1 4,3 6,4 9,4 21,4 32,1 10,-4 21,-10 28,-20 2,-1 3,-4 4,-6 16,-42 13,-205 -4,-258 -2,-4 -3,-8 -5,-11z"/>
    </g>
    <path class="fil26" d="M1646 919c-12,10 -27,19 -42,20 -2,30 -5,56 -10,70 38,-3 121,-21 121,-126 0,-12 -1,-22 -3,-32 -18,25 -41,49 -66,68z"/>
    <path class="fil26" d="M583 840c-3,13 -5,27 -5,43 0,105 83,123 121,126 -5,-15 -9,-44 -10,-78 -21,-7 -42,-17 -59,-32 -20,-16 -35,-36 -47,-59z"/>
    <g>
     <path class="fil25" d="M1286 1199c-30,8 -62,5 -90,-8 0,13 6,26 20,36 22,18 112,12 129,-32 3,-8 4,-17 1,-28 0,-1 0,-2 -1,-4 -16,17 -36,30 -59,36z"/>
    </g>
    <path class="fil27" d="M1524 1046c4,9 9,18 15,27 10,-14 17,-27 23,-38 -11,3 -23,3 -32,-1 -2,4 -4,8 -6,12z"/>
    <path class="fil27" d="M1394 1183c-10,-9 -20,-18 -32,-26 -6,2 -12,3 -17,5 0,2 1,3 1,5 3,11 2,20 -1,28 18,-2 34,-7 49,-12z"/>
    <path class="fil27" d="M1561 717c8,3 17,11 24,23 2,3 3,7 5,11 5,0 13,1 23,3 0,-22 -2,-58 -10,-101 -17,12 -33,24 -48,37 2,10 4,19 6,27z"/>
    <path class="fil27" d="M687 668c-7,37 -9,67 -9,87 11,-3 20,-3 26,-4 1,-4 3,-8 4,-11 6,-10 13,-17 20,-21 1,-5 2,-11 4,-17 -15,-11 -30,-23 -45,-34z"/>
   </g>
   <g>
    <path class="fil28" d="M2296 110l-461 0c-59,0 -108,49 -108,109l0 421c0,59 49,108 108,108l18 0 -44 70c-15,24 10,51 35,39l191 -98c5,-2 9,-6 11,-11l250 0c60,0 109,-49 109,-108l0 -421c0,-60 -49,-109 -109,-109z"/>
    <g>
     <path class="fil29 str0" d="M2322 243l-406 0c-5,0 -9,-5 -9,-10 0,-5 4,-9 9,-9l406 0c5,0 9,4 9,9 0,5 -4,10 -9,10z"/>
    </g>
    <g>
     <path class="fil29 str0" d="M2322 346l-507 0c-5,0 -10,-4 -10,-9 0,-5 5,-10 10,-10l507 0c5,0 9,5 9,10 0,5 -4,9 -9,9z"/>
    </g>
    <g>
     <path class="fil29 str0" d="M2322 450l-507 0c-5,0 -10,-4 -10,-9 0,-5 5,-10 10,-10l507 0c5,0 9,5 9,10 0,5 -4,9 -9,9z"/>
    </g>
    <g>
     <path class="fil29 str0" d="M2322 554l-507 0c-5,0 -10,-4 -10,-9 0,-6 5,-10 10,-10l507 0c5,0 9,4 9,10 0,5 -4,9 -9,9z"/>
    </g>
    <g>
     <path class="fil29 str0" d="M2322 658l-507 0c-5,0 -10,-4 -10,-10 0,-5 5,-9 10,-9l507 0c5,0 9,4 9,9 0,6 -4,10 -9,10z"/>
    </g>
   </g>
  </g>
 </g>
</svg>
