<?xml version="1.0" encoding="UTF-8"?>
<!DOCTYPE svg PUBLIC "-//W3C//DTD SVG 1.1//EN" "http://www.w3.org/Graphics/SVG/1.1/DTD/svg11.dtd">
<!-- Creator: CorelDRAW X7 -->
<svg xmlns="http://www.w3.org/2000/svg" xml:space="preserve" width="0.0533307in" height="0.0533307in" version="1.1" style="shape-rendering:geometricPrecision; text-rendering:geometricPrecision; image-rendering:optimizeQuality; fill-rule:evenodd; clip-rule:evenodd"
viewBox="0 0 53 53"
 xmlns:xlink="http://www.w3.org/1999/xlink">
 <defs>
  <style type="text/css">
   <![CDATA[
    .fil1 {fill:#F3B731}
    .fil0 {fill:#F3B731;fill-rule:nonzero}
   ]]>
  </style>
 </defs>
 <g id="Layer_x0020_1">
  <metadata id="CorelCorpID_0Corel-Layer"/>
  <g id="_724845088">
   <path class="fil0" d="M8 36l-1 0 0 -4 -2 4c0,0 0,0 0,0 0,0 0,0 0,0 0,0 0,0 0,0 0,0 0,0 0,0l-2 -4 0 4 -1 0 0 -6c0,0 0,0 0,0 0,0 0,0 0,0 0,0 0,0 0,0 0,0 0,0 0,0 0,0 0,0 0,0 0,0 0,0 1,0l2 4 2 -4c0,0 1,0 1,0 0,0 0,0 0,0 0,0 0,0 0,0 0,0 0,0 0,0l0 6z"/>
   <path id="1" class="fil0" d="M15 36l-1 0 0 -2 -3 0 0 2 -1 0 0 -3c0,-1 0,-1 0,-1 0,-1 0,-1 0,-1 1,-1 1,-1 1,-1 1,0 1,0 1,0l3 0c0,0 0,0 0,0 0,0 0,0 0,0 0,0 0,0 0,0 0,0 0,0 0,0l0 6zm-4 -3l3 0 0 -2 -2 0c0,0 0,0 0,0 0,0 0,0 0,0 0,0 0,0 -1,0 0,0 0,0 0,1 0,0 0,0 0,0 0,0 0,1 0,1l0 0z"/>
   <path id="2" class="fil0" d="M23 35c0,0 0,0 -1,1 0,0 0,0 0,0 0,0 0,0 0,0 0,0 0,0 0,0 0,0 0,0 0,0 0,0 0,0 0,0l-4 -4 0 4 -1 0 0 -6c0,0 0,0 0,0 0,0 0,0 0,0 0,0 0,0 0,0 0,0 0,0 1,0l3 4 0 -4 2 0 0 5z"/>
   <path id="3" class="fil0" d="M30 35c0,0 0,0 0,0 -1,1 -1,1 -1,1 0,0 0,0 0,0 0,0 0,0 0,0l-4 0c0,0 0,0 0,0 0,0 0,0 0,0 -1,0 -1,0 -1,-1 0,0 0,0 0,0 0,0 0,0 0,0 0,0 0,-1 0,-1l0 -3c0,0 0,0 0,0 0,0 0,0 0,0 0,0 0,0 0,-1 0,0 0,0 0,0 0,0 1,0 1,0 0,0 0,0 0,0l5 0 0 1 -5 0c0,0 0,0 0,0 0,0 0,0 0,0l0 3c0,0 0,1 0,1 0,0 0,0 0,0l3 0 0 -2 -2 0 0 -1 3 0c0,0 0,0 0,0 0,0 0,0 0,0 0,1 0,1 1,1 0,0 0,0 0,0l0 2z"/>
   <path id="4" class="fil0" d="M36 36l-1 0 0 -2 -3 0 0 2 -1 0 0 -3c0,-1 0,-1 0,-1 0,-1 0,-1 0,-1 1,-1 1,-1 1,-1 1,0 1,0 2,0l2 0c0,0 0,0 0,0 0,0 0,0 0,0 0,0 0,0 0,0 0,0 0,0 0,0l0 6zm-4 -3l3 0 0 -2 -1 0c-1,0 -1,0 -1,0 0,0 0,0 0,0 0,0 0,0 0,0 -1,0 -1,0 -1,1 0,0 0,0 0,0 0,0 0,1 0,1l0 0z"/>
   <path id="5" class="fil0" d="M43 36l-5 0c0,0 0,0 0,0 0,0 0,0 0,0 0,0 0,0 0,-1 0,0 0,0 0,0l0 -5 1 0 0 5 4 0 0 1z"/>
   <path id="6" class="fil0" d="M50 36l-1 0 0 -2 -4 0 0 2 -1 0 0 -3c0,-1 0,-1 0,-1 0,-1 0,-1 1,-1 0,-1 0,-1 1,-1 0,0 0,0 1,0l2 0c0,0 0,0 0,0 0,0 0,0 1,0 0,0 0,0 0,0 0,0 0,0 0,0l0 6zm-5 -3l4 0 0 -2 -2 0c0,0 0,0 0,0 -1,0 -1,0 -1,0 0,0 0,0 0,0 0,0 -1,0 -1,1 0,0 0,0 0,0 0,0 0,1 0,1l0 0z"/>
   <polygon class="fil0" points="15,37 16,37 16,38 16,38 16,39 16,39 16,38 15,38 "/>
   <path id="1" class="fil0" d="M19 37l0 0c0,0 0,0 0,1 1,0 1,0 1,0 0,0 0,0 0,0 -1,0 -1,0 -1,0l1 1 -1 0 0 -1 0 0 0 1 0 0 0 -2zm0 1l0 0 0 0c0,0 0,0 0,0 0,0 0,0 0,0 0,0 0,0 0,0l0 0z"/>
   <path id="2" class="fil0" d="M22 37l1 0 0 2 0 0 0 0 -1 0 0 0 0 0 0 -2zm1 1l-1 0 1 0 0 0z"/>
   <polygon id="3" class="fil0" points="25,37 26,37 26,38 26,37 27,37 26,39 26,39 "/>
   <polygon id="4" class="fil0" points="29,37 30,37 30,38 29,38 29,38 30,38 30,38 29,38 29,39 30,39 30,39 29,39 "/>
   <polygon id="5" class="fil0" points="32,37 32,37 32,39 33,39 33,39 32,39 "/>
   <path id="6" class="fil0" d="M36 38l0 0c0,0 -1,0 -1,0 0,0 0,0 0,0 0,0 0,0 0,0 0,0 0,0 0,0 1,0 1,0 1,0 0,0 0,0 0,0 0,0 0,0 0,0 0,1 0,1 0,1 0,0 0,0 -1,0 0,0 0,0 0,0l0 -1c0,1 0,1 0,1 0,0 0,0 1,0 0,0 0,0 0,-1 0,0 -1,0 -1,0 0,0 0,0 0,0 0,0 0,0 0,0 0,0 0,0 0,0 0,0 0,0 0,-1 0,0 0,0 0,0 1,0 1,0 1,1z"/>
   <path class="fil0" d="M37 18l-6 0 0 -2c0,-1 -1,-2 -2,-2l-7 0c-1,0 -2,1 -2,2l0 2 -6 0c-2,0 -3,1 -3,3l0 7 1 0 0 -7c0,-1 1,-2 2,-2l2 0 0 9 1 0 0 -9 17 0 0 9 1 0 0 -9 2 0c1,0 2,1 2,2l0 7 2 0 0 -7c0,-2 -2,-3 -4,-3zm-15 -2l0 0c0,0 0,0 0,0l7 0c0,0 1,0 1,0l0 2 -8 0 0 -2z"/>
   <path class="fil0" d="M48 34l2 0 0 1 2 -1 -2 -1 0 0 -2 0 0 1zm1 0m1 0m1 0m0 -1m-1 0m-1 0m-1 1"/>
   <g>
    <path class="fil1" d="M30 24l0 1c0,0 0,0 0,0 0,0 -1,0 -1,0 0,0 0,0 0,0 -1,0 -1,0 -1,0 0,0 -1,0 -1,0 0,0 0,0 0,0 0,0 -1,0 -1,0 0,0 0,1 0,1l0 0c0,0 0,0 0,0l0 0c0,0 1,0 1,0 0,0 0,0 0,0 0,0 0,0 0,0 0,0 0,0 0,0 0,-1 0,-1 0,-1l0 0c0,0 0,0 0,0 0,0 0,0 1,0 0,0 0,0 1,0 0,0 1,0 1,0 0,1 0,1 0,1l0 0c0,0 0,0 0,0 0,0 0,0 0,0 0,0 0,0 0,0 0,0 0,0 0,0l-2 1 0 -1c0,0 1,0 1,0l0 0c0,0 -1,0 -1,0 0,0 0,-1 0,-1 0,0 -1,0 -1,0 0,0 0,0 0,0 0,0 0,0 0,0 0,1 0,1 0,1l0 0 0 0c0,0 0,0 0,0 0,0 0,0 0,0 0,0 0,1 0,1l-1 0 0 0c-1,1 0,1 -1,1 0,0 0,0 0,0 0,0 -1,0 -1,0 0,0 -1,0 -1,0l-1 -1 -1 0c0,0 0,0 0,0 0,0 0,0 0,0 0,0 0,0 0,0 0,0 0,0 0,0 0,0 0,0 0,0 0,0 0,0 0,0 1,0 1,0 2,0 0,0 0,0 1,0 0,0 1,0 1,0 1,0 1,0 1,0l0 -1c0,0 0,0 0,0 0,0 0,1 0,1 0,0 0,0 -1,0 0,0 0,0 0,0 -1,0 -1,0 -1,0 -1,0 -1,0 -1,0 0,0 0,0 0,0l-1 0c0,0 0,0 0,0l0 0 -1 0c0,0 0,0 0,0 0,0 0,0 0,0 0,0 0,0 0,0 0,0 0,-1 0,-1 0,0 0,0 -1,0 0,0 1,0 1,0 0,0 0,0 0,0 -1,1 -1,1 -1,1 0,0 1,0 1,0 0,0 0,0 0,1 0,0 1,0 1,0 0,0 0,0 0,0 0,0 1,0 1,0 0,0 1,0 1,0 0,0 1,0 1,0 0,0 0,0 1,0 0,0 0,0 0,0 0,0 0,0 0,0l1 -1c0,1 0,1 0,1 0,0 0,0 1,0 0,0 0,0 0,-1l0 0c0,0 0,0 0,0 0,0 0,0 0,0l0 0c1,0 1,0 1,0 0,0 0,0 1,0 0,0 0,0 0,0l0 0c0,0 0,0 0,-1 0,0 0,0 0,0 0,0 0,0 0,0 0,0 0,0 1,0 0,0 0,0 0,0 0,0 0,0 0,0 0,0 0,-1 0,-1 0,0 -1,0 -1,-1 0,0 0,0 0,-1l0 0 0 1zm0 2l0 0c0,0 0,0 0,0 0,0 0,0 0,0 0,0 0,0 0,0 0,0 0,0 0,0 0,0 0,1 0,1 0,0 0,-1 0,-1 0,0 0,0 0,0 0,0 0,0 0,0zm-2 -1c0,0 0,0 0,1 0,0 0,0 0,1 0,0 0,0 0,0 0,0 0,0 0,0 0,0 0,0 0,0 0,0 0,0 -1,0 0,0 0,0 0,-1 0,0 0,0 1,0 0,0 0,0 0,0 0,0 0,1 0,1 0,-1 0,-1 0,-1 0,-1 -1,0 -1,0 0,0 0,0 0,0 0,0 0,0 0,1l0 0c0,0 0,-1 0,-1 0,0 0,0 0,0 0,0 0,0 0,0l0 0c0,0 0,0 0,0 0,0 0,0 0,0 0,0 0,0 0,0 1,0 1,0 1,-1zm-7 1c0,0 0,0 0,0 0,0 0,0 0,0 0,0 0,0 0,0 0,0 0,0 0,0 0,0 0,0 0,0z"/>
    <path class="fil1" d="M30 24c0,0 0,0 0,0 0,0 0,0 0,0 0,0 -1,0 -1,0 0,-1 0,-1 0,-1 0,0 0,0 0,0l1 0c0,0 0,0 0,0l0 1c0,0 0,0 0,0 0,0 0,0 0,0l0 -1c0,0 0,0 0,0 0,0 0,0 0,0l0 1c0,0 0,0 0,-1 0,0 0,0 0,0 0,0 0,0 -1,0l-1 -1c0,0 0,0 -1,0 0,-1 0,-1 0,-1 0,0 0,0 -1,0 0,0 0,0 0,0 0,1 0,2 0,3 0,0 0,1 0,1 0,0 0,0 0,0 1,0 1,0 1,-1 0,0 0,0 1,0 0,0 0,-1 0,-1 0,0 1,1 2,1 0,0 0,0 0,0zm-4 0l0 0c0,0 0,-1 0,-1 0,0 0,-1 0,-1 0,0 1,0 0,0l0 0c0,0 0,1 0,2zm1 -2c0,0 0,0 0,0 0,0 0,0 0,1l0 0c0,0 0,0 0,0 0,0 0,0 -1,0l0 1 0 0 0 1c0,0 1,-1 1,-1 0,0 0,0 0,-1 1,0 1,0 1,0 0,0 0,-1 0,-1l0 0c-1,0 -1,0 -1,0l0 0c0,0 0,-1 -1,-1 0,0 0,0 0,1 0,0 0,0 1,0l0 0c0,0 0,0 0,0zm1 1l1 1c0,0 0,0 0,0l0 -1c0,0 0,0 0,0 0,-1 0,-1 0,-1 0,1 0,1 0,1 0,0 -1,0 -1,0zm0 0c0,0 0,0 0,0l0 0 0 -1c0,0 0,0 0,0 0,0 0,0 0,0 0,0 0,0 0,0 0,0 0,1 0,1z"/>
    <path class="fil1" d="M20 23c1,0 0,0 1,0 0,0 0,0 0,0 0,0 0,0 0,0 0,0 0,0 0,0l0 1c0,0 0,0 0,0 0,1 -1,1 0,2 0,0 0,0 1,0 0,0 3,0 3,0 0,0 0,0 0,0 0,0 0,-1 0,-1 0,0 0,0 0,0 0,-1 0,-1 0,-1l0 0c0,0 0,0 0,0 0,-1 0,-1 0,-2 0,0 0,0 0,0 0,-1 0,-1 0,-1 0,0 0,0 0,0l0 0c0,0 0,0 0,0 0,0 0,1 0,1 0,0 0,1 0,1 0,0 0,1 0,1 0,0 0,1 0,1 0,0 0,0 0,0 0,0 -1,0 -1,0 0,0 0,0 0,0 -1,0 -1,0 -1,0 0,1 -2,0 -2,0 0,0 0,0 0,0 0,0 0,0 0,-1 0,0 0,0 0,-1 0,0 0,0 0,-1l0 0c0,0 0,-1 1,-1 0,0 0,0 0,0 0,0 0,0 0,0 1,0 1,0 2,0 0,0 1,0 1,0 0,0 -1,0 -1,0 0,0 -2,0 -2,0 -1,0 -1,0 -1,0l0 1c0,0 0,0 0,0 0,0 0,0 0,0 -1,0 -1,1 -1,1zm1 0l0 0c0,0 0,-1 0,-1 0,0 0,0 0,0 0,0 0,0 0,0 0,0 0,0 0,0 0,0 0,0 0,1 0,0 0,0 0,0z"/>
    <path class="fil1" d="M22 21c0,0 0,0 0,0 0,0 0,0 1,0 1,0 2,-1 2,0 1,0 1,0 2,0l0 0c0,0 0,0 1,1 0,0 0,0 0,0l2 1c0,0 0,0 0,0 0,0 -1,0 -1,-1l0 0c0,0 -1,-1 -1,-1 0,0 0,0 0,0 -1,0 -1,0 -1,0l0 0c0,0 -1,-1 -2,-1 0,0 0,0 0,0 -1,0 -3,1 -3,1z"/>
    <path class="fil1" d="M24 26c0,1 0,1 1,1 0,0 0,-1 0,-1 0,0 0,0 0,0 0,0 0,0 0,0 0,0 -1,0 -1,0 0,0 0,0 0,0 0,0 0,0 0,0zm0 0c0,0 1,0 1,0 0,0 0,0 0,0 0,0 0,0 0,0 0,0 -1,0 -1,0z"/>
    <path class="fil1" d="M21 25c0,0 0,0 0,0 0,0 0,0 0,0 1,0 2,0 3,0 0,0 0,0 0,0l0 0c0,0 -1,0 -1,0 -1,0 -1,0 -2,0z"/>
    <path class="fil1" d="M21 26l0 0c0,0 1,0 1,0 0,0 1,0 1,0 0,0 0,0 1,0 0,0 0,0 0,0 0,0 0,0 0,0 -1,0 -2,0 -3,0z"/>
    <path class="fil1" d="M22 26c0,0 0,0 1,0 0,0 0,0 0,0 0,0 0,0 0,0 -1,0 -1,0 -1,0z"/>
    <path class="fil1" d="M27 23l0 0c0,-1 0,-1 0,-1 0,0 0,0 0,0 0,0 0,0 0,0 0,0 0,0 0,0 0,0 0,0 0,0 0,0 0,0 0,0 0,0 0,0 0,0 0,0 0,1 0,1 0,0 0,0 0,0z"/>
    <path class="fil1" d="M28 27l0 0 2 -1 0 0c0,0 -2,1 -2,1z"/>
    <path class="fil1" d="M24 27c0,0 0,0 0,0 0,0 0,0 0,0 0,0 0,0 0,0z"/>
    <path class="fil1" d="M25 27c0,0 0,0 0,0l0 0c0,0 0,0 0,0 0,0 0,0 0,0 0,0 -1,0 -1,0 0,0 1,0 1,0z"/>
    <path class="fil1" d="M21 27c0,0 0,0 0,0 0,0 0,0 0,0z"/>
    <path class="fil1" d="M21 27c0,0 0,0 0,0 0,0 0,0 0,0 0,0 0,0 0,0z"/>
   </g>
  </g>
 </g>
</svg>
