<?xml version="1.0" encoding="UTF-8"?>
<!DOCTYPE svg PUBLIC "-//W3C//DTD SVG 1.1//EN" "http://www.w3.org/Graphics/SVG/1.1/DTD/svg11.dtd">
<!-- Creator: CorelDRAW X7 -->
<svg xmlns="http://www.w3.org/2000/svg" xml:space="preserve" width="4.953in" height="2.906in" version="1.1" style="shape-rendering:geometricPrecision; text-rendering:geometricPrecision; image-rendering:optimizeQuality; fill-rule:evenodd; clip-rule:evenodd"
viewBox="0 0 4953 2906"
 xmlns:xlink="http://www.w3.org/1999/xlink">
 <defs>
  <style type="text/css">
   <![CDATA[
    .fil0 {fill:#FACE3B;fill-rule:nonzero}
    .fil6 {fill:black;fill-rule:nonzero}
    .fil22 {fill:#070635;fill-rule:nonzero}
    .fil7 {fill:#0E6A41;fill-rule:nonzero}
    .fil15 {fill:#1F1C40;fill-rule:nonzero}
    .fil12 {fill:#2B2757;fill-rule:nonzero}
    .fil8 {fill:#3F954E;fill-rule:nonzero}
    .fil16 {fill:#494C7F;fill-rule:nonzero}
    .fil9 {fill:#5F7EDB;fill-rule:nonzero}
    .fil14 {fill:#7F99EA;fill-rule:nonzero}
    .fil4 {fill:#94A6DB;fill-rule:nonzero}
    .fil11 {fill:#C31F4A;fill-rule:nonzero}
    .fil1 {fill:#CDD8F9;fill-rule:nonzero}
    .fil13 {fill:#DE613C;fill-rule:nonzero}
    .fil20 {fill:#E3E9FF;fill-rule:nonzero}
    .fil10 {fill:#E62451;fill-rule:nonzero}
    .fil3 {fill:#ECF0FF;fill-rule:nonzero}
    .fil5 {fill:#F27A4F;fill-rule:nonzero}
    .fil21 {fill:#F494AD;fill-rule:nonzero}
    .fil19 {fill:#F6D33C;fill-rule:nonzero}
    .fil17 {fill:#F8CD2C;fill-rule:nonzero}
    .fil18 {fill:#F8F83A;fill-rule:nonzero}
    .fil2 {fill:white;fill-rule:nonzero}
   ]]>
  </style>
 </defs>
 <g id="Layer_x0020_1">
  <metadata id="CorelCorpID_0Corel-Layer"/>
  <g id="_916345744">
   <path class="fil0" d="M304 2867c-319,-453 -419,-717 -145,-1198 135,-237 -186,-471 26,-651 174,-148 367,52 588,-403 354,-725 803,-61 1263,-388 701,-499 1483,-106 1988,494 97,116 281,105 425,153 431,161 400,450 314,864 -37,181 73,240 126,332 160,295 -10,576 -180,825 0,0 -4405,-28 -4405,-28z"/>
   <g>
    <g>
     <polygon class="fil1" points="3288,2213 3309,2261 3052,2390 "/>
     <polygon class="fil1" points="3326,2319 3305,2368 3064,2384 "/>
     <polygon class="fil2" points="3052,2390 3468,2309 3337,2242 "/>
     <polygon class="fil2" points="3288,2213 3052,2390 3207,2165 "/>
    </g>
    <g>
     <path class="fil1" d="M2966 2849c-3,0 -6,-1 -8,-4 -2,-4 -1,-9 3,-11 12,-7 26,-14 42,-21 5,-2 10,0 11,4 2,5 0,10 -4,11 -15,7 -29,14 -40,20 -2,1 -3,1 -4,1zm83 -37l0 0c-3,0 -6,-2 -8,-6 -1,-4 1,-9 5,-11 14,-5 28,-10 44,-16 4,-1 9,1 10,5 2,5 0,10 -5,11 -15,5 -29,11 -43,16 -1,0 -2,1 -3,1zm87 -31l0 0c-4,0 -7,-2 -8,-6 -2,-4 1,-9 5,-11 14,-4 29,-9 44,-13 5,-2 9,1 11,5 1,5 -1,9 -6,11 -15,4 -30,9 -44,14 0,0 -1,0 -2,0zm88 -27l0 0c-4,0 -7,-2 -8,-6 -2,-4 1,-9 6,-10 14,-4 29,-9 44,-13 4,-1 9,2 10,6 1,5 -1,9 -6,11 -15,4 -30,8 -44,12 -1,0 -1,0 -2,0zm89 -24l0 0c-4,0 -8,-2 -9,-6 -1,-4 2,-9 7,-10 14,-4 29,-8 44,-11 5,-1 9,1 10,6 1,4 -1,9 -6,10 -15,4 -30,7 -44,11 -1,0 -2,0 -2,0zm89 -21l0 0c-4,0 -7,-3 -8,-7 -1,-4 2,-9 6,-10 12,-3 25,-5 37,-8 3,-1 5,-1 8,-2 4,-1 9,2 10,6 1,5 -2,10 -6,11 -3,0 -6,1 -8,1 -13,3 -25,6 -37,9 -1,0 -1,0 -2,0zm89 -22l0 0c-3,0 -7,-3 -8,-6 -1,-5 1,-9 5,-11 15,-5 29,-10 43,-16 4,-2 9,0 11,5 2,4 0,9 -5,11 -14,6 -28,11 -43,16 -1,0 -2,1 -3,1zm84 -37l0 0c-3,0 -6,-2 -7,-4 -2,-4 -1,-9 3,-12 13,-7 26,-15 38,-24 4,-3 9,-2 12,2 3,4 2,9 -2,12 -13,9 -26,17 -40,25 -1,1 -2,1 -4,1zm74 -54l0 0c-2,0 -4,-1 -6,-2 -3,-4 -3,-9 1,-12 11,-11 21,-22 30,-33 3,-4 8,-4 12,-1 4,3 4,8 1,12 -9,12 -20,23 -32,34 -1,1 -3,2 -6,2zm58 -71l0 0c-2,0 -3,0 -4,-1 -4,-3 -6,-8 -3,-12 7,-13 14,-26 19,-40 1,-4 6,-7 10,-5 5,2 7,7 5,11 -5,14 -12,29 -20,43 -1,2 -4,4 -7,4zm32 -86l0 0c-1,0 -1,0 -2,0 -4,-1 -8,-5 -7,-10 2,-12 4,-25 4,-37 0,-3 0,-5 -1,-7 0,-4 4,-8 9,-8 4,-1 8,3 8,8 0,2 0,4 0,7 0,13 -1,27 -3,40 -1,4 -4,7 -8,7zm-3 -91l0 0c-4,0 -8,-3 -8,-6 -4,-15 -9,-29 -16,-42 -2,-4 0,-9 4,-11 4,-2 9,0 11,4 8,14 13,29 17,45 1,4 -2,9 -6,10 -1,0 -2,0 -2,0zm-427 -78l0 0c-3,0 -6,-2 -7,-5 -2,-4 -1,-9 4,-11 13,-7 28,-13 42,-20 4,-1 9,1 11,5 2,4 0,9 -5,11 -13,6 -27,12 -41,19 -1,1 -2,1 -4,1zm386 -3l0 0c-3,0 -5,-1 -7,-3 -9,-12 -20,-21 -32,-29 -4,-3 -5,-8 -2,-12 2,-4 7,-5 11,-2 14,9 26,19 36,32 3,3 3,9 -1,12 -1,1 -3,2 -5,2zm-301 -33l0 0c-3,0 -7,-2 -8,-6 -1,-4 1,-9 5,-10 15,-5 30,-10 45,-14 4,-1 9,2 10,6 1,5 -1,9 -6,10 -14,4 -29,9 -43,14 -1,0 -2,0 -3,0zm225 -18l0 0c-1,0 -1,0 -2,0 -14,-4 -28,-8 -43,-9 -5,-1 -8,-5 -8,-9 1,-5 5,-8 9,-8 17,2 33,5 47,10 4,1 7,6 5,11 -1,3 -4,5 -8,5zm-136 -5l0 0c-4,0 -8,-3 -8,-7 -1,-5 2,-9 6,-10 17,-3 32,-4 47,-5 5,0 9,3 9,8 0,5 -3,8 -8,9 -14,0 -29,2 -45,5 0,0 -1,0 -1,0z"/>
    </g>
   </g>
   <g>
    <path class="fil1" d="M4502 108l85 234c4,9 -1,18 -10,22l-406 149c-9,3 -19,-2 -22,-10l-86 -234c-3,-9 1,-19 10,-22l407 -149c9,-4 18,1 22,10z"/>
    <path class="fil3" d="M4502 108l4 13 -136 201c-13,20 -38,29 -61,22l-243 -68 -3 -7c-3,-9 1,-19 10,-22l407 -149c9,-4 18,1 22,10z"/>
   </g>
   <g>
    <path class="fil1" d="M3001 803l-112 207c-4,8 -14,10 -22,6l-359 -194c-8,-4 -11,-14 -7,-22l112 -207c4,-8 14,-11 22,-6l359 194c8,4 11,14 7,22z"/>
    <path class="fil2" d="M3001 803l-6 11 -227 29c-23,4 -45,-8 -55,-28l-103 -215 3 -7c4,-8 14,-11 22,-6l359 194c8,4 11,14 7,22z"/>
   </g>
   <path class="fil4" d="M4731 2906l-4502 0c-14,0 -26,-11 -26,-26 0,-14 12,-26 26,-26l4502 0c14,0 25,12 25,26 0,15 -11,26 -25,26z"/>
   <g>
    <g>
     <path class="fil5" d="M3115 1577l5 -31c0,0 -22,-4 -21,-19l23 -1c0,0 12,-11 -2,-45 -3,-33 18,-17 21,-27 4,-15 32,15 32,48 2,41 -21,75 -21,75l-37 0z"/>
    </g>
    <g>
     <path class="fil5" d="M2527 1900l-21 -18c0,0 2,-39 -21,-36 -6,0 11,22 -1,23 -3,0 -11,-9 -23,-23 -9,-17 -27,-17 -34,-14 -15,6 -17,35 6,58 28,29 68,37 68,37l26 -27z"/>
    </g>
    <path class="fil6" d="M2759 2799c-31,43 -107,17 -104,75 115,0 163,0 163,0 0,-13 -3,-45 -5,-58l-54 -17z"/>
    <path class="fil6" d="M2931 2800c-31,43 -106,17 -104,75 115,0 163,0 163,0 0,-13 -2,-45 -5,-58l-54 -17z"/>
    <path class="fil7" d="M2706 2137c0,0 -19,278 -12,340 8,61 35,141 32,345 37,10 92,0 92,0 0,0 8,-231 -32,-334 16,-101 68,-330 68,-330l-148 -21z"/>
    <path class="fil8" d="M2761 2145c0,0 38,312 57,371 18,59 50,105 83,306 39,2 93,4 93,4 0,0 -19,-255 -79,-313 -2,-102 9,-366 9,-366l-163 -2z"/>
    <path class="fil4" d="M2907 1770c0,0 3,2 158,-25 0,0 0,0 0,0l55 47c0,0 0,0 0,0 -41,46 -217,73 -217,73l4 -95z"/>
    <polygon class="fil9" points="2841,1736 2786,1727 2732,1738 2788,1804 "/>
    <path class="fil5" d="M2821 1768c-22,16 -45,24 -68,7l-4 -84 72 -1 0 78z"/>
    <path class="fil4" d="M2716 1767l17 -6 -1 -23 43 39 12 3 13 -3 41 -41 0 23 14 4 61 8 0 267 22 124c-70,18 -175,19 -250,3l12 -112 -26 -271 42 -15z"/>
    <path class="fil10" d="M2785 1810c0,0 7,163 20,247 -4,5 -22,27 -22,27 0,0 -22,-21 -28,-25 -13,-147 11,-248 11,-248l19 -1z"/>
    <polygon class="fil11" points="2799,1782 2776,1776 2759,1782 2766,1811 2786,1811 "/>
    <path class="fil2" d="M2776 1776c0,0 18,24 35,34l43 -46 -13 -28 -65 40z"/>
    <path class="fil2" d="M2776 1776c0,0 -15,21 -34,35l-34 -42 24 -31 44 38z"/>
    <path class="fil4" d="M3158 1572c-25,-6 -38,-8 -56,-6 -32,135 -58,188 -42,224 14,30 48,25 63,-1 19,-33 28,-153 35,-217z"/>
    <path class="fil4" d="M2677 1782c-37,1 -81,174 -81,174l-71 -77 -41 57c0,0 106,130 146,118 38,-11 57,-147 57,-147l-10 -125z"/>
    <g>
     <path class="fil12" d="M2843 1687c35,4 53,-41 53,-41 22,-4 18,-25 18,-25 10,-3 24,-14 20,-33 -4,-17 -20,-16 -22,-35 -2,-16 9,-54 -40,-57 0,0 -2,-29 -31,-35 -37,-9 -46,13 -62,17 -17,4 -56,-12 -61,29 0,0 -25,1 -37,19 -11,18 -4,40 3,48 0,0 -20,7 -25,26 -3,13 2,30 15,38 8,5 16,5 16,5 8,2 9,24 16,28 12,7 25,12 38,16l99 0z"/>
     <path class="fil5" d="M2708 1601c-4,60 29,112 74,115 45,3 85,-44 89,-104 4,-61 -32,-100 -77,-103 -45,-3 -82,31 -86,92z"/>
     <path class="fil6" d="M2822 1632c5,0 9,-3 9,-8 1,-5 -3,-9 -8,-9 -4,-1 -9,3 -9,8 0,5 3,9 8,9z"/>
     <path class="fil6" d="M2753 1627c5,1 9,-3 9,-8 1,-4 -3,-9 -8,-9 -4,0 -9,3 -9,8 0,5 3,9 8,9z"/>
     <g>
      <path class="fil12" d="M2739 1610c1,0 3,-1 4,-2 2,-3 5,-5 8,-6 5,0 10,3 10,3 2,2 4,1 6,0 1,-2 1,-5 -1,-6 0,0 -7,-6 -16,-5 -6,1 -10,4 -14,9 -1,2 -1,5 1,6 1,1 1,1 2,1z"/>
     </g>
     <g>
      <path class="fil12" d="M2840 1617c1,0 2,0 2,-1 2,-1 3,-3 1,-5 -5,-8 -10,-12 -17,-13 -8,-1 -14,4 -14,4 -2,2 -3,4 -1,6 1,2 4,2 6,1 0,0 3,-3 8,-2 4,0 8,3 12,8 0,1 1,2 3,2z"/>
     </g>
     <path class="fil13" d="M2779 1632c-12,7 -15,10 -20,13 2,10 18,16 22,15 -10,-6 -11,-13 -11,-13l9 -15z"/>
     <path class="fil5" d="M2856 1622c-8,12 -7,28 2,34 9,6 24,1 32,-12 8,-12 8,-27 -2,-34 -9,-6 -23,-1 -32,12z"/>
     <g>
      <path class="fil13" d="M2865 1646c0,0 0,0 1,-1 1,0 2,-2 2,-3 -2,-5 -2,-9 0,-11 3,-4 10,-5 15,-5 2,0 3,-1 3,-2 1,-2 -1,-3 -2,-3 -7,-1 -16,0 -20,6 -3,3 -5,8 -2,17 1,1 2,2 3,2z"/>
     </g>
     <path class="fil2" d="M2813 1674c2,-2 0,-4 -2,-4 -6,1 -16,2 -26,2 -10,0 -20,0 -26,-1 -2,0 -4,2 -2,4 4,6 14,15 28,15 15,-1 24,-10 28,-16z"/>
     <path class="fil12" d="M2900 1569l-97 -81 -109 53 12 78c3,-36 25,-24 37,-34 12,-11 17,-27 44,-12 0,0 22,-15 33,7 8,17 20,14 32,15 14,1 11,15 19,14l29 -40z"/>
    </g>
    <g>
     <g>
      <path class="fil14" d="M3227 1384c19,59 -13,121 -71,140 -59,18 -121,-14 -139,-72 -19,-58 13,-120 71,-139 58,-19 120,13 139,71z"/>
     </g>
     <g>
      <g>
       <path class="fil2" d="M3065 1400c10,-3 20,2 24,12 3,10 -3,20 -12,23 -10,4 -21,-2 -24,-12 -3,-9 2,-20 12,-23z"/>
       <path class="fil2" d="M3155 1371c10,-3 21,2 24,12 3,10 -2,20 -12,23 -10,4 -21,-2 -24,-12 -3,-9 3,-20 12,-23z"/>
      </g>
     </g>
     <g>
      <path class="fil2" d="M3086 1461c-1,0 -2,0 -3,1 -4,2 -5,7 -2,9 12,13 36,17 58,10 21,-6 37,-22 41,-40 1,-4 -3,-6 -7,-6 -5,0 -9,2 -10,6 -2,12 -13,23 -28,28 -15,5 -32,2 -41,-7 -2,-2 -5,-3 -8,-1z"/>
     </g>
    </g>
    <path class="fil5" d="M3127 1529c-6,-2 -9,-3 -10,-12 -1,-8 0,-19 -7,-16 -7,4 -12,21 -11,28 8,4 28,0 28,0z"/>
   </g>
   <g>
    <g>
     <g>
      <g>
       <g>
        <g>
         <path class="fil5" d="M1426 1532c-10,6 -23,10 -26,21l-29 -9c1,-37 35,-70 39,-73 10,-7 14,-11 15,-10 2,1 10,8 -4,19 -18,14 4,22 34,-16 8,-10 29,-16 27,-5 -3,12 -13,43 -56,73z"/>
        </g>
       </g>
      </g>
     </g>
    </g>
    <path class="fil6" d="M1125 2782c31,42 108,16 106,73 -117,-1 -166,0 -166,0 0,-13 3,-44 5,-56l55 -17z"/>
    <path class="fil6" d="M950 2783c32,42 108,16 106,73 -117,-1 -166,0 -166,0 1,-13 3,-44 6,-56l54 -17z"/>
    <path class="fil15" d="M1179 2145c0,0 19,267 11,327 -7,59 -35,135 -32,332 -38,9 -93,0 -93,0 0,0 -8,-222 32,-322 -16,-96 -69,-317 -69,-317l151 -20z"/>
    <path class="fil12" d="M1107 2152c0,0 -38,300 -57,357 -19,57 -41,99 -75,293 -39,2 -93,6 -93,6 0,0 8,-245 69,-301 2,-98 -9,-353 -9,-353l165 -2z"/>
    <path class="fil15" d="M1152 1749c0,0 5,-3 153,-38 0,0 0,0 0,0 0,0 56,41 56,41 -36,47 -197,96 -197,96l-12 -99c0,0 0,0 0,0z"/>
    <polygon class="fil4" points="1084,1747 1031,1742 980,1757 1037,1816 "/>
    <path class="fil5" d="M1066 1774c-22,18 -46,22 -72,7l-7 -71 74 -6 5 70z"/>
    <path class="fil4" d="M966 1785l16 -6 -2 -22 43 35 12 2 12 -5 37 -42 2 22 14 3 50 8 6 278 19 94c-66,22 -140,28 -213,18l2 -95 -52 -271 54 -19z"/>
    <polygon class="fil12" points="1045,1822 1076,2033 1059,2058 1036,2040 1029,1823 "/>
    <polygon class="fil12" points="1047,1797 1035,1794 1024,1799 1029,1824 1045,1822 "/>
    <g>
     <path class="fil12" d="M1084 1747l8 258 34 165c0,0 65,4 98,-28l-41 -133 -31 -260 -68 -2z"/>
     <polygon class="fil16" points="1084,1747 1092,2002 1131,1808 "/>
    </g>
    <g>
     <path class="fil12" d="M976 1765l68 415c0,0 -108,11 -146,-9l25 -125 -13 -247 66 -34z"/>
     <polygon class="fil16" points="976,1765 1016,2009 943,1825 "/>
    </g>
    <g>
     <path class="fil4" d="M966 2409l-218 0c-4,0 -8,-4 -8,-9l0 -124c0,-5 4,-8 8,-8l218 0c5,0 9,3 9,8l0 124c0,5 -4,9 -9,9z"/>
     <path class="fil16" d="M965 2289c0,7 -6,12 -12,12 -7,0 -13,-5 -13,-12 0,-7 6,-13 13,-13 6,0 12,6 12,13z"/>
     <path class="fil16" d="M949 2312c2,-3 6,-4 9,-1 2,2 3,6 1,8 -2,3 -6,4 -9,2 -3,-3 -3,-7 -1,-9z"/>
    </g>
    <path class="fil15" d="M1414 1548c-23,-8 -35,-12 -53,-12 -42,127 -73,175 -60,212 10,30 44,28 60,5 22,-30 41,-144 53,-205z"/>
    <g>
     <path class="fil5" d="M843 2223l-1 30c0,0 22,0 22,14l-20 1c0,0 -12,16 5,47 7,31 -15,18 -17,28 -2,15 -31,-11 -36,-41 -6,-40 2,-44 2,-44l9 -31 36 -4z"/>
    </g>
    <path class="fil15" d="M910 1799c-35,3 -137,210 -137,210l21 231 57 -9 17 -196 56 -111 -14 -125z"/>
    <g>
     <g>
      <g>
       <path class="fil5" d="M951 1661c21,52 71,81 111,64 41,-16 57,-71 37,-123 -21,-52 -71,-81 -112,-64 -40,16 -57,71 -36,123z"/>
       <path class="fil6" d="M1081 1619c2,3 7,4 11,2 3,-2 4,-7 1,-11 -2,-3 -7,-4 -10,-2 -4,3 -5,8 -2,11z"/>
       <path class="fil6" d="M1024 1642c2,4 7,5 11,2 4,-2 5,-7 2,-11 -2,-4 -7,-5 -11,-2 -4,2 -5,8 -2,11z"/>
       <path class="fil13" d="M1068 1629c10,9 23,18 23,18 0,0 0,13 -14,18 5,-5 10,-11 4,-18 -5,-8 -13,-18 -13,-18z"/>
       <g>
        <path class="fil12" d="M1009 1637c1,0 3,-1 3,-3 0,0 3,-10 12,-10 2,0 3,-2 3,-4 0,-2 -1,-4 -3,-4 -12,1 -18,11 -19,17 -1,2 1,4 3,4 0,0 0,0 1,0z"/>
       </g>
       <g>
        <path class="fil12" d="M1073 1603c1,0 2,-1 3,-2 0,0 2,-3 5,-4 3,0 5,1 8,3 2,1 4,1 5,0 1,-2 1,-4 -1,-5 -4,-3 -9,-5 -13,-4 -6,1 -10,7 -10,7 -1,2 0,4 1,4 1,1 1,1 2,1z"/>
       </g>
       <path class="fil12" d="M963 1657c0,-20 18,-16 20,-42 2,-27 4,-47 30,-43 25,4 33,1 41,-8 8,-8 40,28 40,28 0,0 28,-39 1,-60 -30,-24 -36,-5 -63,-22 -28,-16 -67,-5 -75,12 -8,17 -10,30 -33,42 -24,12 -36,33 -14,58 22,26 -14,44 23,68 15,9 35,11 39,6 5,-7 -9,-26 -9,-39z"/>
       <path class="fil12" d="M1106 1626c0,0 2,30 -2,40 -5,-12 -15,0 -24,2 -22,3 -61,-5 -65,28 -27,9 -52,-49 -52,-49 -4,67 45,101 113,90 44,-7 49,-69 30,-111z"/>
       <path class="fil2" d="M1093 1685c1,-2 0,-4 -2,-4 -6,1 -15,3 -23,4 -9,0 -18,0 -23,0 -2,0 -3,3 -2,4 4,5 13,13 26,11 13,-1 21,-10 24,-15z"/>
       <g>
        <path class="fil5" d="M964 1650c13,6 19,19 14,29 -5,10 -19,14 -31,8 -12,-6 -18,-19 -13,-29 4,-10 18,-13 30,-8z"/>
        <g>
         <path class="fil13" d="M965 1680c0,-1 0,-1 0,-2 3,-6 2,-12 -2,-16 -5,-4 -12,-5 -17,-2 -1,1 -2,3 -1,4 1,2 3,2 4,1 3,-1 7,-1 10,2 2,2 3,5 1,9 -1,2 0,3 1,4 1,0 3,0 4,0z"/>
        </g>
       </g>
      </g>
     </g>
    </g>
    <path class="fil2" d="M1035 1794c0,0 -11,19 -32,31l-32 -52 9 -16 55 37z"/>
    <path class="fil2" d="M1035 1794c0,0 20,19 38,25l22 -58 -11 -14 -49 47z"/>
   </g>
   <g>
    <path class="fil13" d="M522 1781c51,13 138,132 146,221 -28,5 -60,-17 -60,-17l-69 -99 -17 -105z"/>
    <path class="fil15" d="M473 1524c-23,-38 -84,-57 -106,-14 -22,43 -28,74 -82,50 -44,-19 -102,8 -121,71 -24,82 42,67 17,103 -25,36 -45,74 13,93 57,18 117,-17 129,-85 13,-68 48,-32 70,-61 31,-41 80,-157 80,-157z"/>
    <g>
     <path class="fil5" d="M571 2800l27 -107 -67 -10c-3,51 -6,101 -6,115l46 2z"/>
     <path class="fil5" d="M410 2683l-71 0c3,17 12,108 12,108 6,14 58,11 58,3 -4,-16 1,-109 1,-111z"/>
     <path class="fil11" d="M525 2725l70 10 48 -288c-10,-110 -106,-343 -106,-343l-109 38 -3 103 131 221c-17,43 -29,182 -31,259z"/>
     <path class="fil10" d="M471 2112c-1,-7 -1,-9 -7,-12l-104 -30 -25 25c-23,85 -9,204 10,298 -27,82 -17,250 -6,329l74 0c5,-53 3,-151 4,-198 9,-38 19,-79 27,-122 10,-54 24,-107 27,-156 4,-47 5,-98 0,-134z"/>
    </g>
    <path class="fil5" d="M387 1629c-13,55 12,108 55,119 43,10 89,-26 102,-81 13,-56 -11,-109 -54,-119 -44,-10 -89,26 -103,81z"/>
    <path class="fil5" d="M340 1768c-24,16 -126,148 -73,258 0,1 2,1 2,2 3,2 48,-74 48,-74l54 -107 -31 -79z"/>
    <path class="fil5" d="M392 1698l64 37c0,0 6,26 9,35 6,17 -17,25 -36,14 -19,-11 -31,-25 -31,-25l-6 -61z"/>
    <path class="fil12" d="M550 1649c-14,-5 -21,-27 -27,-45 -31,63 -145,54 -150,41 -10,-72 22,-124 100,-122 106,3 77,126 77,126z"/>
    <path class="fil6" d="M521 1676c1,4 6,6 10,5 4,-1 6,-6 4,-10 -1,-4 -5,-6 -10,-5 -4,2 -6,6 -4,10z"/>
    <path class="fil6" d="M465 1660c1,5 6,7 10,6 5,-2 7,-7 6,-11 -2,-4 -7,-7 -11,-5 -4,1 -7,6 -5,10z"/>
    <g>
     <path class="fil12" d="M542 1661c0,0 0,0 1,0 1,-1 2,-3 1,-4 -7,-11 -18,-11 -19,-11 -1,1 -2,2 -2,4 0,1 1,2 3,2 0,0 8,0 13,8 0,1 2,1 3,1z"/>
    </g>
    <path class="fil13" d="M505 1681c1,6 2,12 4,16 1,2 1,3 -1,4 -6,3 -16,2 -23,1 -1,0 -1,-1 0,-1 8,-2 12,-3 14,-5 1,0 2,-1 2,-3 0,-2 1,-8 1,-12 1,-1 3,-1 3,0z"/>
    <path class="fil5" d="M403 1656c7,11 5,25 -5,31 -9,5 -22,1 -29,-11 -7,-11 -5,-25 4,-31 10,-5 23,-1 30,11z"/>
    <g>
     <path class="fil13" d="M391 1677c1,0 1,0 2,-1 4,-4 5,-10 3,-16 -3,-5 -9,-8 -15,-7 -2,1 -3,2 -2,4 0,1 2,2 3,2 3,-1 7,1 8,4 2,3 1,6 -2,9 -1,1 -1,3 0,4 1,1 2,1 3,1z"/>
    </g>
    <path class="fil8" d="M553 2121c0,0 -27,32 -31,34l-24 -26 -1 1 -5 15 -7 17c-5,0 -172,-37 -172,-37 0,-15 14,-64 37,-116 -5,-44 0,-89 -2,-115 14,-68 4,-94 -8,-126l42 -12 76 27 6 -19c0,0 48,12 58,17l18 76 -4 160c0,0 6,64 17,104z"/>
    <path class="fil7" d="M396 1747l-29 13c3,36 83,57 83,57l8 -34 -62 -36z"/>
    <path class="fil7" d="M458 1783l24 26c0,0 20,-21 13,-34 -7,-13 -34,-22 -34,-22l-3 30z"/>
    <g>
     <path class="fil13" d="M477 1731c-2,0 -4,-1 -6,-1 -13,-5 -19,-17 -19,-18 -1,-1 -1,-3 1,-4 2,-1 4,0 4,1 0,1 6,11 16,14 7,3 15,2 23,-3 2,-1 4,0 5,1 1,2 0,4 -1,5 -9,4 -16,6 -23,5z"/>
    </g>
    <g>
     <path class="fil12" d="M555 2798c7,-18 22,-20 22,-20 29,39 101,15 99,68 -110,-1 -155,0 -155,0 0,-13 2,-41 4,-53l6 1 24 4z"/>
     <path class="fil2" d="M669 2860l-142 0c-4,0 -6,-3 -6,-7l0 -9 155 0 0 9c0,4 -3,7 -7,7z"/>
    </g>
    <g>
     <path class="fil7" d="M497 2130l-5 15c-5,-35 -25,-179 -14,-218 10,-38 -2,-77 -15,-115 -3,-9 -6,-19 -8,-28l3 -1 4 -1c3,9 6,18 9,28 12,39 25,79 15,119 -10,34 5,152 11,201z"/>
    </g>
    <g>
     <path class="fil12" d="M422 2846c0,0 -9,-33 -10,-37 -1,-5 -3,-16 -4,-22 0,-1 -15,-10 -26,-10 -16,0 -30,9 -31,10 -1,11 -1,24 -4,35 -3,8 -9,26 -9,26l84 -2z"/>
     <g>
      <g>
       <g>
        <g>
         <path class="fil2" d="M422 2844c-2,6 -27,-1 -46,-1 -15,0 -35,6 -38,3 -4,7 0,21 0,21 0,0 16,1 35,0 20,-1 42,1 50,-2 6,-9 -1,-21 -1,-21z"/>
        </g>
       </g>
      </g>
     </g>
    </g>
    <g>
     <path class="fil5" d="M454 1919c0,0 -120,121 -177,113 -7,-1 -10,-2 -12,-10 -6,-24 26,-64 57,-78 34,-15 91,-39 91,-39l41 14z"/>
     <path class="fil17" d="M480 1873l55 -42c1,-1 3,-2 4,-1l38 6c1,1 3,7 3,8l-38 23c0,0 -1,0 -1,0l-59 10c-1,0 -3,-3 -2,-4z"/>
     <path class="fil18" d="M482 1878l53 -41c1,-1 3,-1 4,-1l40 7c1,0 1,1 0,2l-37 28c0,0 0,0 -1,0l-58 7c-1,0 -2,-2 -1,-2z"/>
     <path class="fil5" d="M411 1905l32 -15c0,0 19,-22 26,-28 7,-3 23,-9 26,-9 3,0 8,2 8,2l-18 14c0,0 8,4 18,-1 10,-4 30,-16 37,-12 2,3 2,3 2,3 0,0 7,-5 11,-1 12,11 -66,57 -66,57l-33 4 -43 -14z"/>
     <path class="fil17" d="M541 1846c-2,1 -5,1 -6,0 -1,-2 0,-5 2,-6 2,-2 5,-2 6,0 1,2 0,4 -2,6z"/>
    </g>
    <path class="fil13" d="M668 2002c0,0 -70,79 -118,90 -3,-16 -5,-28 -5,-28l65 -86 58 24z"/>
    <path class="fil13" d="M542 2096c0,0 0,-1 1,-1 -1,0 -1,-1 -1,-1 -7,-2 -11,-8 -9,-13 0,0 0,-1 1,-2 -4,-3 -6,-6 -4,-10 0,-1 1,-3 2,-3 -4,-3 -6,-7 -4,-11 1,-5 7,-8 13,-6 6,2 10,8 8,13 -1,1 -1,2 -2,3 6,3 9,8 7,12 0,1 0,2 -1,2 4,3 6,7 4,11 0,1 -1,2 -2,3 4,2 6,6 4,9 -1,4 -6,6 -11,5 -5,-2 -8,-6 -6,-11z"/>
   </g>
   <g>
    <g>
     <polygon class="fil5" points="4481,1694 4481,1694 4445,1695 4437,1778 4479,1800 4523,1778 4515,1695 "/>
     <g>
      <g>
       <path class="fil5" d="M4586 1647c-24,61 -82,94 -130,75 -47,-19 -66,-83 -42,-144 24,-60 82,-94 130,-75 47,19 66,84 42,144z"/>
       <path class="fil6" d="M4435 1598c-3,4 -9,5 -13,2 -4,-2 -5,-8 -2,-12 3,-4 8,-5 12,-2 4,3 5,8 3,12z"/>
       <path class="fil6" d="M4501 1625c-3,5 -9,6 -13,3 -5,-3 -6,-9 -3,-14 3,-4 9,-5 14,-2 4,3 5,9 2,13z"/>
       <path class="fil13" d="M4448 1612c-12,10 -27,21 -27,21 0,0 0,15 17,21 -6,-5 -12,-13 -5,-21 6,-9 15,-21 15,-21z"/>
       <g>
        <path class="fil15" d="M4519 1620c0,0 0,0 1,-1 2,0 4,-3 3,-5 -2,-6 -8,-19 -22,-19 -2,0 -4,2 -4,5 0,2 2,4 4,4 10,0 13,12 13,12 1,2 3,4 5,4z"/>
       </g>
       <g>
        <path class="fil15" d="M4444 1579c0,0 1,0 2,0 1,-1 2,-3 1,-5 0,0 -4,-7 -11,-8 -5,-1 -11,0 -16,5 -1,1 -2,3 0,5 1,1 3,2 5,0 3,-2 6,-4 9,-3 4,1 7,4 7,5 0,1 2,1 3,1z"/>
       </g>
       <path class="fil15" d="M4639 1623c16,-60 -35,-107 -35,-107 0,0 7,0 14,-3 9,-4 6,-18 -4,-18 -13,0 -28,-2 -38,-10 -69,-52 -125,-24 -125,4 0,10 -62,17 -39,95 -2,-4 24,-51 39,-54 15,-3 2,17 33,21 31,4 54,-3 73,15 35,36 1,124 -2,128 6,-10 68,-4 84,-71z"/>
       <g>
        <path class="fil5" d="M4562 1634c-14,8 -20,23 -13,34 6,11 21,13 35,6 13,-8 19,-23 13,-33 -6,-11 -22,-14 -35,-7z"/>
        <g>
         <path class="fil13" d="M4564 1667c-1,0 -1,-1 -1,-1 -4,-7 -3,-14 1,-19 5,-5 13,-6 19,-3 1,1 2,3 1,4 -1,2 -3,3 -4,2 -4,-2 -8,-1 -11,2 -3,3 -3,6 -1,11 1,1 1,3 -1,4 -1,1 -2,1 -3,0z"/>
        </g>
       </g>
       <g>
        <path class="fil13" d="M4459 1685c6,-1 11,-3 16,-6 2,-1 2,-3 2,-4 -1,-2 -3,-2 -4,-1 -13,6 -24,8 -33,5 -12,-3 -17,-13 -17,-13 -1,-2 -3,-2 -4,-2 -2,1 -2,3 -1,4 0,1 6,12 20,17 7,2 14,2 21,0z"/>
       </g>
      </g>
     </g>
    </g>
    <path class="fil6" d="M4416 2787c-31,43 -108,16 -105,75 116,-1 165,0 165,0 0,-14 -3,-45 -5,-58l-55 -17z"/>
    <path class="fil6" d="M4600 2787c-31,43 -108,16 -105,75 116,-1 165,0 165,0 0,-14 -2,-45 -5,-58l-55 -17z"/>
    <path class="fil15" d="M4363 2127c0,0 -34,287 -26,348 8,62 50,131 47,334 38,9 93,0 93,0 0,0 8,-230 -32,-333 16,-99 69,-328 69,-328l-151 -21z"/>
    <path class="fil12" d="M4434 2136c0,0 38,310 57,369 19,59 47,102 81,303 39,2 84,6 84,6 0,0 -5,-254 -66,-312 -2,-101 9,-364 9,-364l-165 -2z"/>
    <g>
     <path class="fil8" d="M4618 1773c0,0 -76,-3 -98,-1 -45,40 -83,-1 -83,-1 -24,-5 -81,-5 -81,-5 -7,96 -19,404 -19,404 0,0 73,20 142,20 70,0 163,-16 163,-16 0,0 -13,-136 -16,-186 1,-56 -8,-141 -8,-215z"/>
    </g>
    <g>
     <g>
      <path class="fil18" d="M4070 1814c2,-5 4,-11 7,-15 26,-47 98,-29 202,-11 18,3 12,-19 15,-65 1,-30 29,-71 61,-64 52,10 -6,41 20,152 13,59 75,39 64,94l-25 124c-4,21 -10,41 -41,38 -29,-2 -27,20 -69,11l-209 -42c-22,-4 -36,-25 -31,-46 1,-9 6,-16 12,-21 -10,-9 -16,-23 -13,-38 2,-9 7,-16 13,-22 -11,-9 -16,-23 -13,-37 2,-11 8,-19 16,-25 -7,-9 -11,-21 -9,-33z"/>
      <path class="fil19" d="M4201 1881l-100 -20c-13,-3 -24,-13 -29,-26 -2,-5 1,-11 6,-13 6,-2 12,1 13,6 3,6 8,11 14,12l103 21c10,2 20,-5 22,-15 2,-10 -5,-20 -15,-22l-68 -13c-6,-2 -10,-7 -8,-13 1,-5 6,-9 12,-8l68 14c21,4 35,25 31,46 -2,12 -10,21 -20,27 6,8 9,19 6,30 -2,11 -10,21 -20,26 6,9 9,19 6,30 -2,13 -11,23 -22,28 5,8 7,18 5,27 -5,22 -25,35 -47,31l-63 -13c-14,-2 -25,-12 -30,-25 -2,-5 1,-11 6,-13 6,-2 12,1 14,6 2,6 7,11 14,12l63 13c11,2 20,-5 22,-15 2,-10 -4,-20 -14,-22l-76 -15c-13,-2 -25,-12 -29,-25 -2,-6 1,-11 6,-13 5,-2 11,1 13,6 2,6 8,11 14,12l82 16c10,2 20,-4 22,-14 2,-10 -4,-20 -15,-22l-93 -19c-14,-3 -25,-12 -30,-25 -2,-6 1,-12 6,-14 6,-1 12,1 14,7 2,6 7,11 14,12l96 19c10,2 20,-4 22,-15 2,-10 -5,-19 -15,-21z"/>
     </g>
     <path class="fil14" d="M4400 2082l65 13c9,2 18,-4 20,-13l39 -194c1,-9 -4,-17 -13,-19l-66 -13c-9,-2 -17,4 -19,13l-39 194c-2,9 4,17 13,19z"/>
    </g>
    <g>
     <g>
      <g>
       <g>
        <g>
         <g>
          <path class="fil5" d="M4344 2106c14,-2 29,-8 40,0l20 -30c-29,-34 -86,-39 -91,-39 -15,1 -22,0 -23,2 -1,2 -3,16 19,15 27,0 12,24 -44,11 -15,-3 -39,7 -29,16 12,9 45,30 108,25z"/>
         </g>
        </g>
       </g>
      </g>
     </g>
     <path class="fil5" d="M4628 2043c21,8 29,76 22,81 -93,30 -271,-19 -271,-19l-13 -34c0,0 140,-3 262,-28z"/>
     <path class="fil5" d="M4674 1844c10,62 -8,264 -24,280l-69 -55c0,0 -7,-204 -7,-239 0,-60 85,-86 100,14z"/>
    </g>
    <path class="fil5" d="M4107 1788c1,-1 2,-2 2,-3 1,0 1,0 1,0 9,9 22,10 28,3 1,-1 1,-2 2,-3 7,3 15,2 19,-2 2,-2 3,-5 3,-7 8,3 16,3 21,-3 6,-6 4,-18 -3,-25 -8,-7 -20,-8 -26,-1 -1,2 -3,4 -3,6 -9,-7 -20,-7 -25,-1 -1,1 -2,2 -3,3 -7,-3 -15,-2 -19,3 -2,1 -3,3 -3,6 -6,-4 -14,-3 -18,1 -5,6 -4,16 3,22 7,6 16,6 21,1z"/>
    <path class="fil7" d="M4628 2043c21,8 29,76 22,81 -93,30 -261,-16 -261,-16l12 -48c0,0 105,8 227,-17z"/>
    <path class="fil7" d="M4676 1843c10,63 2,267 -26,281l-70 -53c0,0 -8,-209 -8,-245 0,-61 87,-86 104,17z"/>
   </g>
   <g>
    <polygon class="fil1" points="291,507 253,569 579,792 "/>
    <polygon class="fil1" points="219,644 239,715 565,782 "/>
    <polygon class="fil20" points="579,792 29,604 219,537 "/>
    <polygon class="fil20" points="291,507 579,792 410,457 "/>
   </g>
   <g>
    <g>
     <path class="fil12" d="M2188 1818c37,-13 117,-53 79,-107 -38,-54 -54,-31 -39,-97 14,-65 -32,-116 -76,-104 -44,13 -56,48 -110,39 -54,-10 -100,40 -80,84 20,44 28,66 9,90 -19,24 -105,49 -70,108 35,59 51,55 39,85 -13,30 15,64 65,60 50,-4 95,-22 114,-78 19,-55 69,-80 69,-80z"/>
     <polygon class="fil5" points="2103,2767 2100,2799 2127,2807 2148,2784 2152,2771 "/>
     <path class="fil5" d="M2187 2126c0,0 40,258 29,369 -10,111 -64,277 -64,277l-49 0c0,0 1,-20 3,-87 2,-84 0,-153 36,-196 -19,-83 -67,-363 -67,-363l112 0z"/>
     <path class="fil5" d="M2138 2170c0,0 -13,238 -52,342 -101,69 -192,102 -253,126 -3,1 -15,-44 -15,-44 68,-45 127,-124 196,-114 -12,-76 -23,-272 -23,-272l147 -38z"/>
     <path class="fil5" d="M2084 1747l0 98c0,0 33,17 61,0 -4,-22 -7,-91 -7,-91l-54 -7z"/>
     <path class="fil21" d="M2026 1800l162 0c0,0 29,65 25,121 -4,56 -11,208 -11,208 0,0 -99,-22 -163,-42 -5,-115 -39,-167 -37,-204 3,-38 24,-83 24,-83z"/>
     <g>
      <path class="fil5" d="M2187 1661c0,55 -33,100 -74,100 -41,0 -74,-45 -74,-100 0,-54 33,-99 74,-99 41,0 74,45 74,99z"/>
      <path class="fil12" d="M2034 1661c41,-5 79,-28 100,-57 14,34 53,57 53,57 0,0 29,-65 -24,-101 -50,-33 -170,-10 -129,101z"/>
      <path class="fil6" d="M2082 1683c-5,0 -8,-4 -8,-8 0,-5 3,-8 8,-8 4,0 8,3 8,8 0,4 -4,8 -8,8z"/>
      <path class="fil6" d="M2144 1683c-4,0 -8,-4 -8,-8 0,-5 4,-8 8,-8 5,0 8,3 8,8 0,4 -3,8 -8,8z"/>
      <g>
       <path class="fil12" d="M2158 1668c-1,0 -2,-1 -3,-2 -2,-4 -4,-5 -7,-6 -5,-1 -9,2 -9,2 -2,1 -4,1 -6,-1 -1,-2 0,-4 1,-5 1,0 8,-5 15,-3 5,1 9,4 12,9 1,2 1,4 -1,5 -1,0 -1,1 -2,1z"/>
      </g>
      <g>
       <path class="fil12" d="M2067 1668c-1,0 -2,0 -2,-1 -2,-1 -2,-4 -1,-5 5,-6 10,-10 16,-10 8,-1 13,4 13,4 2,2 2,4 0,5 -1,2 -3,2 -5,1 0,0 -3,-3 -7,-3 -4,1 -8,3 -11,8 -1,1 -2,1 -3,1z"/>
      </g>
      <path class="fil13" d="M2121 1685c10,7 13,10 17,13 -3,9 -17,13 -21,12 10,-5 11,-11 11,-11l-7 -14z"/>
      <path class="fil5" d="M2050 1669c9,11 9,24 1,31 -8,6 -21,2 -30,-8 -8,-11 -9,-25 -1,-31 8,-6 22,-3 30,8z"/>
      <g>
       <path class="fil13" d="M2043 1692c-1,0 -1,0 -1,0 -2,-1 -2,-2 -2,-3 2,-5 2,-8 0,-11 -2,-3 -8,-5 -13,-4 -1,0 -2,-1 -3,-3 0,-1 2,-2 3,-2 6,-1 14,1 18,7 2,2 3,7 0,15 0,1 -1,1 -2,1z"/>
      </g>
      <path class="fil2" d="M2093 1724c-1,-2 1,-4 3,-4 5,1 13,3 21,4 8,0 16,0 22,0 2,0 3,2 1,4 -4,4 -12,11 -24,10 -13,-1 -19,-9 -23,-14z"/>
     </g>
     <g>
      <path class="fil12" d="M2128 2803c6,-17 20,-19 20,-19 28,37 95,14 93,64 -103,-1 -145,0 -145,0 0,-11 2,-39 4,-49l6 1 22 3z"/>
      <path class="fil15" d="M2235 2861l-133 0c-4,0 -6,-3 -6,-6l0 -8 145 0 0 8c0,3 -3,6 -6,6z"/>
     </g>
     <g>
      <polygon class="fil5" points="1823,2590 1787,2609 1792,2635 1821,2643 1835,2637 "/>
      <path class="fil12" d="M1795 2634c18,-2 26,9 26,9 -19,41 31,88 -13,109 -46,-89 -65,-125 -65,-125 9,-5 34,-15 44,-18l1 5 7 20z"/>
      <path class="fil15" d="M1794 2753l-60 -115c-2,-3 0,-6 2,-8l8 -3 66 124 -8 4c-3,2 -6,1 -8,-2z"/>
     </g>
     <g>
      <g>
       <g>
        <g>
         <path class="fil22" d="M2030 2411c-30,-6 -59,-6 -76,-5 11,-36 8,-256 75,-332l170 0c60,104 38,256 75,319 -15,7 -55,25 -109,30 -58,6 -85,-3 -135,-12z"/>
        </g>
       </g>
      </g>
     </g>
     <path class="fil10" d="M2084 1800l-41 -4c0,0 -51,-108 -71,-143 -13,-56 6,-204 6,-204l-59 -14c0,0 -28,181 -18,232 2,13 76,171 76,171 0,0 25,45 -9,267 48,12 82,13 82,13l34 -318z"/>
     <path class="fil10" d="M2140 1800l32 318c0,0 14,5 69,-11 -27,-133 -19,-215 -15,-240 1,-6 2,-11 5,-15 11,-22 49,-95 83,-191 -2,-44 -34,-226 -34,-226l-56 -3 17 214c0,0 -60,131 -67,153l-34 1z"/>
    </g>
    <path class="fil14" d="M2509 1459l-805 0c-46,0 -84,-38 -84,-84l0 -164c0,-47 38,-85 84,-85l805 0c47,0 84,38 84,85l0 164c0,46 -37,84 -84,84z"/>
    <g>
     <path class="fil18" d="M1785 1369l-43 -26 -44 25c-4,3 -9,-1 -8,-6l11 -49 -37 -33c-4,-3 -2,-9 3,-10l50 -4 20 -47c2,-4 8,-4 10,0l20 47 50 4c5,1 7,7 3,10l-38 33 11 50c1,4 -4,8 -8,6z"/>
     <path class="fil18" d="M1967 1369l-43 -26 -43 25c-4,3 -10,-1 -8,-6l11 -49 -38 -33c-4,-3 -2,-9 3,-10l50 -4 20 -47c2,-4 9,-4 11,0l19 47 51 4c4,1 6,7 3,10l-38 33 11 50c1,4 -4,8 -9,6z"/>
     <path class="fil18" d="M2150 1369l-43 -26 -44 25c-4,3 -9,-1 -8,-6l11 -49 -38 -33c-3,-3 -1,-9 4,-10l50 -4 20 -47c2,-4 8,-4 10,0l20 47 50 4c5,1 7,7 3,10l-38 33 11 50c1,4 -4,8 -8,6z"/>
     <path class="fil18" d="M2332 1369l-43 -26 -43 25c-5,3 -10,-1 -9,-6l12 -49 -38 -33c-4,-3 -2,-9 3,-10l50 -4 20 -47c2,-4 8,-4 10,0l20 47 50 4c5,1 7,7 4,10l-39 33 12 50c1,4 -5,8 -9,6z"/>
     <path class="fil18" d="M2515 1369l-44 -26 -43 25c-4,3 -9,-1 -8,-6l11 -49 -38 -33c-4,-3 -2,-9 3,-10l51 -4 20 -47c1,-4 8,-4 10,0l20 47 50 4c5,1 7,7 3,10l-38 33 11 50c1,4 -4,8 -8,6z"/>
    </g>
   </g>
   <g>
    <path class="fil14" d="M749 1062l-392 0c-47,0 -84,37 -84,84l0 157c0,47 37,84 84,84l270 0 -9 176c-1,14 17,18 23,6l83 -182 25 0c46,0 84,-37 84,-84l0 -157c0,-47 -38,-84 -84,-84z"/>
    <path class="fil2" d="M760 1174l-408 0c-16,0 -29,-12 -29,-28 0,-16 13,-29 29,-29l408 0c15,0 28,13 28,29 0,16 -13,28 -28,28z"/>
    <path class="fil2" d="M760 1259l-408 0c-16,0 -29,-12 -29,-28 0,-16 13,-29 29,-29l408 0c15,0 28,13 28,29 0,16 -13,28 -28,28z"/>
    <path class="fil2" d="M764 1344l-282 0c-13,0 -24,-10 -24,-24l0 -9c0,-13 11,-24 24,-24l282 0c13,0 24,11 24,24l0 9c0,14 -11,24 -24,24z"/>
   </g>
   <g>
    <g>
     <path class="fil12" d="M3812 1544c-62,-23 -193,17 -177,251 17,234 185,216 185,216 0,0 79,-17 98,-163 20,-146 -2,-264 -106,-304z"/>
     <g>
      <path class="fil5" d="M3573 1764c-5,15 -52,23 -55,19 -25,-64 1,-188 1,-188l23 -11c0,0 8,97 31,180z"/>
      <path class="fil5" d="M3689 1888c-44,-14 -167,-92 -172,-107l51 -28c0,0 140,62 163,74 39,19 28,83 -42,61z"/>
      <g>
       <g>
        <g>
         <g>
          <g>
           <path class="fil5" d="M3491 1593c10,3 23,1 29,10l22 -19c-14,-32 -55,-48 -59,-49 -11,-2 -17,-4 -18,-3 -1,1 -5,11 11,16 20,5 4,20 -35,-2 -10,-6 -31,-4 -25,5 7,10 27,32 75,42z"/>
          </g>
         </g>
        </g>
       </g>
      </g>
     </g>
     <g>
      <g>
       <g>
        <polygon class="fil5" points="3723,1797 3782,1786 3804,1815 3757,1911 3689,1852 "/>
       </g>
      </g>
     </g>
     <g>
      <g>
       <g>
        <path class="fil10" d="M3652 2022c0,-37 -32,-93 -17,-130 11,-30 30,-81 53,-89 11,-4 23,-8 37,-11l-2 5c0,7 1,20 12,21 31,2 47,-37 47,-37 17,-1 92,24 92,30 0,48 -39,120 -52,172 -5,57 7,87 7,94 0,0 -108,36 -180,-4 0,0 3,-26 3,-51z"/>
       </g>
      </g>
     </g>
     <g>
      <g>
       <g>
        <path class="fil5" d="M3738 1749l48 -7 -4 44c0,0 -20,28 -31,29l-28 -18 15 -48z"/>
       </g>
      </g>
     </g>
     <g>
      <path class="fil5" d="M3829 1685c-12,52 -54,85 -94,76 -41,-10 -63,-59 -51,-110 12,-52 55,-85 95,-76 40,10 63,59 50,110z"/>
      <path class="fil6" d="M3703 1664c-2,4 -6,5 -10,3 -3,-2 -5,-6 -3,-9 2,-4 6,-5 10,-4 3,2 5,6 3,10z"/>
      <path class="fil6" d="M3759 1678c-2,4 -6,5 -10,3 -4,-2 -6,-6 -4,-10 2,-4 7,-5 11,-4 4,2 5,7 3,11z"/>
      <g>
       <path class="fil12" d="M3768 1671c-1,0 -1,0 -1,-1 -4,-8 -15,-10 -15,-10 -1,0 -2,-1 -2,-3 0,-1 1,-2 3,-2 0,0 13,2 18,13 1,1 1,3 -1,3 -1,1 -1,1 -2,0z"/>
      </g>
      <g>
       <path class="fil12" d="M3687 1654c0,-1 0,-1 -1,-1 -1,-1 -1,-3 0,-4 9,-8 19,-5 19,-4 2,0 2,2 2,3 -1,1 -2,2 -3,2 -1,0 -8,-3 -14,3 -1,1 -2,1 -3,1z"/>
      </g>
      <path class="fil13" d="M3707 1680c-4,4 -7,8 -11,10 -1,1 -1,3 -1,4 3,5 12,10 18,12 0,0 1,-1 0,-1 -5,-5 -7,-9 -8,-10 -1,-1 -1,-3 0,-4 1,-2 3,-6 5,-10 0,-1 -2,-2 -3,-1z"/>
      <path class="fil5" d="M3810 1686c-10,7 -13,20 -6,28 6,8 19,8 29,1 9,-8 12,-21 6,-29 -6,-8 -19,-8 -29,0z"/>
      <g>
       <path class="fil13" d="M3816 1712c-1,-1 -1,-1 -1,-1 -4,-5 -4,-11 -1,-15 3,-5 9,-7 14,-5 1,0 2,2 2,3 -1,2 -2,3 -4,2 -2,-1 -6,0 -8,3 -2,2 -1,5 1,9 1,1 1,2 0,3 -1,1 -2,1 -3,1z"/>
      </g>
      <path class="fil2" d="M3752 1720c1,-1 0,-3 -2,-3 -5,1 -13,1 -20,1 -8,0 -16,0 -21,-1 -2,0 -3,2 -2,3 4,5 11,12 23,12 11,0 18,-7 22,-12z"/>
     </g>
     <path class="fil12" d="M3830 1681c-48,-7 -115,-55 -120,-81 9,-30 59,-45 86,-31 28,14 55,74 34,112z"/>
     <g>
      <path class="fil5" d="M3694 2746c3,-32 -13,-273 -13,-273 -47,-212 -29,-363 -29,-363l80 5 31 120 -15 200c0,0 6,15 9,28 16,67 0,146 -10,200 -4,24 -11,76 -12,88l20 26c0,0 -72,80 -83,80 -22,1 -15,-20 -15,-20 29,-31 36,-82 37,-91z"/>
      <path class="fil15" d="M3757 2805l-4 51 -10 1 -4 -48c-25,6 -43,51 -43,51 -16,6 -60,10 -75,2 -4,-15 36,-25 36,-25 3,4 24,7 32,3 27,-24 40,-58 46,-89 0,0 44,3 22,54z"/>
     </g>
     <g>
      <path class="fil5" d="M3721 2125l112 -15c42,96 56,265 68,325 47,79 61,316 61,316l20 26c0,0 -72,80 -83,80 -22,1 -15,-20 -15,-20 29,-31 35,-71 37,-80 3,-14 -90,-277 -90,-277l-10 -25c-115,-189 -133,-331 -133,-331l33 1z"/>
      <path class="fil15" d="M3984 2805l-4 51 -10 1 -4 -48c-25,6 -42,51 -42,51 -17,6 -60,10 -76,2 -3,-15 36,-25 36,-25 3,4 24,7 32,3 27,-24 41,-58 46,-89 0,0 44,3 22,54z"/>
     </g>
     <g>
      <g>
       <g>
        <g>
         <path class="fil10" d="M3929 2424c-11,-37 -7,-301 -106,-374l-169 14c-39,64 -25,229 -12,365 80,29 144,40 287,-5z"/>
        </g>
       </g>
      </g>
     </g>
     <g>
      <g>
       <g>
        <g>
         <g>
          <g>
           <path class="fil5" d="M3441 1821c11,1 23,-3 31,5l18 -21c-18,-30 -61,-40 -65,-40 -12,-1 -17,-2 -18,-1 -1,2 -4,12 13,14 21,3 7,19 -36,3 -10,-4 -30,2 -23,9 8,9 31,28 80,31z"/>
          </g>
         </g>
        </g>
       </g>
      </g>
      <g>
       <path class="fil5" d="M3659 1885c10,15 -13,62 -19,63 -74,-19 -171,-124 -171,-124l6 -28c0,0 93,55 184,89z"/>
       <path class="fil5" d="M3859 1887c-45,25 -203,67 -220,60l16 -63c0,0 159,-68 186,-79 46,-17 91,41 18,82z"/>
      </g>
     </g>
    </g>
    <g>
     <path class="fil21" d="M3281 982c18,-93 101,-63 114,-13 19,55 -26,167 -31,161 -251,-29 -174,-194 -83,-148z"/>
    </g>
    <g>
     <path class="fil21" d="M3577 1207c61,-17 68,42 42,65 -27,27 -108,34 -106,29 -57,-159 65,-162 64,-94z"/>
    </g>
    <g>
     <path class="fil12" d="M3458 1766c-1,0 -2,0 -3,0 -9,-5 -23,-12 -39,-22 -3,-3 -4,-7 -2,-11 2,-3 7,-4 10,-2 16,10 29,17 38,21 3,2 5,6 3,10 -1,3 -4,4 -7,4zm-73 -47l0 0c-1,0 -3,-1 -5,-2 -11,-10 -22,-21 -31,-32 -3,-3 -2,-8 1,-10 3,-3 8,-3 11,1 8,10 18,20 29,30 4,2 4,7 1,10 -1,2 -3,3 -6,3zm-54 -67l0 0c-3,0 -6,-1 -7,-4 -6,-12 -11,-24 -14,-36 -1,-3 -2,-5 -2,-7 -1,-4 2,-8 7,-9 4,0 8,2 8,7 1,1 1,3 1,5 3,11 8,22 13,33 2,4 1,8 -3,10 -1,1 -2,1 -3,1zm-5 -82l0 0c-1,0 -3,0 -4,-1 -4,-2 -5,-7 -2,-11 7,-10 18,-20 33,-31 3,-3 8,-2 10,1 3,4 2,8 -1,11 -14,10 -23,19 -30,28 -1,2 -4,3 -6,3zm68 -53l0 0c-3,0 -5,-2 -7,-4 -2,-4 -1,-8 3,-11 5,-3 10,-6 15,-8 7,-5 15,-9 22,-14 4,-2 9,-1 11,3 2,3 1,8 -3,10 -7,5 -15,9 -22,14 -5,3 -10,6 -15,9 -2,0 -3,1 -4,1zm73 -47l0 0c-2,0 -4,-1 -6,-3 -2,-3 -2,-8 2,-11 12,-10 22,-19 28,-29 2,-3 7,-4 11,-2 3,2 4,7 2,10 -7,12 -18,22 -32,33 -1,1 -3,2 -5,2zm41 -72l0 0c-4,0 -7,-3 -8,-7 0,-9 -4,-19 -9,-29 -2,-2 -3,-5 -5,-8 -2,-4 -1,-8 3,-11 3,-2 8,-1 10,3 2,3 4,6 5,9 7,12 11,23 12,34 0,5 -3,8 -7,9 0,0 -1,0 -1,0zm-142 -6l0 0c-2,0 -4,0 -7,0 -26,-3 -33,-17 -35,-25 -1,-4 2,-8 6,-9 4,-1 8,1 9,6 2,9 13,12 22,12 2,1 3,1 5,1l1 0c4,0 8,3 8,7 0,4 -4,8 -8,8l-1 0zm38 -19l0 0c-2,0 -3,-1 -5,-2 -3,-2 -4,-7 -2,-11 7,-9 11,-21 13,-37 1,-4 4,-7 9,-7 4,1 7,5 6,9 -2,18 -7,33 -15,44 -1,2 -4,4 -6,4zm-57 -39l0 0c-2,0 -4,-1 -5,-2 -3,-3 -3,-8 0,-11 10,-11 24,-20 39,-26 3,-1 8,1 9,5 2,4 0,8 -4,10 -13,4 -24,12 -33,22 -2,1 -4,2 -6,2zm118 -10l0 0c-2,0 -4,0 -5,-1 -11,-9 -23,-15 -35,-17 -5,-1 -7,-5 -7,-9 1,-4 5,-7 9,-6 15,2 30,9 43,20 3,3 3,7 1,11 -2,1 -4,2 -6,2zm-47 -36l0 0c-4,0 -7,-3 -7,-7 -1,-13 -3,-28 -7,-42 0,-4 2,-8 6,-9 4,-1 8,2 9,6 4,15 6,30 7,44 0,4 -3,8 -7,8 0,0 0,0 -1,0zm-19 -84l0 0c-3,0 -6,-2 -7,-5 -6,-16 -13,-28 -20,-35 -3,-3 -3,-8 0,-11 3,-3 8,-3 11,0 8,8 16,22 23,40 2,4 0,9 -4,10 -1,0 -2,1 -3,1z"/>
    </g>
   </g>
   <g>
    <g>
     <path class="fil14" d="M1664 970c-15,76 -89,125 -165,110 -76,-15 -125,-89 -110,-166 15,-76 89,-125 165,-110 76,15 126,90 110,166z"/>
    </g>
    <g>
     <g>
      <path class="fil2" d="M1475 887c13,2 21,15 19,27 -3,13 -15,22 -28,19 -13,-3 -21,-15 -19,-28 3,-13 15,-21 28,-18z"/>
      <path class="fil2" d="M1593 910c13,3 21,15 19,28 -3,13 -15,21 -28,19 -13,-3 -21,-15 -19,-28 3,-13 15,-21 28,-19z"/>
     </g>
    </g>
    <g>
     <path class="fil2" d="M1460 967c-1,-1 -2,-1 -4,-1 -5,1 -9,5 -8,9 6,23 30,42 58,48 28,5 56,-2 71,-20 3,-3 1,-8 -4,-11 -5,-3 -11,-2 -14,1 -11,12 -30,18 -49,14 -20,-4 -37,-18 -41,-33 -1,-4 -4,-7 -9,-7z"/>
    </g>
   </g>
   <g>
    <path class="fil12" d="M1444 1451c-3,0 -6,-1 -7,-4 -2,-3 -1,-8 3,-10 7,-4 11,-8 11,-11 0,-1 -1,-5 -8,-11 -4,-2 -4,-7 -2,-10 3,-4 8,-4 11,-2 10,8 15,15 15,23 0,9 -7,17 -20,24 -1,1 -2,1 -3,1zm-37 -56l0 0c-1,0 -2,0 -3,0 -12,-5 -25,-10 -43,-17 -4,-1 -6,-6 -4,-10 1,-4 5,-6 9,-4 18,6 32,12 44,17 4,1 5,6 4,10 -1,3 -4,4 -7,4zm-87 -32l0 0c0,0 -1,0 -2,0l-3 -1c-10,-4 -20,-7 -30,-10 -4,-2 -7,-3 -11,-5 -4,-1 -6,-6 -4,-10 2,-4 6,-5 10,-4 3,2 7,3 10,4 10,4 20,7 30,10l3 2c4,1 6,5 5,9 -1,3 -4,5 -8,5zm-82 -38l0 0c-2,0 -4,0 -5,-2 -14,-10 -25,-23 -32,-36 -3,-4 -1,-8 2,-10 4,-3 9,-1 11,2 6,12 16,23 28,32 4,3 4,8 2,11 -2,2 -4,3 -6,3zm-40 -78l0 0c0,0 0,0 -1,0 -4,-1 -7,-5 -6,-9 3,-17 13,-31 30,-41 3,-3 8,-2 10,2 2,4 1,8 -2,11 -13,7 -21,18 -23,31 -1,3 -4,6 -8,6zm70 -51l0 0c-4,0 -7,-3 -8,-6 0,-5 3,-8 7,-9 1,0 3,-1 5,-1 12,-1 26,-2 42,-2 4,-1 7,3 7,7 1,4 -3,8 -7,8 -15,0 -28,1 -41,2 -1,1 -2,1 -4,1 0,0 -1,0 -1,0zm138 -2l0 0c0,0 0,0 0,0 -11,0 -21,0 -32,-1 -5,0 -10,0 -14,0 -5,0 -8,-4 -8,-8 0,-4 4,-7 8,-7 5,0 10,0 14,0 11,0 22,1 32,1 4,0 7,3 7,8 0,4 -3,7 -7,7zm46 -1l0 0c-4,0 -8,-3 -8,-7 0,-4 3,-8 7,-9 18,-1 31,-5 41,-10 4,-2 9,-1 11,3 2,4 0,8 -4,10 -11,7 -27,11 -47,13 0,0 0,0 0,0zm69 -48l0 0c0,0 -1,0 -1,0 -4,0 -7,-4 -7,-9 1,-2 1,-5 1,-8 0,-2 0,-3 0,-5 0,-4 3,-7 7,-8 4,0 8,3 8,8 0,1 0,3 0,5 0,3 0,7 -1,11 0,3 -3,6 -7,6z"/>
   </g>
   <path class="fil1" d="M4166 1424l-37 -52 -63 8c-6,1 -10,-6 -6,-11l38 -51 -27 -57c-3,-6 2,-12 8,-10l60 20 47 -43c4,-4 12,-1 11,5l0 64 55 30c6,3 5,11 -1,13l-61 19 -12 62c-1,6 -9,8 -12,3z"/>
   <path class="fil1" d="M161 2292l-29 -40 -49 6c-5,0 -8,-5 -5,-9l29 -40 -21 -46c-2,-4 2,-9 7,-7l47 16 37 -34c4,-4 9,-1 9,4l0 50 44 24c4,2 3,9 -1,10l-48 15 -10 49c-1,5 -7,6 -10,2z"/>
   <path class="fil1" d="M1123 1007l-63 -6 -35 53c-3,5 -11,4 -13,-2l-13 -62 -61 -17c-6,-2 -7,-10 -2,-13l54 -32 -2 -64c0,-6 7,-9 12,-5l47 42 60 -22c5,-2 11,4 8,9l-25 58 39 50c4,5 0,12 -6,11z"/>
   <path class="fil20" d="M1455 175l-37 -38 -51 15c-5,1 -10,-4 -7,-8l25 -48 -30 -44c-3,-4 0,-10 5,-9l53 9 33 -42c3,-4 9,-3 10,3l8 52 50 18c5,2 6,9 1,11l-48 24 -2 53c0,5 -6,8 -10,4z"/>
   <path class="fil1" d="M3638 955l-53 -4 -28 45c-3,5 -10,4 -11,-1l-13 -52 -52 -13c-5,-2 -6,-8 -1,-11l45 -28 -3 -54c-1,-5 5,-8 9,-5l41 35 50 -20c5,-2 9,3 7,8l-20 49 34 41c4,4 1,10 -5,10z"/>
   <g>
    <path class="fil20" d="M3597 104c64,-36 88,28 64,61 -22,39 -112,68 -111,62 -107,-163 29,-200 47,-123z"/>
   </g>
   <g>
    <path class="fil1" d="M1742 1914c65,-35 88,29 65,62 -23,38 -112,67 -112,61 -107,-163 30,-199 47,-123z"/>
   </g>
   <g>
    <path class="fil1" d="M2262 926c13,-66 72,-44 81,-9 13,38 -19,118 -22,114 -177,-21 -122,-138 -59,-105z"/>
   </g>
   <g>
    <g>
     <path class="fil1" d="M1546 2428l-129 41c-16,6 -35,-4 -40,-20l-41 -129c-6,-17 4,-35 20,-40l31 -10c7,-3 15,1 17,9 3,7 -1,14 -9,17l-30 10c-3,0 -4,3 -3,5l41 129c1,3 4,4 6,3l129 -41c2,-1 3,-4 3,-6l-42 -129c0,-2 -3,-3 -5,-3l-30 10c-7,2 -15,-2 -17,-9 -2,-7 2,-15 9,-17l29 -10c17,-5 35,4 40,21l42 129c5,16 -4,35 -21,40z"/>
    </g>
    <path class="fil1" d="M1446 2196l-50 -33c-4,-3 -8,-3 -12,-2 -4,1 -7,5 -9,9l-17 55c-2,7 2,15 9,17 3,1 6,1 8,0 4,-1 8,-5 9,-9l6 -17 48 151c2,7 10,11 17,9 8,-3 12,-10 9,-17l-48 -150 15 10c6,4 15,2 19,-4 4,-6 2,-15 -4,-19z"/>
   </g>
   <path class="fil2" d="M2443 2601c0,35 -29,64 -64,64 -36,0 -65,-29 -65,-64 0,-36 29,-65 65,-65 35,0 64,29 64,65z"/>
   <path class="fil2" d="M3041 140c0,29 -23,52 -52,52 -29,0 -53,-23 -53,-52 0,-29 24,-53 53,-53 29,0 52,24 52,53z"/>
   <g>
    <path class="fil2" d="M2473 2536c-26,0 -47,-22 -47,-48 0,-26 21,-47 47,-47 26,0 48,21 48,47 0,26 -22,48 -48,48zm0 -77l0 0c-16,0 -29,13 -29,29 0,16 13,29 29,29 16,0 29,-13 29,-29 0,-16 -13,-29 -29,-29z"/>
   </g>
   <g>
    <path class="fil1" d="M4350 1070c-43,0 -78,-35 -78,-78 0,-42 35,-77 78,-77 42,0 77,35 77,77 0,43 -35,78 -77,78zm0 -125l0 0c-27,0 -48,21 -48,47 0,27 21,48 48,48 26,0 48,-21 48,-48 0,-26 -22,-47 -48,-47z"/>
   </g>
   <g>
    <path class="fil2" d="M786 877c-41,0 -76,-27 -86,-66l-106 -412c-5,-22 -2,-46 10,-66 12,-20 31,-35 54,-40l187 -48c7,-2 15,-3 22,-3 40,0 75,27 85,66 6,22 2,46 -10,66 -12,20 -31,35 -53,40l-96 25 13 49 73 -18c7,-2 15,-3 22,-3 40,0 75,27 85,66 12,47 -16,94 -63,106l-74 19 28 108c6,23 2,47 -11,67 -13,20 -32,35 -56,41 -8,2 -16,3 -24,3z"/>
    <path class="fil10" d="M812 636l35 138c8,30 -11,62 -45,70 -33,8 -65,-10 -73,-40l-105 -412c-8,-31 11,-62 41,-70l188 -48c30,-8 62,11 69,41 8,31 -11,62 -41,70l-125 32 28 109 103 -27c30,-7 62,11 69,41 8,31 -11,62 -41,70l-103 26z"/>
    <path class="fil2" d="M1173 786c-44,0 -81,-32 -87,-75l-60 -414c-7,-48 27,-92 75,-99l199 -29c4,0 8,-1 12,-1 44,0 81,33 87,75 3,24 -2,47 -17,65 -14,19 -34,31 -57,35l-105 15 4 32 83 -12c4,-1 8,-1 12,-1 44,0 81,32 87,75 7,48 -26,92 -74,99l-83 12 5 35 113 -16c4,-1 8,-1 12,-1 44,0 81,32 87,75 7,48 -26,92 -74,99l-207 30c-4,1 -8,1 -12,1z"/>
    <path class="fil10" d="M1228 633l143 -21c31,-4 60,18 65,49 4,30 -18,60 -49,64l-206 30c-31,4 -61,-18 -65,-49l-59 -413c-5,-31 17,-60 48,-65l199 -28c31,-5 60,17 65,48 4,31 -18,60 -48,64l-136 20 13 92 113 -16c31,-4 60,18 65,48 4,31 -18,61 -49,65l-112 16 13 96z"/>
    <path class="fil2" d="M1601 733c-45,0 -84,-35 -87,-81l-32 -416c-3,-48 33,-91 81,-94l201 -16c2,0 4,0 6,0 46,0 84,36 88,81 2,23 -6,46 -21,64 -16,18 -37,28 -60,30l-106 8 3 32 83 -6c2,0 4,0 6,0 46,0 84,35 88,81 4,48 -33,90 -81,94l-83 6 3 35 113 -8c2,-1 5,-1 7,-1 45,0 84,36 87,81 4,49 -32,91 -81,94l-208 16c-2,0 -4,0 -7,0z"/>
    <path class="fil10" d="M1661 584l144 -11c31,-2 59,22 62,53 2,31 -22,58 -53,61l-208 16c-31,2 -59,-22 -61,-53l-32 -417c-3,-31 21,-58 52,-61l201 -15c31,-2 59,21 61,52 3,32 -21,59 -52,62l-137 10 7 93 114 -8c31,-3 59,21 61,52 3,31 -21,59 -52,61l-114 9 7 96z"/>
    <path class="fil2" d="M2033 706c-47,0 -87,-38 -87,-86l-7 -418c-1,-48 36,-88 85,-89 0,0 0,0 0,0 20,-1 38,-2 53,-2 27,-1 46,-2 59,-2 3,0 7,0 10,0 103,0 183,27 238,79 55,54 84,125 86,210 1,87 -27,160 -85,218 -58,58 -140,88 -245,90 -5,0 -15,0 -31,0 -18,0 -42,0 -75,0 0,0 0,0 -1,0zm96 -175l0 0c4,0 8,0 11,0 53,-1 141,-19 139,-130 -1,-74 -51,-117 -138,-117 -1,0 -3,0 -4,0 -5,0 -10,1 -14,1l4 246c1,0 2,0 2,0z"/>
    <path class="fil10" d="M1969 202c0,-31 24,-58 56,-59 55,-2 92,-3 111,-3 100,-2 176,22 226,70 50,49 76,112 77,188 1,79 -24,144 -76,196 -52,53 -127,80 -224,82 -10,0 -45,0 -105,0 -31,0 -57,-25 -58,-56l-7 -418zm128 359l0 0c10,0 25,1 44,0 106,-1 171,-60 169,-160 -2,-95 -71,-149 -173,-147 -20,0 -35,1 -45,3l5 304z"/>
    <path class="fil2" d="M2703 712c-6,0 -11,0 -16,0 -17,-1 -39,-2 -67,-4 -9,0 -19,-1 -30,-1 0,0 0,0 0,0 -22,-2 -44,-13 -60,-31 -15,-17 -24,-40 -23,-62l17 -417c1,-47 41,-85 89,-85 0,0 0,0 1,0 4,-1 8,-1 12,-1 30,0 60,1 93,2 65,3 116,20 151,50 36,30 53,72 51,121 -1,46 -16,84 -44,113 10,10 19,21 27,33 17,28 24,60 23,97 -3,63 -27,111 -74,144 -39,27 -90,41 -150,41zm-10 -175l0 0c3,0 7,0 10,0 2,0 4,0 6,0 0,0 0,0 0,0 34,0 35,-12 35,-24 1,-8 -2,-10 -3,-11 -2,-2 -10,-7 -30,-7l-16 -1 -2 43zm18 -210l0 0c1,0 2,0 3,0 9,0 16,-2 19,-4 3,-4 4,-12 4,-16 1,-5 -1,-9 -4,-11 -5,-5 -13,-7 -23,-8 -1,0 -2,0 -4,0 -1,0 -2,0 -3,0l-2 38 10 1z"/>
    <path class="fil10" d="M2891 283c-2,53 -24,91 -66,117 43,19 74,62 71,125 -2,54 -22,94 -60,120 -38,27 -88,39 -148,36 -22,-1 -54,-3 -96,-5 -30,-2 -56,-31 -54,-61l16 -417c1,-31 28,-56 59,-56 33,0 67,1 105,2 120,5 176,60 173,139zm-226 179l0 0 -4 100c12,3 25,5 41,6 47,2 72,-16 73,-54 1,-31 -19,-48 -63,-50l-47 -2zm5 -106l0 0 40 1c37,2 57,-15 58,-49 1,-30 -24,-49 -57,-50 -6,0 -19,0 -38,1l-3 97z"/>
    <path class="fil2" d="M3392 773c-3,0 -7,-1 -10,-1 -40,-4 -69,-28 -79,-67l-17 -63 -168 -18 -30 58c-16,32 -45,50 -79,50 -4,0 -8,0 -12,-1 -46,-4 -80,-46 -75,-92 1,-12 5,-23 10,-32l214 -396c29,-53 69,-65 98,-65 4,0 9,1 13,1 32,3 74,21 93,84 1,0 128,427 128,427 3,12 4,23 3,35 -2,21 -13,42 -29,56 -17,15 -38,24 -60,24zm-157 -313l0 0 -10 -38 -19 35 29 3z"/>
    <path class="fil10" d="M3310 614l-209 -22 -40 76c-13,25 -33,36 -61,33 -30,-3 -50,-31 -47,-59 0,-8 3,-15 6,-20l214 -396c19,-36 46,-52 81,-48 33,3 55,24 67,62l127 426c3,8 3,16 2,24 -3,31 -31,55 -65,52 -28,-3 -45,-18 -52,-45l-23 -83zm-33 -118l0 0 -43 -156 -76 143 119 13z"/>
    <path class="fil2" d="M3798 845c-21,0 -44,-3 -67,-7 -89,-19 -157,-61 -202,-128 -45,-66 -59,-145 -40,-234 17,-86 58,-152 123,-198 45,-32 99,-48 160,-48 25,0 52,2 80,8 49,10 86,26 113,49 0,0 1,0 1,0 40,34 43,67 39,89 -3,15 -9,28 -20,40 0,0 0,1 0,1 -17,19 -39,29 -62,29 -6,0 -12,-1 -18,-2 -11,-2 -23,-7 -37,-15 0,0 -1,-1 -1,-1 -14,-8 -30,-14 -50,-18 -9,-2 -19,-3 -28,-3 -22,0 -42,6 -62,19 -26,18 -43,46 -52,88 -8,38 -2,71 17,99 0,0 0,1 0,1 18,28 46,46 85,54 10,2 20,3 29,3 7,0 14,0 21,-1 8,-2 17,-3 25,-3 8,0 16,1 23,2 31,7 53,27 61,57 0,0 1,0 1,0 3,15 4,29 1,42 -4,23 -20,54 -68,67 -23,6 -47,10 -72,10z"/>
    <path class="fil10" d="M3883 402c-17,-10 -37,-17 -60,-22 -42,-9 -79,-2 -113,20 -33,22 -55,58 -65,108 -9,46 -2,87 21,122 23,36 58,59 105,68 21,4 42,5 62,2 13,-3 25,-3 36,-1 20,5 33,16 38,35 3,10 3,20 1,28 -4,21 -19,36 -47,44 -37,10 -78,11 -124,1 -81,-16 -142,-54 -182,-114 -41,-60 -53,-130 -36,-211 15,-78 52,-138 110,-179 58,-41 131,-52 217,-35 42,9 76,23 100,42 23,20 33,40 29,60 -2,9 -6,18 -13,26 -14,16 -31,22 -51,18 -8,-2 -18,-6 -28,-12z"/>
    <path class="fil2" d="M4279 1034c-13,0 -26,-3 -39,-9 -40,-20 -52,-57 -58,-93 0,-1 -29,-168 -29,-168l-47 98c-15,29 -45,48 -79,48 -15,0 -29,-3 -42,-10 -45,-22 -65,-75 -44,-119l191 -389c14,-30 45,-48 79,-48 14,0 28,3 41,10 46,22 65,75 44,118l-39 81c0,0 145,-75 145,-75 19,-9 37,-14 55,-14 14,0 28,3 40,9 45,22 61,67 41,109 -10,20 -25,35 -47,46 0,0 0,0 0,0l-166 78 42 218c4,19 2,39 -8,58 -16,32 -46,52 -80,52z"/>
    <path class="fil10" d="M4168 665l-90 183c-13,28 -49,40 -79,25 -31,-15 -44,-50 -30,-78l190 -389c14,-28 49,-40 80,-25 31,15 43,50 30,78l-81 164 228 -117c25,-13 48,-15 68,-5 31,15 38,42 26,68 -7,14 -18,24 -32,31l-188 88 47 243c3,12 1,25 -6,38 -14,29 -46,44 -77,29 -24,-12 -35,-31 -42,-72l-44 -261z"/>
   </g>
  </g>
 </g>
</svg>
