<?xml version="1.0" encoding="UTF-8"?>
<!DOCTYPE svg PUBLIC "-//W3C//DTD SVG 1.1//EN" "http://www.w3.org/Graphics/SVG/1.1/DTD/svg11.dtd">
<!-- Creator: CorelDRAW X7 -->
<svg xmlns="http://www.w3.org/2000/svg" xml:space="preserve" width="1.56666in" height="0.766661in" version="1.1" style="shape-rendering:geometricPrecision; text-rendering:geometricPrecision; image-rendering:optimizeQuality; fill-rule:evenodd; clip-rule:evenodd"
viewBox="0 0 1567 767"
 xmlns:xlink="http://www.w3.org/1999/xlink">
 <defs>
  <style type="text/css">
   <![CDATA[
    .fil1 {fill:#FEFEFE}
    .fil0 {fill:#FEFEFE;fill-rule:nonzero}
   ]]>
  </style>
 </defs>
 <g id="Layer_x0020_1">
  <metadata id="CorelCorpID_0Corel-Layer"/>
  <g id="_971176928">
   <path class="fil0" d="M214 667l-34 0 0 -109 -59 103c-1,3 -3,5 -6,6 -2,2 -5,3 -8,3 -3,0 -6,-1 -8,-3 -3,-1 -5,-3 -6,-6l-59 -103 0 109 -34 0 0 -169c0,-4 2,-7 4,-10 2,-3 5,-5 9,-6 2,-1 3,-1 5,-1 2,0 4,1 5,1 2,1 3,2 5,3 1,1 2,3 3,4l76 132 76 -132c2,-3 4,-5 8,-7 3,-1 7,-1 11,0 3,1 6,3 8,6 3,3 4,6 4,10l0 169z"/>
   <path id="1" class="fil0" d="M432 667l-33 0 0 -45 -117 0 0 45 -33 0 0 -92c0,-13 2,-25 7,-37 4,-11 11,-21 19,-29 8,-8 18,-14 29,-19 11,-4 23,-6 37,-6l75 0c2,0 4,0 6,1 2,1 4,2 5,3 2,2 3,4 4,6 1,2 1,4 1,6l0 167zm-150 -78l117 0 0 -72 -58 0c-1,0 -4,0 -7,0 -3,1 -7,1 -11,3 -4,1 -9,3 -14,5 -5,3 -9,6 -13,10 -4,5 -7,10 -10,17 -2,6 -4,14 -4,23l0 14z"/>
   <path id="2" class="fil0" d="M654 653c0,2 0,4 -1,6 -1,2 -2,4 -4,6 -1,1 -3,2 -5,3 -2,1 -4,2 -7,2 -2,0 -4,-1 -6,-2 -2,0 -4,-2 -5,-3l-122 -127 0 129 -33 0 0 -169c0,-4 1,-7 3,-9 2,-3 4,-5 7,-7 3,-1 7,-1 10,-1 3,1 6,3 8,5l122 127 0 -129 33 0 0 169z"/>
   <path id="3" class="fil0" d="M874 650c0,3 -1,5 -2,7 -1,2 -2,4 -3,5 -2,2 -3,3 -6,4 -2,1 -4,1 -6,1l-120 0c-3,0 -6,0 -10,-1 -3,-1 -7,-2 -10,-4 -4,-1 -7,-3 -10,-5 -4,-3 -6,-6 -9,-9 -2,-4 -4,-8 -6,-12 -1,-5 -2,-10 -2,-16l0 -90c0,-3 1,-6 1,-10 1,-3 2,-7 4,-10 1,-4 3,-7 6,-10 2,-3 5,-6 9,-8 3,-3 7,-5 12,-6 4,-2 9,-2 15,-2l135 0 0 33 -135 0c-4,0 -8,1 -10,3 -2,3 -3,6 -3,11l0 89c0,5 1,8 3,10 2,3 6,4 10,4l103 0 0 -42 -88 0 0 -33 105 0c2,0 4,0 6,1 3,1 4,2 6,4 1,1 2,3 3,5 1,2 2,4 2,6l0 75z"/>
   <path id="4" class="fil0" d="M1088 667l-33 0 0 -45 -117 0 0 45 -33 0 0 -92c0,-13 2,-25 7,-37 4,-11 11,-21 19,-29 8,-8 18,-14 29,-19 11,-4 23,-6 36,-6l75 0c3,0 5,0 7,1 2,1 4,2 5,3 2,2 3,4 4,6 1,2 1,4 1,6l0 167zm-150 -78l117 0 0 -72 -59 0c-1,0 -3,0 -6,0 -3,1 -7,1 -11,3 -5,1 -9,3 -14,5 -5,3 -9,6 -13,10 -4,5 -7,10 -10,17 -3,6 -4,14 -4,23l0 14z"/>
   <path id="5" class="fil0" d="M1295 667l-152 0c-2,0 -4,0 -6,-1 -2,-1 -4,-2 -5,-4 -2,-1 -3,-3 -4,-5 -1,-2 -1,-4 -1,-7l0 -166 33 0 0 150 135 0 0 33z"/>
   <path id="6" class="fil0" d="M1499 667l-33 0 0 -45 -117 0 0 45 -33 0 0 -92c0,-13 2,-25 7,-37 5,-11 11,-21 19,-29 8,-8 18,-14 29,-19 11,-4 23,-6 37,-6l75 0c2,0 4,0 6,1 2,1 4,2 6,3 1,2 2,4 3,6 1,2 1,4 1,6l0 167zm-150 -78l117 0 0 -72 -58 0c-1,0 -3,0 -7,0 -3,1 -7,1 -11,3 -4,1 -9,3 -14,5 -5,3 -9,6 -13,10 -4,5 -7,10 -10,17 -2,6 -4,14 -4,23l0 14z"/>
   <polygon class="fil0" points="429,717 462,717 462,728 451,728 451,766 440,766 440,728 429,728 "/>
   <path id="1" class="fil0" d="M530 717l16 0c5,0 9,1 12,4 3,3 4,6 4,11 0,2 -1,5 -2,7 -1,3 -4,5 -7,7l14 20 -13 0 -12 -19 -2 0 0 19 -10 0 0 -49zm10 9l0 13 3 0c5,0 8,-3 8,-7 0,-2 -1,-3 -2,-4 -2,-2 -4,-2 -6,-2l-3 0z"/>
   <path id="2" class="fil0" d="M652 717l9 0 20 49 -11 0 -4 -9 -19 0 -4 9 -10 0 19 -49zm4 16l-5 15 11 0 -6 -15z"/>
   <polygon id="3" class="fil0" points="738,717 748,717 761,750 773,717 784,717 765,766 756,766 "/>
   <polygon id="4" class="fil0" points="851,717 879,717 879,727 862,727 862,737 879,737 879,746 862,746 862,757 879,757 879,766 851,766 "/>
   <polygon id="5" class="fil0" points="949,717 959,717 959,756 974,756 974,766 949,766 "/>
   <path id="6" class="fil0" d="M1069 722l-6 7c-4,-2 -6,-3 -8,-3 -1,0 -2,0 -3,1 -1,1 -1,2 -1,3 0,3 2,5 6,7 4,1 6,2 8,3 1,1 3,3 4,5 1,2 2,4 2,6 0,5 -2,8 -5,11 -4,4 -8,5 -13,5 -5,0 -10,-2 -15,-7l7 -8c3,3 6,5 9,5 1,0 3,-1 4,-2 1,-1 2,-2 2,-4 0,-2 -3,-4 -9,-6 -3,-2 -5,-3 -6,-4 -2,-1 -3,-2 -4,-4 0,-2 -1,-4 -1,-6 0,-4 2,-8 4,-10 3,-3 7,-4 12,-4 5,0 10,1 13,5z"/>
   <path class="fil0" d="M1100 102l-185 0 0 -50c0,-29 -24,-52 -53,-52l-224 0c-29,0 -52,23 -52,52l0 50 -186 0c-65,0 -118,53 -118,118l0 200 42 0 0 -200c0,-42 34,-76 76,-76l45 0 0 276 38 0 0 -276 535 0 0 276 38 0 0 -276 44 0c42,0 76,34 76,76l0 200 43 0 0 -200c0,-65 -53,-118 -119,-118zm-472 -50l0 0c0,-5 5,-10 10,-10l224 0c6,0 10,5 10,10l0 50 -244 0 0 -50z"/>
   <path class="fil0" d="M1460 616l53 0 0 12 53 -23 -53 -23 0 11 -53 0 0 23zm27 0m26 6m27 -6m0 -23m-27 -5m-26 5m-27 12"/>
   <g>
    <path class="fil1" d="M899 308l2 30c-3,0 -7,-1 -10,-2 -9,-2 -21,-5 -30,-7 -7,-1 -13,-3 -20,-4 -7,-1 -14,-3 -20,-4 -8,-2 -14,2 -19,5 -4,2 -13,6 -16,8 -7,3 -18,8 -25,12 -2,1 -6,3 -8,4l2 26c1,-1 11,-9 13,-10l8 -6c2,-1 4,-2 6,-3 2,-2 3,-3 5,-4 2,-2 3,-3 5,-4 1,-1 2,-1 3,-2 1,0 1,-1 2,-1l1 -1c0,0 4,-3 5,-3 4,-3 6,-6 15,-9 8,-3 19,-1 28,0 9,2 50,6 56,8 1,10 0,17 -1,27l-9 1c0,-4 0,-9 -2,-13 0,-2 -3,-7 -7,-6 -3,2 -4,6 -5,9 -2,5 -1,8 -2,13l-46 7 0 -5c2,-1 17,-3 20,-4l21 -4c-6,0 -39,4 -41,4 -1,-10 -4,-23 -13,-27 -4,-2 -10,-1 -11,1 -1,0 -2,1 -3,2 -1,0 0,0 -1,1 -1,1 -1,0 -1,1l0 0 -1 1c-1,1 -2,3 -3,4 -2,3 -4,13 -5,17 -1,8 -1,14 0,22l-25 11 -12 5c-9,3 -6,3 -16,4 -3,1 -2,1 -6,1 -8,0 -19,0 -27,-1 -11,-1 -23,-1 -34,-2l-41 -4 -24 -3c-3,-1 -5,-1 -7,-3 -1,-1 -1,-1 -2,-2 -1,-1 -1,-1 -2,-2 -3,-4 -3,-4 -3,-6 0,-3 0,-6 2,-8 3,1 7,2 10,3 17,3 41,5 59,6 8,1 17,1 25,1 17,1 32,0 48,-3 13,-3 23,-6 36,-10l5 -1c0,-1 0,-1 0,-1 -4,1 -8,2 -13,2 -8,2 -16,3 -24,4 -4,1 -9,1 -13,2 -15,1 -25,2 -40,2 -4,0 -10,0 -14,0 -3,-4 -1,-3 -11,-4l-24 -1c-6,-1 -8,-2 -9,2l-1 1 -34 -3c0,-1 0,0 1,-2 0,0 2,-1 3,-1 5,1 12,3 19,2 0,-2 -3,-8 -4,-10 -4,-7 -16,-16 -23,-17 -1,7 0,14 3,20 1,1 1,2 2,3 -8,4 -6,7 -5,14 0,9 5,12 6,14 7,2 8,3 16,5 6,1 11,2 17,3 5,0 12,2 17,2 6,1 12,2 18,3 8,1 29,3 37,4 13,1 26,2 39,1 2,0 5,0 7,-1 2,0 5,-2 6,-1 1,-1 14,-5 16,-6l15 -7c1,2 2,6 6,7 3,2 15,2 19,1 8,-2 9,-2 13,-8l1 0c0,-2 1,-3 1,-5 1,-1 1,-3 2,-4l11 -4c13,-4 21,-8 31,-11 1,4 2,8 11,7 9,0 8,-6 10,-8l3 0c1,-2 2,-3 2,-5 2,-4 0,-5 5,-6 0,2 -2,4 -3,5 4,0 6,-6 6,-6 1,-3 1,-4 2,-7 0,-3 0,-6 0,-8 0,-6 -1,-11 -1,-16 -1,-9 -2,-19 -3,-28 -1,-9 -2,-19 -3,-28l-1 0 2 24zm-21 63l1 0c1,-5 1,-14 5,-16 4,1 4,12 4,16 0,-4 -1,-11 -3,-14 -2,0 -3,3 -3,6 -2,5 -3,21 2,23 3,-1 5,-9 5,-12 1,-4 1,-20 -4,-21 -6,-1 -8,14 -7,18zm-68 -24c5,0 6,-1 9,3 6,5 7,27 6,34 -1,4 -2,13 -4,15 0,3 -3,9 -6,9 -1,0 -3,-2 -4,-3 -1,-2 -1,-3 -2,-5 -2,-9 -2,-16 -1,-26 0,-5 1,-11 4,-16 1,-1 1,-3 4,-3 5,7 4,24 5,27 1,-7 0,-15 -1,-21 -3,-18 -12,-6 -14,1 -1,3 -2,5 -3,8 -1,6 0,7 -3,14l-1 5c-1,-4 0,-17 1,-21 1,-2 1,-6 2,-8 1,-2 3,-7 3,-8l1 0c0,0 0,0 0,-1 0,0 0,0 0,0 1,-1 1,-2 3,-3 1,-1 0,0 1,-1zm-202 28c0,-2 -2,-4 -3,-5 -1,-1 -2,-3 -3,-4 -2,-1 -9,-8 -10,-6 -1,1 1,11 3,12 2,1 11,4 13,3z"/>
    <path class="fil1" d="M894 310c0,0 0,-1 0,-1 0,0 0,0 0,0 -2,-1 -32,-15 -36,-17 1,-8 2,-15 2,-23 1,-3 0,-6 1,-8l11 7c1,1 3,2 4,2l0 30c1,-1 1,-2 1,-3 0,-2 0,-3 0,-4l2 -20c2,0 4,2 6,3 2,1 4,2 6,4l-1 23c1,-2 2,-16 3,-19 0,-2 -1,-3 0,-3 -7,-5 -15,-12 -24,-18l-47 -31c-5,-2 -10,-6 -16,-9 -5,-2 -10,-5 -15,-6 -4,-2 -12,-5 -16,-5 -8,-1 -10,3 -11,9 -7,32 -6,44 -9,75 0,6 -2,37 -1,40 6,-2 13,-5 20,-7 10,-5 18,-6 26,-16 7,-9 9,-18 14,-27 1,-1 2,-3 4,-3 8,-2 47,14 57,18 5,2 15,7 19,9zm-129 -21l6 -2c1,-1 2,-6 2,-7 -8,-5 -2,-38 2,-44 2,-6 4,-2 3,-9l-6 -1c-5,19 -6,42 -7,63zm23 -56c5,1 3,6 3,11 0,5 -1,9 -1,14l0 0c0,3 -1,13 -2,17 0,5 -8,5 -13,5l-1 8 -9 1 -2 31c13,2 25,-6 31,-16 4,-7 7,-14 11,-20 9,-15 7,-5 8,-24 0,-6 0,-11 -1,-16l0 -11c-3,-1 -6,-3 -9,-4l-10 -5c-5,-1 -11,-4 -17,-3 -2,0 -3,1 -3,3 2,0 5,0 7,1l-1 7c2,-1 8,-1 9,1zm51 50l16 7c1,1 1,1 2,1l0 -32c-2,-2 -4,-3 -7,-4 -2,-2 -5,-4 -7,-4 0,5 -1,11 -1,16 -1,5 -2,11 -3,16zm-23 -10c4,2 8,3 12,5l11 5 0 -35c-3,-2 -7,-4 -10,-6 -2,-1 -4,-2 -5,-3 -2,-1 -4,-2 -6,-3 -1,8 -3,30 -2,37z"/>
    <path class="fil1" d="M591 265c1,1 0,0 1,1 0,2 1,5 2,6 0,0 1,0 1,0 1,1 2,1 2,1l-3 17c-1,7 -2,13 -2,19 0,8 -2,35 2,40 14,2 27,2 41,4 9,1 83,1 93,-2 1,-1 4,-1 5,-2 1,-1 2,-2 2,-5 2,-8 2,-16 3,-24 1,-4 1,-9 1,-13l1 -10c0,0 0,-2 0,-3 1,-17 2,-35 3,-53 0,-4 0,-9 0,-13 1,-8 3,-18 -5,-22 -4,-2 -7,-1 -11,0l1 0c1,0 1,1 2,1 7,3 5,17 4,25 0,11 -1,23 -1,34 -1,11 -1,22 -3,33 -1,10 -2,29 -5,38 -1,2 -2,3 -5,4 -4,1 -10,2 -15,3 -5,0 -10,1 -16,1 -6,1 -12,1 -17,1 -10,1 -58,0 -69,-1 -3,-1 -3,-2 -4,-5 -1,-7 -1,-18 -1,-25 1,-11 2,-22 3,-33 2,-9 4,-19 7,-29l6 -20c3,-7 6,-14 9,-21 1,-2 1,-2 3,-2 2,-1 5,-1 7,-2 27,-4 39,-3 66,-5 11,0 23,-1 34,-1 -5,-2 -27,-3 -35,-3 -13,0 -57,2 -70,6 -6,2 -7,4 -10,10l-6 13c-3,0 -6,0 -10,0 -4,0 -5,0 -6,4 -11,0 -13,27 -5,33zm4 6l2 1c4,-15 7,-22 12,-36 0,-1 1,-3 2,-5 -3,0 -12,-3 -13,1 -1,2 1,0 0,6 0,6 -2,10 -3,19 -1,6 -1,8 0,14z"/>
    <path class="fil1" d="M624 202c2,0 7,-1 9,-1 10,-1 19,-3 30,-4 27,-3 57,-6 84,-4 15,1 21,6 33,11l11 6c7,4 18,10 25,14 1,1 2,1 3,2l72 46c-1,-1 -12,-10 -13,-11 -5,-4 -9,-7 -14,-11l-13 -10c-10,-8 -28,-21 -38,-28 -1,-1 -2,-2 -3,-3 -2,0 -3,-1 -4,-2l-7 -5c-16,-10 -34,-22 -55,-23 -7,0 -15,1 -22,2 -22,1 -88,11 -98,21z"/>
    <path class="fil1" d="M692 378c9,1 17,1 27,0 4,0 8,0 12,0 4,-1 9,-2 13,-2 -1,-7 -3,-3 -2,-21 -12,0 -29,1 -39,7 -2,2 -3,3 -5,4 -2,3 -6,8 -6,12zm6 -4c7,0 29,-1 34,-3 0,-5 1,-5 2,-9 -4,0 -7,0 -11,1 -6,1 -23,5 -25,11z"/>
    <path class="fil1" d="M608 334c1,1 4,2 5,2 3,1 5,1 7,1 25,4 44,5 70,1 4,0 23,-4 25,-5l-13 1c-10,1 -30,1 -40,1 -18,0 -36,-1 -54,-1z"/>
    <path class="fil1" d="M616 360l0 0c4,3 14,4 18,5 13,2 30,2 43,0 3,0 7,-1 10,-2 3,-1 5,-2 8,-3 -3,0 -7,0 -10,0 -23,1 -46,1 -69,0z"/>
    <path class="fil1" d="M625 373c4,3 22,5 29,5 6,0 24,-1 28,-5 -9,0 -18,1 -28,1 -10,-1 -20,-1 -29,-1z"/>
    <path class="fil1" d="M790 258l0 0c0,-5 1,-9 1,-14 0,-5 2,-10 -3,-11 0,0 -1,0 -2,2 -1,1 -2,2 -3,2 0,1 -1,1 -1,2 -1,3 1,5 1,6 0,2 -1,3 0,5 0,1 3,4 5,5 1,2 1,1 2,3z"/>
    <path class="fil1" d="M828 389l0 3 49 -14 0 -2c-5,1 -45,12 -49,13z"/>
    <path class="fil1" d="M705 398c-1,0 -1,0 -2,2 -2,3 1,8 6,6 5,-2 2,-11 -4,-8z"/>
    <path class="fil1" d="M718 407c3,0 4,0 5,-1l1 -1c0,-2 1,-3 0,-5 -1,-2 -3,-2 -6,-2 -1,1 -2,3 -2,5 0,2 2,3 2,4z"/>
    <path class="fil1" d="M601 391c-4,2 -1,8 3,7 4,-2 2,-9 -3,-7z"/>
    <path class="fil1" d="M611 392c0,0 0,0 -1,0 -2,3 1,8 5,6 3,-2 1,-9 -4,-6z"/>
   </g>
  </g>
 </g>
</svg>
