<?xml version="1.0" encoding="UTF-8"?>
<!DOCTYPE svg PUBLIC "-//W3C//DTD SVG 1.1//EN" "http://www.w3.org/Graphics/SVG/1.1/DTD/svg11.dtd">
<!-- Creator: CorelDRAW X7 -->
<svg xmlns="http://www.w3.org/2000/svg" xml:space="preserve" width="1.524in" height="1.033in" version="1.1" style="shape-rendering:geometricPrecision; text-rendering:geometricPrecision; image-rendering:optimizeQuality; fill-rule:evenodd; clip-rule:evenodd"
viewBox="0 0 1524 1033"
 xmlns:xlink="http://www.w3.org/1999/xlink">
 <defs>
  <style type="text/css">
   <![CDATA[
    .fil0 {fill:#FEFEFE}
    .fil1 {fill:#FEFEFE}
    .fil2 {fill:#FEFEFE;fill-rule:nonzero}
   ]]>
  </style>
 </defs>
 <g id="Layer_x0020_1">
  <metadata id="CorelCorpID_0Corel-Layer"/>
  <g id="_742290944">
   <path class="fil0" d="M417 350c0,-17 2,-19 -12,-24l-19 29 31 -5zm-117 -224c4,-2 8,-3 9,-8 0,0 0,-1 0,-1l22 9c8,3 6,10 15,16 17,11 37,20 49,31 7,14 -5,38 -21,37 -9,-1 -7,-7 -21,-1 -15,7 -7,5 -27,4 0,20 8,35 13,53 10,30 8,21 26,38 23,23 24,1 45,-2 21,-2 23,17 24,38 31,-6 30,20 42,43 10,19 8,14 9,36 0,17 4,23 1,44 -15,0 -17,-4 -25,-13 0,-6 -1,-6 1,-12 3,-12 3,-5 4,-10l1 -4c1,-6 -2,-8 -4,-19 -3,-15 -6,-36 -22,-40 -5,8 -1,15 -5,23l-25 30c-6,4 -10,8 -17,9 -6,-12 -3,-11 -5,-16l-3 -7c-8,16 -6,7 -20,14 -11,5 -29,54 -37,66 -9,13 -20,27 -29,37 -30,35 -48,22 -26,75 6,12 -14,58 -20,71 -9,17 -13,16 -22,29 -18,26 9,47 29,61 12,8 40,42 42,58l-40 -2c-3,-10 -1,-15 -4,-23 -3,-6 -12,-13 -16,-18 -15,-15 -65,-46 -56,-69 7,-17 18,-31 15,-52l-11 -6c-9,13 -11,35 -18,48 -19,35 -27,70 -10,109 8,19 29,20 28,40l-46 0c-5,-21 5,-24 -10,-74 -4,-12 -8,-22 -11,-33 -11,-32 38,-56 8,-99 -8,-11 -12,-13 -15,-30 -5,-27 -5,-14 4,-32 -19,5 -17,11 -26,30 -9,18 -11,23 -14,47 0,0 0,-1 0,-1 0,0 -1,0 -1,0 -2,1 -2,9 -7,9 1,29 0,27 -13,41 -1,0 -2,-1 -2,0 -3,9 0,-5 -8,-1l-26 15c-1,1 -4,5 -5,7l-5 7c-8,-20 6,-22 18,-31 9,-7 18,-20 21,-36 -16,16 -19,37 -53,34 34,-19 26,1 33,-44l-9 12c-2,5 2,0 -1,4 -6,-7 -6,-8 -1,-16l12 -12c-13,2 -20,3 -21,16 -2,-17 3,-16 17,-20l-11 -8c15,4 10,4 25,0 -11,-4 -10,0 -19,-7 23,4 31,-1 38,-18l-22 9c6,-4 14,-9 20,-13 9,-6 12,-13 17,-16l-18 0c19,-3 17,-6 28,-16 11,-11 14,-10 32,-12 10,-13 16,-37 24,-54 12,-28 16,-26 37,-44 14,-12 28,-23 37,-40 9,-17 18,-41 16,-63 -2,0 -8,-4 -8,9 1,-14 3,-15 4,-28 -6,3 -7,2 -10,7 6,-20 -2,-23 1,-30 0,0 6,-7 7,-10 -9,2 -10,6 -15,11 4,-18 13,-14 2,-27 -3,6 -9,24 -12,29 3,-16 3,-31 14,-43 -1,-5 -1,-2 -6,-6 0,0 -1,0 -2,-1l23 -49c-8,3 -10,3 -12,8 2,-5 11,-19 -3,-16 8,-2 8,-4 13,-7l-10 -5c-1,0 -2,0 -2,-1 -1,0 -2,0 -2,-1l16 -1 7 -17 -12 -3 28 -19c7,-6 5,-9 19,-9 -2,-2 4,-7 -11,-5 6,-1 9,-2 12,-2 9,1 -6,3 10,2 -5,-10 -13,-14 -15,-28l23 11 0 -20c4,10 5,5 7,24z"/>
   <path class="fil0" d="M1069 350c1,-17 -1,-19 12,-24l20 29 -32 -5zm118 -224c-5,-2 -8,-3 -9,-8 0,0 0,-1 0,-1l-23 9c-7,3 -5,10 -15,16 -16,11 -37,20 -48,31 -7,14 5,38 21,37 9,-1 7,-7 20,-1 16,7 8,5 27,4 1,20 -7,35 -13,53 -9,30 -8,21 -25,38 -23,23 -25,1 -45,-2 -21,-2 -24,17 -24,38 -31,-6 -30,20 -42,43 -10,19 -8,14 -9,36 0,17 -4,23 -2,44 16,0 17,-4 26,-13 0,-6 0,-6 -1,-12 -3,-12 -3,-5 -4,-10l-1 -4c-1,-6 2,-8 4,-19 3,-15 6,-36 21,-40 5,8 1,15 6,23l25 30c6,4 9,8 17,9 6,-12 3,-11 5,-16l2 -7c9,16 7,7 20,14 12,5 30,54 37,66 10,13 21,27 29,37 31,35 48,22 26,75 -5,12 15,58 21,71 9,17 13,16 21,29 18,26 -8,47 -28,61 -12,8 -40,42 -42,58l40 -2c3,-10 0,-15 4,-23 3,-6 12,-13 16,-18 14,-15 65,-46 56,-69 -7,-17 -19,-31 -15,-52l10 -6c10,13 12,35 19,48 18,35 27,70 10,109 -8,19 -29,20 -28,40l46 0c4,-21 -6,-24 10,-74 3,-12 8,-22 11,-33 11,-32 -39,-56 -8,-99 7,-11 11,-13 14,-30 6,-27 6,-14 -3,-32 19,5 17,11 26,30 9,18 11,23 14,47 0,0 0,-1 0,-1 0,0 0,0 0,0 3,1 3,9 8,9 -2,29 0,27 13,41 1,0 1,-1 1,0 4,9 1,-5 9,-1l26 15c1,1 3,5 5,7l4 7c8,-20 -5,-22 -17,-31 -9,-7 -18,-20 -21,-36 16,16 19,37 53,34 -34,-19 -27,1 -33,-44l9 12c2,5 -2,0 1,4 6,-7 6,-8 1,-16l-13 -12c13,2 21,3 21,16 2,-17 -2,-16 -16,-20l11 -8c-15,4 -10,4 -25,0 11,-4 10,0 18,-7 -22,4 -31,-1 -38,-18l22 9c-5,-4 -13,-9 -19,-13 -9,-6 -12,-13 -17,-16l18 0c-19,-3 -18,-6 -28,-16 -11,-11 -14,-10 -33,-12 -9,-13 -15,-37 -23,-54 -12,-28 -17,-26 -37,-44 -14,-12 -28,-23 -37,-40 -9,-17 -18,-41 -16,-63 2,0 7,-4 8,9 -1,-14 -3,-15 -4,-28 6,3 6,2 10,7 -7,-20 2,-23 -1,-30 0,0 -6,-7 -8,-10 9,2 11,6 16,11 -4,-18 -13,-14 -2,-27 2,6 9,24 12,29 -3,-16 -3,-31 -14,-43 1,-5 1,-2 6,-6 0,0 1,0 2,-1l-23 -49c8,3 9,3 12,8 -2,-5 -11,-19 2,-16 -7,-2 -7,-4 -12,-7l10 -5c1,0 2,0 2,-1 1,0 1,0 2,-1l-17 -1 -6 -17 12 -3 -28 -19c-7,-6 -5,-9 -19,-9 2,-2 -4,-7 11,-5 -6,-1 -10,-2 -12,-2 -9,1 5,3 -11,2 6,-10 13,-14 16,-28l-23 11 0 -20c-4,10 -5,5 -7,24z"/>
   <path class="fil0" d="M476 210l529 0 0 167c-1,3 -2,6 -3,8 -8,16 -7,11 -7,29 -1,14 -4,19 -2,35 6,0 10,-1 12,-2l0 126c0,146 -119,265 -264,265l0 0c-146,0 -265,-119 -265,-265l0 -131c5,5 7,7 18,7 2,-16 -1,-21 -2,-35 0,-18 1,-13 -7,-29 -4,-8 -6,-16 -9,-22l0 -153zm0 213l0 -15c1,4 2,6 2,10l-1 3c-1,2 -1,2 -1,2zm21 -192l0 342c0,134 110,243 244,243 133,0 243,-109 243,-243l0 -342 -487 0z"/>
   <path class="fil0" d="M515 253l0 317c0,123 102,225 226,225 123,0 225,-102 225,-225l0 -317 -451 0zm9 9l0 308c0,119 98,216 217,216 119,0 216,-97 216,-216l0 -308 -433 0z"/>
   <g>
    <polygon class="fil0" points="679,189 802,189 797,204 683,204 "/>
    <path class="fil0" d="M652 115l25 67 128 0 25 -68 -30 29c-8,41 -67,7 -34,-13l-25 -48 -25 48c34,25 -32,49 -35,12l-29 -27z"/>
   </g>
   <g>
    <polygon class="fil0" points="733,509 644,344 624,594 578,600 603,584 633,278 642,278 737,469 826,277 833,277 866,584 903,597 834,597 818,335 "/>
    <g>
     <polygon class="fil0" points="551,517 931,517 939,563 926,562 918,539 561,539 555,560 542,562 "/>
     <polygon class="fil0" points="725,539 726,539 756,539 756,753 725,753 "/>
     <polygon class="fil0" points="700,753 781,753 781,766 700,766 "/>
    </g>
   </g>
   <path class="fil1" d="M120 849c114,-8 223,-14 336,-18 0,4 -1,8 -2,12 -113,2 -221,3 -334,6zm369 -19c6,0 11,0 17,0 -6,5 -12,9 -18,13l-7 0 8 -13zm32 0c149,-4 290,-4 440,-1 6,5 12,9 18,14 -162,-2 -314,-1 -476,0 6,-4 12,-9 18,-13zm455 -1c6,1 11,1 16,1l9 13 -8 0c-6,-4 -11,-9 -17,-14zm50 2c131,3 259,10 390,18 -131,-3 -257,-5 -388,-6 -1,-4 -1,-8 -2,-12z"/>
   <g>
    <g>
     <polygon class="fil0" points="546,124 578,104 645,212 599,212 "/>
     <path class="fil0" d="M461 158l155 -100c24,-12 43,27 14,37 -10,1 -17,-3 -21,-11l-117 75c6,10 5,19 -5,27 -23,13 -38,-18 -26,-28z"/>
     <polygon class="fil0" points="546,124 550,129 531,141 577,212 569,212 523,139 "/>
     <rect class="fil0" transform="matrix(0.259171 -0.171142 0.171142 0.259171 457.605 27.2825)" width="180.843" height="61.378" rx="31" ry="31"/>
     <polygon class="fil0" points="484,45 481,39 489,33 510,31 516,41 "/>
     <polygon class="fil0" points="489,49 520,45 525,55 494,59 "/>
     <polygon class="fil0" points="498,64 528,60 534,70 503,74 "/>
     <polygon class="fil0" points="508,80 539,76 545,86 513,90 "/>
     <polygon class="fil0" points="517,95 548,91 551,96 527,110 "/>
     <path class="fil0" d="M963 713c-6,11 -15,22 -24,32l67 106c-17,-11 -33,-23 -48,-38l-34 -52 -2 3 33 56c22,20 46,36 71,50 -2,-27 -6,-54 -15,-81l-48 -76z"/>
    </g>
    <g>
     <polygon class="fil0" points="936,124 904,104 837,212 883,212 "/>
     <path class="fil0" d="M1022 158l-156 -100c-24,-12 -43,27 -14,37 10,1 17,-3 21,-11l117 75c-6,10 -5,19 5,27 23,13 38,-18 27,-28z"/>
     <polygon class="fil0" points="936,124 933,129 951,141 905,212 913,212 959,139 "/>
     <rect class="fil0" transform="matrix(-0.259171 -0.171142 -0.171142 0.259171 1024.56 27.2825)" width="180.843" height="61.378" rx="31" ry="31"/>
     <polygon class="fil0" points="998,45 1001,39 993,33 972,31 966,41 "/>
     <polygon class="fil0" points="993,49 963,45 957,55 989,59 "/>
     <polygon class="fil0" points="984,64 954,60 948,70 980,74 "/>
     <polygon class="fil0" points="974,80 943,76 937,86 969,90 "/>
     <polygon class="fil0" points="965,95 934,91 932,96 956,110 "/>
     <path class="fil0" d="M519 713c7,11 15,22 24,32l-66 106c17,-11 33,-23 47,-38l34 -52 2 3 -33 56c-22,20 -46,36 -70,50 1,-27 6,-54 14,-81l48 -76z"/>
    </g>
   </g>
   <path class="fil2" d="M106 958l34 -82 50 0 0 3 -4 0c-3,0 -6,1 -8,2 -2,1 -3,2 -4,4 -1,2 -1,6 -1,12l0 82c0,7 0,11 1,12 1,2 2,3 4,4 2,2 5,2 8,2l4 0 0 3 -64 0 0 -3 4 0c3,0 6,0 8,-2 2,-1 3,-2 4,-4 1,-2 1,-6 1,-12l0 -92 -48 113 -2 0 -48 -112 0 87c0,7 0,10 0,12 1,3 3,5 5,7 3,2 7,3 13,3l0 3 -43 0 0 -3 1 0c3,0 6,0 8,-1 3,-1 4,-2 6,-4 1,-2 2,-4 2,-7 1,0 1,-4 1,-9l0 -79c0,-6 -1,-10 -1,-12 -1,-2 -2,-3 -4,-4 -3,-1 -5,-2 -9,-2l-4 0 0 -3 51 0 35 82z"/>
   <path class="fil2" d="M259 951l-36 0 -5 10c-1,3 -2,6 -2,8 0,3 1,5 4,7 1,1 4,1 10,2l0 2 -35 0 0 -2c4,-1 7,-2 9,-5 3,-3 6,-8 9,-16l38 -83 1 0 38 85c3,9 6,14 9,16 1,2 4,2 7,3l0 2 -51 0 0 -2 3 0c4,0 6,-1 8,-2 1,-1 2,-2 2,-4 0,-1 0,-2 -1,-3 0,0 -1,-2 -2,-5l-6 -13zm-2 -6l-16 -36 -16 36 32 0z"/>
   <path class="fil2" d="M347 876l51 65 0 -45c0,-7 0,-11 -2,-13 -3,-3 -7,-5 -13,-5l0 -2 35 0 0 2c-5,1 -8,2 -9,3 -2,1 -3,2 -4,4 0,2 -1,6 -1,11l0 87 -2 0 -71 -87 0 66c0,6 1,10 4,13 3,2 6,3 10,3l2 0 0 2 -37 0 0 -2c6,0 10,-2 12,-4 2,-2 3,-6 3,-12l0 -74 -2 -2c-2,-3 -4,-5 -6,-6 -1,-1 -4,-1 -7,-2l0 -2 37 0z"/>
   <path class="fil2" d="M531 873l0 37 -3 0c-4,-10 -9,-17 -16,-23 -7,-5 -14,-7 -22,-7 -8,0 -15,2 -20,6 -5,5 -9,11 -11,19 -2,7 -3,15 -3,24 0,10 1,18 3,26 3,8 7,13 12,17 5,3 11,5 19,5 2,0 5,0 7,-1 3,0 6,-1 8,-2l0 -22c0,-4 0,-7 0,-8 -1,-1 -2,-2 -4,-3 -2,-1 -4,-2 -6,-2l-3 0 0 -2 51 0 0 2c-4,0 -7,1 -8,2 -2,1 -3,2 -4,4 0,1 0,3 0,7l0 22c-7,3 -14,5 -21,6 -8,2 -15,3 -23,3 -10,0 -18,-2 -24,-4 -7,-3 -13,-7 -18,-11 -5,-4 -9,-9 -11,-15 -4,-7 -6,-15 -6,-24 0,-15 6,-28 17,-39 11,-11 25,-17 41,-17 6,0 10,1 14,2 3,0 6,1 11,3 5,2 8,3 9,3 2,0 3,-1 4,-2 2,-1 3,-3 4,-6l3 0z"/>
   <path class="fil2" d="M610 951l-37 0 -4 10c-2,3 -2,6 -2,8 0,3 1,5 3,7 1,1 5,1 10,2l0 2 -34 0 0 -2c3,-1 6,-2 9,-5 2,-3 5,-8 9,-16l37 -83 2 0 37 85c4,9 7,14 9,16 2,2 4,2 7,3l0 2 -50 0 0 -2 2 0c4,0 7,-1 9,-2 1,-1 1,-2 1,-4 0,-1 0,-2 0,-3 0,0 -1,-2 -2,-5l-6 -13zm-3 -6l-15 -36 -16 36 31 0z"/>
   <path class="fil2" d="M758 944l-4 36 -93 0 0 -2 4 0c3,0 5,-1 7,-2 2,-1 3,-2 3,-4 1,-1 1,-4 1,-9l0 -69c0,-6 0,-9 -1,-10 0,-2 -1,-3 -3,-4 -2,-1 -4,-2 -7,-2l-4 0 0 -2 56 0 0 2 -4 0c-4,0 -6,1 -8,2 -1,1 -2,2 -3,4 -1,1 -1,4 -1,10l0 66c0,6 0,9 1,11 1,1 2,2 4,3 1,0 4,1 9,1l9 0c5,0 10,-1 13,-3 4,-2 7,-5 10,-10 3,-4 5,-10 8,-18l3 0z"/>
   <path class="fil2" d="M891 876l0 28 -3 0c-1,-6 -3,-11 -5,-14 -2,-3 -5,-5 -9,-7 -1,-1 -5,-1 -10,-1l-8 0 0 81c0,5 1,8 1,10 1,1 2,2 4,3 1,1 4,2 7,2l3 0 0 2 -54 0 0 -2 3 0c3,0 5,-1 7,-2 2,-1 3,-2 3,-4 1,-1 1,-4 1,-9l0 -81 -7 0c-7,0 -12,1 -16,4 -4,4 -7,10 -8,18l-3 0 0 -28 94 0z"/>
   <path class="fil2" d="M939 933l0 29c0,6 0,9 1,11 0,1 1,3 3,3 2,1 5,2 10,2l0 2 -53 0 0 -2c4,0 8,-1 9,-2 2,-1 3,-2 4,-3 1,-2 1,-5 1,-11l0 -68c0,-6 0,-9 -1,-11 -1,-1 -2,-2 -4,-3 -1,-1 -5,-2 -9,-2l0 -2 48 0c13,0 22,1 28,2 6,2 11,5 14,10 4,5 6,10 6,17 0,7 -3,14 -9,19 -3,3 -8,5 -14,7l25 35c3,5 5,8 7,9 2,2 4,2 7,3l0 2 -33 0 -34 -47 -6 0zm0 -51l0 45 4 0c7,0 12,0 16,-2 4,-1 6,-3 8,-7 2,-3 3,-8 3,-13 0,-8 -1,-14 -5,-18 -4,-3 -10,-5 -18,-5l-8 0z"/>
   <path class="fil2" d="M1076 951l-37 0 -4 10c-2,3 -2,6 -2,8 0,3 1,5 3,7 2,1 5,1 10,2l0 2 -34 0 0 -2c3,-1 7,-2 9,-5 2,-3 5,-8 9,-16l37 -83 2 0 37 85c4,9 7,14 9,16 2,2 4,2 8,3l0 2 -51 0 0 -2 2 0c4,0 7,-1 9,-2 1,-1 1,-2 1,-4 0,-1 0,-2 0,-3 0,0 -1,-2 -2,-5l-6 -13zm-3 -6l-15 -36 -16 36 31 0z"/>
   <path class="fil2" d="M1216 876l0 2c-4,1 -7,3 -10,7 -2,2 -5,8 -10,18l-35 80 -3 0 -36 -83c-4,-11 -7,-16 -8,-18 -2,-2 -4,-3 -8,-4l0 -2 49 0 0 2 -1 0c-5,0 -8,1 -10,2 -1,1 -1,2 -1,4 0,1 0,2 0,3 1,1 2,5 4,10l23 52 20 -46c3,-6 4,-10 5,-11 0,-2 1,-4 1,-5 0,-2 -1,-3 -1,-4 -1,-2 -3,-3 -4,-3 -2,-1 -5,-2 -9,-2l0 -2 34 0z"/>
   <path class="fil2" d="M1261 882l0 42 2 0c7,0 11,-2 14,-6 3,-4 5,-10 6,-18l3 0 0 55 -3 0c0,-6 -2,-11 -4,-15 -2,-4 -4,-7 -7,-8 -2,-1 -6,-2 -11,-2l0 30c0,5 0,9 1,10 0,1 1,2 2,3 2,1 4,2 7,2l6 0c10,0 18,-3 24,-7 5,-5 10,-12 12,-21l3 0 -5 33 -90 0 0 -2 4 0c3,0 5,-1 7,-2 1,-1 2,-2 3,-4 1,-1 1,-4 1,-9l0 -69c0,-5 0,-8 -1,-9 0,-2 -1,-3 -2,-4 -2,-2 -5,-3 -8,-3l-4 0 0 -2 88 0 0 31 -3 0c-2,-8 -4,-13 -7,-17 -2,-3 -6,-5 -11,-7 -3,-1 -8,-1 -16,-1l-11 0z"/>
   <path class="fil2" d="M1423 944l-4 36 -93 0 0 -2 4 0c3,0 5,-1 7,-2 1,-1 2,-2 3,-4 1,-1 1,-4 1,-9l0 -69c0,-6 0,-9 -1,-10 0,-2 -2,-3 -3,-4 -2,-1 -4,-2 -7,-2l-4 0 0 -2 56 0 0 2 -5 0c-3,0 -5,1 -7,2 -1,1 -2,2 -3,4 -1,1 -1,4 -1,10l0 66c0,6 0,9 1,11 1,1 2,2 4,3 1,0 4,1 9,1l9 0c5,0 10,-1 13,-3 4,-2 7,-5 10,-10 3,-4 5,-10 8,-18l3 0z"/>
   <path class="fil2" d="M1515 876l1 41 -4 0c-1,-11 -6,-19 -12,-25 -7,-6 -15,-9 -23,-9 -6,0 -11,1 -14,5 -4,3 -6,7 -6,11 0,3 1,5 2,7 2,3 5,6 9,8 3,2 9,6 19,11 15,7 24,14 29,20 5,6 8,13 8,21 0,11 -4,19 -12,27 -8,7 -18,11 -31,11 -3,0 -7,0 -11,-1 -3,-1 -7,-3 -13,-5 -2,-1 -5,-1 -7,-1 -1,0 -3,0 -5,1 -1,2 -3,3 -4,6l-3 0 0 -46 3 0c3,13 8,23 15,29 8,7 16,11 25,11 7,0 12,-2 16,-6 4,-4 6,-8 6,-13 0,-3 -1,-5 -2,-8 -2,-3 -4,-5 -7,-8 -3,-2 -9,-5 -17,-9 -11,-6 -19,-10 -24,-14 -5,-4 -8,-9 -11,-13 -3,-5 -4,-10 -4,-16 0,-10 4,-18 11,-25 7,-7 16,-10 27,-10 4,0 8,0 11,1 3,1 7,2 11,4 4,2 7,3 8,3 2,0 3,0 4,-1 1,-1 2,-4 2,-7l3 0z"/>
   <path class="fil1" d="M120 1011c432,31 864,28 1296,0 -433,9 -865,10 -1296,0z"/>
  </g>
 </g>
</svg>
