<?xml version="1.0" encoding="UTF-8"?>
<!DOCTYPE svg PUBLIC "-//W3C//DTD SVG 1.1//EN" "http://www.w3.org/Graphics/SVG/1.1/DTD/svg11.dtd">
<!-- Creator: CorelDRAW X7 -->
<svg xmlns="http://www.w3.org/2000/svg" xml:space="preserve" width="9.536in" height="1.813in" version="1.1" style="shape-rendering:geometricPrecision; text-rendering:geometricPrecision; image-rendering:optimizeQuality; fill-rule:evenodd; clip-rule:evenodd"
viewBox="0 0 9536 1813"
 xmlns:xlink="http://www.w3.org/1999/xlink">
 <defs>
  <style type="text/css">
   <![CDATA[
    .str0 {stroke:#F58634;stroke-width:3}
    .fil2 {fill:#FEFEFE}
    .fil1 {fill:#ED3237}
    .fil3 {fill:#373435;fill-rule:nonzero}
    .fil0 {fill:#F58634;fill-rule:nonzero}
    .fil5 {fill:#070707;fill-rule:nonzero}
    .fil4 {fill:#585858;fill-rule:nonzero}
    .fil7 {fill:white;fill-rule:nonzero}
    .fil6 {fill:url(#id0);fill-rule:nonzero}
   ]]>
  </style>
  <linearGradient id="id0" gradientUnits="userSpaceOnUse" x1="4772.25" y1="1081.81" x2="4772.25" y2="1738.1">
   <stop offset="0" style="stop-opacity:1; stop-color:black"/>
   <stop offset="0.121569" style="stop-opacity:1; stop-color:black"/>
   <stop offset="0.439216" style="stop-opacity:1; stop-color:#3B3B3B"/>
   <stop offset="0.541176" style="stop-opacity:1; stop-color:#3B3B3B"/>
   <stop offset="0.960784" style="stop-opacity:1; stop-color:black"/>
   <stop offset="0.968627" style="stop-opacity:1; stop-color:black"/>
   <stop offset="0.988235" style="stop-opacity:1; stop-color:black"/>
   <stop offset="1" style="stop-opacity:1; stop-color:black"/>
  </linearGradient>
 </defs>
 <g id="Layer_x0020_1">
  <metadata id="CorelCorpID_0Corel-Layer"/>
  <g id="_730340896">
   <path class="fil0" d="M708 1290c-13,0 -24,-11 -24,-24l0 -1241c0,-14 11,-25 24,-25 14,0 25,11 25,25l0 1241c0,13 -11,24 -25,24z"/>
   <path class="fil0" d="M4653 1290c-14,0 -25,-11 -25,-24l0 -1241c0,-14 11,-25 25,-25 13,0 24,11 24,25l0 1241c0,13 -11,24 -24,24z"/>
   <g>
    <rect class="fil1" y="99" width="1509" height="307" rx="95" ry="72"/>
    <rect class="fil2" x="31" y="130" width="1447" height="245" rx="59" ry="59"/>
   </g>
   <g>
    <rect class="fil1" x="3392" y="99" width="2521" height="307" rx="158" ry="72"/>
    <rect class="fil2" x="3444" y="130" width="2418" height="245" rx="98" ry="59"/>
   </g>
   <polygon class="fil3" points="322,326 322,179 366,179 393,280 419,179 463,179 463,326 436,326 436,211 407,326 378,326 349,211 349,326 "/>
   <polygon id="1" class="fil3" points="532,326 532,264 478,179 513,179 548,237 581,179 616,179 562,265 562,326 "/>
   <path id="2" class="fil3" d="M622 279l29 -3c2,9 6,17 11,21 5,5 12,7 21,7 10,0 17,-2 22,-6 5,-4 7,-9 7,-14 0,-4 -1,-7 -3,-9 -2,-3 -5,-5 -10,-7 -4,-1 -12,-3 -24,-6 -16,-4 -27,-9 -33,-15 -9,-8 -14,-18 -14,-29 0,-8 2,-15 6,-21 5,-7 11,-12 19,-15 8,-4 17,-5 29,-5 18,0 32,4 41,12 9,8 14,19 15,33l-30 1c-1,-8 -4,-13 -8,-17 -4,-3 -11,-5 -19,-5 -8,0 -15,2 -20,6 -3,2 -5,5 -5,9 0,3 2,6 5,9 4,3 13,6 27,10 14,3 25,7 32,10 7,4 12,9 16,15 4,6 6,14 6,24 0,8 -2,16 -7,23 -5,8 -11,13 -20,17 -8,3 -19,5 -32,5 -18,0 -33,-4 -43,-13 -10,-8 -16,-21 -18,-37z"/>
   <path id="3" class="fil3" d="M761 254c0,-15 2,-28 7,-38 3,-8 8,-14 14,-20 5,-6 12,-11 19,-14 9,-3 19,-5 31,-5 22,0 39,6 52,20 13,13 20,32 20,56 0,24 -7,42 -19,56 -13,13 -31,20 -52,20 -22,0 -40,-7 -52,-20 -13,-13 -20,-32 -20,-55zm31 -1c0,16 4,29 11,38 8,8 18,13 30,13 12,0 21,-5 29,-13 8,-9 11,-22 11,-39 0,-17 -3,-29 -11,-37 -7,-9 -17,-13 -29,-13 -13,0 -22,4 -30,13 -7,8 -11,21 -11,38z"/>
   <path id="4" class="fil3" d="M927 326l0 -147 63 0c15,0 27,2 34,4 7,3 13,8 17,14 4,7 7,15 7,23 0,12 -4,21 -10,28 -7,7 -16,12 -29,13 6,4 12,8 16,13 4,4 9,12 17,24l17 28 -35 0 -21 -32c-8,-11 -13,-18 -16,-21 -3,-3 -6,-5 -9,-6 -3,-2 -8,-2 -15,-2l-6 0 0 61 -30 0zm30 -85l22 0c14,0 23,0 27,-1 3,-2 6,-4 8,-7 2,-3 3,-6 3,-11 0,-5 -1,-9 -4,-12 -3,-3 -6,-5 -11,-5 -3,-1 -10,-1 -22,-1l-23 0 0 37z"/>
   <polygon id="5" class="fil3" points="1076,326 1076,179 1184,179 1184,204 1105,204 1105,237 1179,237 1179,262 1105,262 1105,301 1187,301 1187,326 "/>
   <path class="fil3" d="M3701 272l29 9c-4,16 -12,28 -22,36 -10,8 -23,12 -39,12 -20,0 -36,-7 -48,-20 -13,-13 -19,-32 -19,-55 0,-24 6,-43 19,-57 12,-14 29,-20 50,-20 18,0 32,5 44,16 6,6 11,15 15,27l-30 7c-1,-8 -5,-14 -11,-18 -5,-5 -12,-7 -20,-7 -11,0 -20,4 -26,12 -7,8 -11,20 -11,38 0,18 4,32 10,40 7,7 16,11 27,11 8,0 14,-2 20,-7 6,-5 10,-13 12,-24z"/>
   <polygon id="1" class="fil3" points="3756,326 3756,179 3785,179 3785,237 3843,237 3843,179 3873,179 3873,326 3843,326 3843,262 3785,262 3785,326 "/>
   <path id="2" class="fil3" d="M4036 326l-32 0 -12 -33 -59 0 -13 33 -31 0 57 -147 32 0 58 147zm-54 -58l-20 -54 -20 54 40 0z"/>
   <polygon id="3" class="fil3" points="4052,326 4052,179 4081,179 4142,278 4142,179 4169,179 4169,326 4139,326 4080,230 4080,326 "/>
   <polygon id="4" class="fil3" points="4201,326 4201,179 4230,179 4290,278 4290,179 4318,179 4318,326 4288,326 4228,230 4228,326 "/>
   <path id="5" class="fil3" d="M4482 326l-32 0 -13 -33 -59 0 -12 33 -32 0 57 -147 32 0 59 147zm-55 -58l-20 -54 -20 54 40 0z"/>
   <path id="6" class="fil3" d="M4497 326l0 -147 63 0c16,0 27,2 34,4 7,3 13,8 17,14 5,7 7,15 7,24 0,11 -3,20 -10,27 -6,7 -16,12 -29,14 7,3 12,7 16,12 4,4 10,12 17,24l18 28 -36 0 -21 -32c-8,-11 -13,-18 -16,-21 -3,-3 -6,-5 -9,-6 -3,-1 -8,-2 -15,-2l-6 0 0 61 -30 0zm30 -84l22 0c14,0 23,-1 27,-2 3,-1 6,-4 8,-6 2,-3 3,-7 3,-12 0,-4 -1,-8 -4,-12 -2,-3 -6,-5 -11,-5 -2,-1 -10,-1 -22,-1l-23 0 0 38z"/>
   <path id="7" class="fil3" d="M4778 326l-32 0 -12 -33 -59 0 -13 33 -31 0 57 -147 31 0 59 147zm-54 -58l-21 -54 -19 54 40 0z"/>
   <polygon id="8" class="fil3" points="4814,326 4814,265 4760,179 4795,179 4830,238 4864,179 4898,179 4844,265 4844,326 "/>
   <path id="9" class="fil3" d="M5026 326l-32 0 -13 -33 -59 0 -12 33 -31 0 57 -147 31 0 59 147zm-54 -58l-21 -54 -20 54 41 0z"/>
   <path id="10" class="fil3" d="M5042 326l0 -147 48 0c18,0 29,1 35,3 8,2 15,7 21,14 6,7 8,17 8,29 0,9 -1,16 -4,22 -4,7 -8,11 -13,15 -5,3 -10,6 -15,7 -7,1 -18,2 -31,2l-19 0 0 55 -30 0zm30 -122l0 42 16 0c12,0 19,-1 23,-2 4,-2 7,-4 10,-7 2,-4 3,-8 3,-12 0,-5 -2,-10 -5,-13 -3,-4 -7,-6 -12,-7 -3,0 -10,-1 -21,-1l-14 0z"/>
   <path id="11" class="fil3" d="M5296 326l-32 0 -13 -33 -59 0 -12 33 -31 0 57 -147 31 0 59 147zm-54 -58l-21 -54 -20 54 41 0z"/>
   <polygon id="12" class="fil3" points="5330,326 5330,204 5286,204 5286,179 5403,179 5403,204 5360,204 5360,326 "/>
   <polygon id="13" class="fil3" points="5422,326 5422,179 5451,179 5512,278 5512,179 5539,179 5539,326 5509,326 5450,230 5450,326 "/>
   <path id="14" class="fil3" d="M5703 326l-32 0 -13 -33 -59 0 -12 33 -31 0 57 -147 31 0 59 147zm-54 -58l-21 -54 -20 54 41 0z"/>
   <path class="fil0 str0" d="M8735 1290c-13,0 -24,-11 -24,-24l0 -1241c0,-14 11,-25 24,-25 14,0 25,11 25,25l0 1241c0,13 -11,24 -25,24z"/>
   <g>
    <rect class="fil1" x="8027" y="99" width="1509" height="307" rx="95" ry="72"/>
    <rect class="fil2" x="8058" y="130" width="1447" height="245" rx="59" ry="59"/>
   </g>
   <g>
    <g>
     <polygon class="fil4" points="9536,1219 9,1219 9,1813 9536,1813 "/>
    </g>
    <polygon class="fil5" points="9536,1156 9,1156 9,1812 9536,1812 "/>
    <polygon class="fil6" points="9536,1082 9,1082 9,1738 9536,1738 "/>
    <g>
     <polygon class="fil7" points="9536,1166 9,1166 9,1180 9536,1180 "/>
    </g>
    <g>
     <polygon class="fil7" points="9536,1632 9,1632 9,1646 9536,1646 "/>
    </g>
    <g>
     <g>
      <polygon class="fil7" points="2446,1417 2907,1417 2907,1403 2446,1403 "/>
      <polygon class="fil7" points="3368,1417 3828,1417 3828,1403 3368,1403 "/>
      <polygon class="fil7" points="9,1417 143,1417 143,1403 9,1403 "/>
      <polygon class="fil7" points="604,1417 1064,1417 1064,1403 604,1403 "/>
      <polygon class="fil7" points="4289,1417 4750,1417 4750,1403 4289,1403 "/>
      <polygon class="fil7" points="1525,1417 1986,1417 1986,1403 1525,1403 "/>
      <polygon class="fil7" points="8896,1417 9356,1417 9356,1403 8896,1403 "/>
      <polygon class="fil7" points="6132,1417 6592,1417 6592,1403 6132,1403 "/>
      <polygon class="fil7" points="7974,1417 8435,1417 8435,1403 7974,1403 "/>
      <polygon class="fil7" points="5210,1417 5671,1417 5671,1403 5210,1403 "/>
      <polygon class="fil7" points="7053,1417 7514,1417 7514,1403 7053,1403 "/>
     </g>
    </g>
   </g>
   <polygon class="fil3" points="8373,325 8373,178 8418,178 8444,278 8470,178 8515,178 8515,325 8487,325 8487,209 8458,325 8430,325 8401,209 8401,325 "/>
   <path id="1" class="fil3" d="M8545 178l30 0 0 80c0,12 0,20 1,24 1,6 4,11 9,15 4,3 11,5 19,5 8,0 15,-2 19,-5 4,-3 7,-8 8,-13 0,-5 1,-13 1,-25l0 -81 30 0 0 77c0,18 -1,30 -3,38 -1,7 -4,13 -9,18 -4,5 -10,9 -17,12 -7,3 -16,5 -28,5 -14,0 -25,-2 -32,-5 -7,-3 -13,-8 -17,-13 -4,-5 -7,-10 -8,-16 -2,-9 -3,-21 -3,-38l0 -78z"/>
   <polygon id="2" class="fil3" points="8693,325 8693,178 8737,178 8764,278 8790,178 8834,178 8834,325 8807,325 8807,209 8778,325 8749,325 8720,209 8720,325 "/>
   <path id="3" class="fil3" d="M8864 178l59 0c12,0 20,0 26,1 6,1 11,3 16,6 4,3 8,8 11,13 3,5 4,11 4,17 0,7 -1,13 -5,19 -4,6 -9,10 -15,13 9,2 16,7 20,13 5,6 8,14 8,22 0,7 -2,13 -5,20 -3,6 -7,11 -13,15 -5,4 -12,6 -20,7 -5,1 -17,1 -36,1l-50 0 0 -147zm30 24l0 34 20 0c11,0 18,0 21,0 5,-1 9,-3 12,-6 3,-2 4,-6 4,-11 0,-4 -1,-8 -3,-11 -3,-3 -7,-5 -12,-5 -2,0 -11,-1 -25,-1l-17 0zm0 59l0 39 28 0c10,0 17,0 20,-1 4,-1 8,-3 11,-6 3,-3 4,-7 4,-12 0,-5 -1,-8 -3,-11 -2,-4 -6,-6 -10,-7 -4,-2 -12,-2 -26,-2l-24 0z"/>
   <path id="4" class="fil3" d="M9145 325l-32 0 -13 -33 -59 0 -12 33 -31 0 57 -147 31 0 59 147zm-54 -58l-21 -55 -20 55 41 0z"/>
   <polygon id="5" class="fil3" points="9160,325 9160,178 9190,178 9190,325 "/>
   <g>
    <path class="fil0" d="M2173 728l139 73 0 -37 278 0 0 37 140 -73 -140 -74 0 37 -278 0 0 -37 -139 74zm70 36m69 19m139 -19m139 19m70 -19m0 -73m-70 -18m-139 18m-139 -18m-69 18"/>
    <path class="fil0" d="M6736 728l139 73 0 -37 278 0 0 37 139 -73 -139 -74 0 37 -278 0 0 -37 -139 74zm69 36m70 19m139 -19m139 19m70 -19m0 -73m-70 -18m-139 18m-139 -18m-70 18"/>
   </g>
  </g>
 </g>
</svg>
